SplineFontDB: 3.2
FontName: BrailleZephyr_6
FullName: BrailleZephyr_6
FamilyName: BrailleZephyr_6
Weight: Regular
Copyright: Copyright (c) 2015, Mike Gray <mgray@aph.org>
Version: 1.0
ItalicAngle: 0
UnderlinePosition: 0
UnderlineWidth: 0
Ascent: 800
Descent: 200
InvalidEm: 0
sfntRevision: 0x00010000
LayerCount: 2
Layer: 0 0 "Stra+AX4A-nji" 1
Layer: 1 0 "Prednji" 0
XUID: [1021 538 559818869 25809]
StyleMap: 0x0040
FSType: 0
OS2Version: 3
OS2_WeightWidthSlopeOnly: 0
OS2_UseTypoMetrics: 0
CreationTime: 1441203040
ModificationTime: 1652985151
PfmFamily: 81
TTFWeight: 400
TTFWidth: 5
LineGap: 90
VLineGap: 0
Panose: 1 1 1 1 1 1 1 1 1 1
OS2TypoAscent: 800
OS2TypoAOffset: 0
OS2TypoDescent: -200
OS2TypoDOffset: 0
OS2TypoLinegap: 90
OS2WinAscent: 800
OS2WinAOffset: 0
OS2WinDescent: 200
OS2WinDOffset: 0
HheadAscent: 800
HheadAOffset: 0
HheadDescent: -200
HheadDOffset: 0
OS2SubXSize: 650
OS2SubYSize: 700
OS2SubXOff: 0
OS2SubYOff: 140
OS2SupXSize: 650
OS2SupYSize: 700
OS2SupXOff: 0
OS2SupYOff: 480
OS2StrikeYSize: 49
OS2StrikeYPos: 258
OS2CapHeight: 650
OS2XHeight: 650
OS2Vendor: 'PfEd'
OS2CodePages: 00000001.00000000
OS2UnicodeRanges: 00000003.10002004.00040000.00000000
DEI: 91125

StartChar: uniE000
Encoding: 57344 57344 3
Width: 750
GlyphClass: 2
Flags: W
LayerCount: 2
Fore
SplineSet
210 550 m 0
 210 572 228 590 250 590 c 0
 272 590 290 572 290 550 c 0
 290 528 272 510 250 510 c 0
 228 510 210 528 210 550 c 0
210 300 m 0
 210 322 228 340 250 340 c 0
 272 340 290 322 290 300 c 0
 290 278 272 260 250 260 c 0
 228 260 210 278 210 300 c 0
210 50 m 0
 210 72 228 90 250 90 c 0
 272 90 290 72 290 50 c 0
 290 28 272 10 250 10 c 0
 228 10 210 28 210 50 c 0
460 550 m 0
 460 572 478 590 500 590 c 0
 522 590 540 572 540 550 c 0
 540 528 522 510 500 510 c 0
 478 510 460 528 460 550 c 0
460 300 m 0
 460 322 478 340 500 340 c 0
 522 340 540 322 540 300 c 0
 540 278 522 260 500 260 c 0
 478 260 460 278 460 300 c 0
460 50 m 0
 460 72 478 90 500 90 c 0
 522 90 540 72 540 50 c 0
 540 28 522 10 500 10 c 0
 478 10 460 28 460 50 c 0
EndSplineSet
Validated: 1
EndChar

StartChar: uniE001
Encoding: 57345 57345 4
Width: 750
GlyphClass: 2
Flags: W
LayerCount: 2
Fore
SplineSet
218 600 m 0
 218 618 232 632 250 632 c 0
 268 632 282 618 282 600 c 0
 282 582 268 568 250 568 c 0
 232 568 218 582 218 600 c 0
218 400 m 0
 218 418 232 432 250 432 c 0
 268 432 282 418 282 400 c 0
 282 382 268 368 250 368 c 0
 232 368 218 382 218 400 c 0
218 200 m 0
 218 218 232 232 250 232 c 0
 268 232 282 218 282 200 c 0
 282 182 268 168 250 168 c 0
 232 168 218 182 218 200 c 0
468 600 m 0
 468 618 482 632 500 632 c 0
 518 632 532 618 532 600 c 0
 532 582 518 568 500 568 c 0
 482 568 468 582 468 600 c 0
468 400 m 0
 468 418 482 432 500 432 c 0
 518 432 532 418 532 400 c 0
 532 382 518 368 500 368 c 0
 482 368 468 382 468 400 c 0
468 200 m 0
 468 218 482 232 500 232 c 0
 518 232 532 218 532 200 c 0
 532 182 518 168 500 168 c 0
 482 168 468 182 468 200 c 0
218 0 m 0
 218 18 232 32 250 32 c 0
 268 32 282 18 282 0 c 0
 282 -18 268 -32 250 -32 c 0
 232 -32 218 -18 218 0 c 0
468 0 m 0
 468 18 482 32 500 32 c 0
 518 32 532 18 532 0 c 0
 532 -18 518 -32 500 -32 c 0
 482 -32 468 -18 468 0 c 0
EndSplineSet
Validated: 1
EndChar

StartChar: uni25A1
Encoding: 9633 9633 5
Width: 750
GlyphClass: 2
Flags: W
LayerCount: 2
Fore
SplineSet
40 760 m 1
 40 -160 l 1
 710 -160 l 1
 710 760 l 1
 40 760 l 1
0 800 m 1
 750 800 l 1
 750 -200 l 1
 0 -200 l 1
 0 800 l 1
EndSplineSet
Validated: 1
EndChar

StartChar: uni20DE
Encoding: 8414 8414 6
Width: 0
GlyphClass: 2
Flags: W
LayerCount: 2
Fore
SplineSet
-710 760 m 1
 -710 -160 l 1
 -40 -160 l 1
 -40 760 l 1
 -710 760 l 1
-750 800 m 1
 0 800 l 1
 0 -200 l 1
 -750 -200 l 1
 -750 800 l 1
EndSplineSet
Validated: 1
EndChar

StartChar: uni21
Encoding: 33 33 7
Width: 750
GlyphClass: 2
Flags: W
HStem: -50 200<188.358 311.642> 200 200<188.358 311.642 438.358 561.642>
VStem: 150 200<-11.6421 111.642 238.358 361.642> 400 200<238.358 361.642>
LayerCount: 2
Fore
SplineSet
150 300 m 0
 150 355 195 400 250 400 c 0
 305 400 350 355 350 300 c 0
 350 245 305 200 250 200 c 0
 195 200 150 245 150 300 c 0
150 50 m 0
 150 105 195 150 250 150 c 0
 305 150 350 105 350 50 c 0
 350 -5 305 -50 250 -50 c 0
 195 -50 150 -5 150 50 c 0
400 300 m 0
 400 355 445 400 500 400 c 0
 555 400 600 355 600 300 c 0
 600 245 555 200 500 200 c 0
 445 200 400 245 400 300 c 0
460 50 m 1024
EndSplineSet
Validated: 1
EndChar

StartChar: uni22
Encoding: 34 34 8
Width: 750
GlyphClass: 2
Flags: W
HStem: -50 200<188.358 311.642 438.358 561.642> 200 200<188.358 311.642 438.358 561.642>
VStem: 150 200<-11.6421 111.642 238.358 361.642> 400 200<-11.6421 111.642 238.358 361.642>
LayerCount: 2
Fore
SplineSet
150 300 m 0
 150 355 195 400 250 400 c 0
 305 400 350 355 350 300 c 0
 350 245 305 200 250 200 c 0
 195 200 150 245 150 300 c 0
150 50 m 0
 150 105 195 150 250 150 c 0
 305 150 350 105 350 50 c 0
 350 -5 305 -50 250 -50 c 0
 195 -50 150 -5 150 50 c 0
400 300 m 0
 400 355 445 400 500 400 c 0
 555 400 600 355 600 300 c 0
 600 245 555 200 500 200 c 0
 445 200 400 245 400 300 c 0
400 50 m 0
 400 105 445 150 500 150 c 0
 555 150 600 105 600 50 c 0
 600 -5 555 -50 500 -50 c 0
 445 -50 400 -5 400 50 c 0
EndSplineSet
Validated: 1
EndChar

StartChar: uni26
Encoding: 38 38 9
Width: 750
GlyphClass: 2
Flags: W
LayerCount: 2
Fore
SplineSet
150 550 m 0
 150 605 195 650 250 650 c 0
 305 650 350 605 350 550 c 0
 350 495 305 450 250 450 c 0
 195 450 150 495 150 550 c 0
150 300 m 0
 150 355 195 400 250 400 c 0
 305 400 350 355 350 300 c 0
 350 245 305 200 250 200 c 0
 195 200 150 245 150 300 c 0
150 50 m 0
 150 105 195 150 250 150 c 0
 305 150 350 105 350 50 c 0
 350 -5 305 -50 250 -50 c 0
 195 -50 150 -5 150 50 c 0
400 550 m 0
 400 605 445 650 500 650 c 0
 555 650 600 605 600 550 c 0
 600 495 555 450 500 450 c 0
 445 450 400 495 400 550 c 0
400 50 m 0
 400 105 445 150 500 150 c 0
 555 150 600 105 600 50 c 0
 600 -5 555 -50 500 -50 c 0
 445 -50 400 -5 400 50 c 0
EndSplineSet
Validated: 1
EndChar

StartChar: uni29
Encoding: 41 41 10
Width: 750
GlyphClass: 2
Flags: W
HStem: -50 200<188.358 311.642> 200 200<438.358 561.642> 450 200<438.358 561.642>
VStem: 150 200<-11.6421 111.642> 400 200<238.358 361.642 488.358 611.642>
CounterMasks: 1 e0
LayerCount: 2
Fore
SplineSet
150 50 m 0
 150 105 195 150 250 150 c 0
 305 150 350 105 350 50 c 0
 350 -5 305 -50 250 -50 c 0
 195 -50 150 -5 150 50 c 0
400 550 m 0
 400 605 445 650 500 650 c 0
 555 650 600 605 600 550 c 0
 600 495 555 450 500 450 c 0
 445 450 400 495 400 550 c 0
400 300 m 0
 400 355 445 400 500 400 c 0
 555 400 600 355 600 300 c 0
 600 245 555 200 500 200 c 0
 445 200 400 245 400 300 c 0
460 50 m 1024
EndSplineSet
Validated: 1
EndChar

StartChar: uni2A
Encoding: 42 42 11
Width: 750
GlyphClass: 2
Flags: W
HStem: -50 200<188.358 311.642> 200 200<438.358 561.642>
VStem: 150 200<-11.6421 111.642> 400 200<238.358 361.642>
LayerCount: 2
Fore
SplineSet
150 50 m 0
 150 105 195 150 250 150 c 0
 305 150 350 105 350 50 c 0
 350 -5 305 -50 250 -50 c 0
 195 -50 150 -5 150 50 c 0
400 300 m 0
 400 355 445 400 500 400 c 0
 555 400 600 355 600 300 c 0
 600 245 555 200 500 200 c 0
 445 200 400 245 400 300 c 0
460 50 m 1024
EndSplineSet
Validated: 1
EndChar

StartChar: uni2C
Encoding: 44 44 12
Width: 750
GlyphClass: 2
Flags: W
HStem: 200 200<188.358 311.642>
VStem: 150 200<238.358 361.642>
LayerCount: 2
Fore
SplineSet
150 300 m 0
 150 355 195 400 250 400 c 0
 305 400 350 355 350 300 c 0
 350 245 305 200 250 200 c 0
 195 200 150 245 150 300 c 0
460 50 m 1024
EndSplineSet
Validated: 1
EndChar

StartChar: uni2D
Encoding: 45 45 13
Width: 750
GlyphClass: 2
Flags: W
LayerCount: 2
Fore
SplineSet
150 50 m 0
 150 105 195 150 250 150 c 0
 305 150 350 105 350 50 c 0
 350 -5 305 -50 250 -50 c 0
 195 -50 150 -5 150 50 c 0
400 50 m 0
 400 105 445 150 500 150 c 0
 555 150 600 105 600 50 c 0
 600 -5 555 -50 500 -50 c 0
 445 -50 400 -5 400 50 c 0
EndSplineSet
Validated: 1
EndChar

StartChar: uni2E
Encoding: 46 46 14
Width: 750
GlyphClass: 2
Flags: W
HStem: -50 200<188.358 311.642>
VStem: 150 200<-11.6421 111.642>
LayerCount: 2
Fore
SplineSet
150 50 m 0
 150 105 195 150 250 150 c 0
 305 150 350 105 350 50 c 0
 350 -5 305 -50 250 -50 c 0
 195 -50 150 -5 150 50 c 0
460 50 m 1024
EndSplineSet
Validated: 1
EndChar

StartChar: uni2F
Encoding: 47 47 15
Width: 750
GlyphClass: 2
Flags: W
HStem: -50 200<438.358 561.642> 200 200<188.358 311.642 438.358 561.642> 450 200<188.358 311.642>
VStem: 150 200<238.358 361.642 488.358 611.642> 400 200<-11.6421 111.642 238.358 361.642>
CounterMasks: 1 e0
LayerCount: 2
Fore
SplineSet
150 550 m 0
 150 605 195 650 250 650 c 0
 305 650 350 605 350 550 c 0
 350 495 305 450 250 450 c 0
 195 450 150 495 150 550 c 0
150 300 m 0
 150 355 195 400 250 400 c 0
 305 400 350 355 350 300 c 0
 350 245 305 200 250 200 c 0
 195 200 150 245 150 300 c 0
400 300 m 0
 400 355 445 400 500 400 c 0
 555 400 600 355 600 300 c 0
 600 245 555 200 500 200 c 0
 445 200 400 245 400 300 c 0
400 50 m 0
 400 105 445 150 500 150 c 0
 555 150 600 105 600 50 c 0
 600 -5 555 -50 500 -50 c 0
 445 -50 400 -5 400 50 c 0
EndSplineSet
Validated: 1
EndChar

StartChar: uni3A
Encoding: 58 58 16
Width: 750
GlyphClass: 2
Flags: W
HStem: 200 200<188.358 311.642 438.358 561.642>
VStem: 150 200<238.358 361.642> 400 200<238.358 361.642>
LayerCount: 2
Fore
SplineSet
150 300 m 0
 150 355 195 400 250 400 c 0
 305 400 350 355 350 300 c 0
 350 245 305 200 250 200 c 0
 195 200 150 245 150 300 c 0
400 300 m 0
 400 355 445 400 500 400 c 0
 555 400 600 355 600 300 c 0
 600 245 555 200 500 200 c 0
 445 200 400 245 400 300 c 0
460 50 m 1024
EndSplineSet
Validated: 1
EndChar

StartChar: uni3B
Encoding: 59 59 17
Width: 750
GlyphClass: 2
Flags: W
HStem: -50 200<188.358 311.642> 200 200<188.358 311.642>
VStem: 150 200<-11.6421 111.642 238.358 361.642>
LayerCount: 2
Fore
SplineSet
150 300 m 0
 150 355 195 400 250 400 c 0
 305 400 350 355 350 300 c 0
 350 245 305 200 250 200 c 0
 195 200 150 245 150 300 c 0
150 50 m 0
 150 105 195 150 250 150 c 0
 305 150 350 105 350 50 c 0
 350 -5 305 -50 250 -50 c 0
 195 -50 150 -5 150 50 c 0
460 50 m 1024
EndSplineSet
Validated: 1
EndChar

StartChar: uni3F
Encoding: 63 63 18
Width: 750
GlyphClass: 2
Flags: W
HStem: -50 200<438.358 561.642> 200 200<188.358 311.642>
VStem: 150 200<238.358 361.642> 400 200<-11.6421 111.642>
LayerCount: 2
Fore
SplineSet
150 300 m 0
 150 355 195 400 250 400 c 0
 305 400 350 355 350 300 c 0
 350 245 305 200 250 200 c 0
 195 200 150 245 150 300 c 0
400 50 m 0
 400 105 445 150 500 150 c 0
 555 150 600 105 600 50 c 0
 600 -5 555 -50 500 -50 c 0
 445 -50 400 -5 400 50 c 0
EndSplineSet
Validated: 1
EndChar

StartChar: uni41
Encoding: 65 65 19
Width: 750
GlyphClass: 2
Flags: W
HStem: 450 200<188.358 311.642>
VStem: 150 200<488.358 611.642>
LayerCount: 2
Fore
SplineSet
150 550 m 0
 150 605 195 650 250 650 c 0
 305 650 350 605 350 550 c 0
 350 495 305 450 250 450 c 0
 195 450 150 495 150 550 c 0
460 50 m 1024
EndSplineSet
Validated: 1
EndChar

StartChar: uni42
Encoding: 66 66 20
Width: 750
GlyphClass: 2
Flags: W
LayerCount: 2
Fore
SplineSet
150 550 m 0
 150 605 195 650 250 650 c 0
 305 650 350 605 350 550 c 0
 350 495 305 450 250 450 c 0
 195 450 150 495 150 550 c 0
150 300 m 0
 150 355 195 400 250 400 c 0
 305 400 350 355 350 300 c 0
 350 245 305 200 250 200 c 0
 195 200 150 245 150 300 c 0
460 50 m 1024
EndSplineSet
Validated: 1
EndChar

StartChar: uni43
Encoding: 67 67 21
Width: 750
GlyphClass: 2
Flags: W
LayerCount: 2
Fore
SplineSet
150 550 m 0
 150 605 195 650 250 650 c 0
 305 650 350 605 350 550 c 0
 350 495 305 450 250 450 c 0
 195 450 150 495 150 550 c 0
400 550 m 0
 400 605 445 650 500 650 c 0
 555 650 600 605 600 550 c 0
 600 495 555 450 500 450 c 0
 445 450 400 495 400 550 c 0
460 50 m 1024
EndSplineSet
Validated: 1
EndChar

StartChar: uni44
Encoding: 68 68 22
Width: 750
GlyphClass: 2
Flags: W
LayerCount: 2
Fore
SplineSet
150 550 m 0
 150 605 195 650 250 650 c 0
 305 650 350 605 350 550 c 0
 350 495 305 450 250 450 c 0
 195 450 150 495 150 550 c 0
400 550 m 0
 400 605 445 650 500 650 c 0
 555 650 600 605 600 550 c 0
 600 495 555 450 500 450 c 0
 445 450 400 495 400 550 c 0
400 300 m 0
 400 355 445 400 500 400 c 0
 555 400 600 355 600 300 c 0
 600 245 555 200 500 200 c 0
 445 200 400 245 400 300 c 0
460 50 m 1024
EndSplineSet
Validated: 1
EndChar

StartChar: uni45
Encoding: 69 69 23
Width: 750
GlyphClass: 2
Flags: W
LayerCount: 2
Fore
SplineSet
150 550 m 0
 150 605 195 650 250 650 c 0
 305 650 350 605 350 550 c 0
 350 495 305 450 250 450 c 0
 195 450 150 495 150 550 c 0
400 300 m 0
 400 355 445 400 500 400 c 0
 555 400 600 355 600 300 c 0
 600 245 555 200 500 200 c 0
 445 200 400 245 400 300 c 0
460 50 m 1024
EndSplineSet
Validated: 1
EndChar

StartChar: uni46
Encoding: 70 70 24
Width: 750
GlyphClass: 2
Flags: W
LayerCount: 2
Fore
SplineSet
150 550 m 0
 150 605 195 650 250 650 c 0
 305 650 350 605 350 550 c 0
 350 495 305 450 250 450 c 0
 195 450 150 495 150 550 c 0
150 300 m 0
 150 355 195 400 250 400 c 0
 305 400 350 355 350 300 c 0
 350 245 305 200 250 200 c 0
 195 200 150 245 150 300 c 0
400 550 m 0
 400 605 445 650 500 650 c 0
 555 650 600 605 600 550 c 0
 600 495 555 450 500 450 c 0
 445 450 400 495 400 550 c 0
460 50 m 1024
EndSplineSet
Validated: 1
EndChar

StartChar: uni47
Encoding: 71 71 25
Width: 750
GlyphClass: 2
Flags: W
LayerCount: 2
Fore
SplineSet
150 550 m 0
 150 605 195 650 250 650 c 0
 305 650 350 605 350 550 c 0
 350 495 305 450 250 450 c 0
 195 450 150 495 150 550 c 0
150 300 m 0
 150 355 195 400 250 400 c 0
 305 400 350 355 350 300 c 0
 350 245 305 200 250 200 c 0
 195 200 150 245 150 300 c 0
400 550 m 0
 400 605 445 650 500 650 c 0
 555 650 600 605 600 550 c 0
 600 495 555 450 500 450 c 0
 445 450 400 495 400 550 c 0
400 300 m 0
 400 355 445 400 500 400 c 0
 555 400 600 355 600 300 c 0
 600 245 555 200 500 200 c 0
 445 200 400 245 400 300 c 0
460 50 m 1024
EndSplineSet
Validated: 1
EndChar

StartChar: uni48
Encoding: 72 72 26
Width: 750
GlyphClass: 2
Flags: W
LayerCount: 2
Fore
SplineSet
150 550 m 0
 150 605 195 650 250 650 c 0
 305 650 350 605 350 550 c 0
 350 495 305 450 250 450 c 0
 195 450 150 495 150 550 c 0
150 300 m 0
 150 355 195 400 250 400 c 0
 305 400 350 355 350 300 c 0
 350 245 305 200 250 200 c 0
 195 200 150 245 150 300 c 0
400 300 m 0
 400 355 445 400 500 400 c 0
 555 400 600 355 600 300 c 0
 600 245 555 200 500 200 c 0
 445 200 400 245 400 300 c 0
460 50 m 1024
EndSplineSet
Validated: 1
EndChar

StartChar: uni49
Encoding: 73 73 27
Width: 750
GlyphClass: 2
Flags: W
LayerCount: 2
Fore
SplineSet
150 300 m 0
 150 355 195 400 250 400 c 0
 305 400 350 355 350 300 c 0
 350 245 305 200 250 200 c 0
 195 200 150 245 150 300 c 0
400 550 m 0
 400 605 445 650 500 650 c 0
 555 650 600 605 600 550 c 0
 600 495 555 450 500 450 c 0
 445 450 400 495 400 550 c 0
460 50 m 1024
EndSplineSet
Validated: 1
EndChar

StartChar: uni4A
Encoding: 74 74 28
Width: 750
GlyphClass: 2
Flags: W
LayerCount: 2
Fore
SplineSet
150 300 m 0
 150 355 195 400 250 400 c 0
 305 400 350 355 350 300 c 0
 350 245 305 200 250 200 c 0
 195 200 150 245 150 300 c 0
400 550 m 0
 400 605 445 650 500 650 c 0
 555 650 600 605 600 550 c 0
 600 495 555 450 500 450 c 0
 445 450 400 495 400 550 c 0
400 300 m 0
 400 355 445 400 500 400 c 0
 555 400 600 355 600 300 c 0
 600 245 555 200 500 200 c 0
 445 200 400 245 400 300 c 0
460 50 m 1024
EndSplineSet
Validated: 1
EndChar

StartChar: uni4B
Encoding: 75 75 29
Width: 750
GlyphClass: 2
Flags: W
LayerCount: 2
Fore
SplineSet
150 550 m 0
 150 605 195 650 250 650 c 0
 305 650 350 605 350 550 c 0
 350 495 305 450 250 450 c 0
 195 450 150 495 150 550 c 0
150 50 m 0
 150 105 195 150 250 150 c 0
 305 150 350 105 350 50 c 0
 350 -5 305 -50 250 -50 c 0
 195 -50 150 -5 150 50 c 0
460 50 m 1024
EndSplineSet
Validated: 1
EndChar

StartChar: uni4C
Encoding: 76 76 30
Width: 750
GlyphClass: 2
Flags: W
LayerCount: 2
Fore
SplineSet
150 550 m 0
 150 605 195 650 250 650 c 0
 305 650 350 605 350 550 c 0
 350 495 305 450 250 450 c 0
 195 450 150 495 150 550 c 0
150 300 m 0
 150 355 195 400 250 400 c 0
 305 400 350 355 350 300 c 0
 350 245 305 200 250 200 c 0
 195 200 150 245 150 300 c 0
150 50 m 0
 150 105 195 150 250 150 c 0
 305 150 350 105 350 50 c 0
 350 -5 305 -50 250 -50 c 0
 195 -50 150 -5 150 50 c 0
460 50 m 1024
EndSplineSet
Validated: 1
EndChar

StartChar: uni4D
Encoding: 77 77 31
Width: 750
GlyphClass: 2
Flags: W
LayerCount: 2
Fore
SplineSet
150 550 m 0
 150 605 195 650 250 650 c 0
 305 650 350 605 350 550 c 0
 350 495 305 450 250 450 c 0
 195 450 150 495 150 550 c 0
150 50 m 0
 150 105 195 150 250 150 c 0
 305 150 350 105 350 50 c 0
 350 -5 305 -50 250 -50 c 0
 195 -50 150 -5 150 50 c 0
400 550 m 0
 400 605 445 650 500 650 c 0
 555 650 600 605 600 550 c 0
 600 495 555 450 500 450 c 0
 445 450 400 495 400 550 c 0
460 50 m 1024
EndSplineSet
Validated: 1
EndChar

StartChar: uni4E
Encoding: 78 78 32
Width: 750
GlyphClass: 2
Flags: W
LayerCount: 2
Fore
SplineSet
150 550 m 0
 150 605 195 650 250 650 c 0
 305 650 350 605 350 550 c 0
 350 495 305 450 250 450 c 0
 195 450 150 495 150 550 c 0
150 50 m 0
 150 105 195 150 250 150 c 0
 305 150 350 105 350 50 c 0
 350 -5 305 -50 250 -50 c 0
 195 -50 150 -5 150 50 c 0
400 550 m 0
 400 605 445 650 500 650 c 0
 555 650 600 605 600 550 c 0
 600 495 555 450 500 450 c 0
 445 450 400 495 400 550 c 0
400 300 m 0
 400 355 445 400 500 400 c 0
 555 400 600 355 600 300 c 0
 600 245 555 200 500 200 c 0
 445 200 400 245 400 300 c 0
460 50 m 1024
EndSplineSet
Validated: 1
EndChar

StartChar: uni4F
Encoding: 79 79 33
Width: 750
GlyphClass: 2
Flags: W
LayerCount: 2
Fore
SplineSet
150 550 m 0
 150 605 195 650 250 650 c 0
 305 650 350 605 350 550 c 0
 350 495 305 450 250 450 c 0
 195 450 150 495 150 550 c 0
150 50 m 0
 150 105 195 150 250 150 c 0
 305 150 350 105 350 50 c 0
 350 -5 305 -50 250 -50 c 0
 195 -50 150 -5 150 50 c 0
400 300 m 0
 400 355 445 400 500 400 c 0
 555 400 600 355 600 300 c 0
 600 245 555 200 500 200 c 0
 445 200 400 245 400 300 c 0
460 50 m 1024
EndSplineSet
Validated: 1
EndChar

StartChar: uni50
Encoding: 80 80 34
Width: 750
GlyphClass: 2
Flags: W
LayerCount: 2
Fore
SplineSet
150 550 m 0
 150 605 195 650 250 650 c 0
 305 650 350 605 350 550 c 0
 350 495 305 450 250 450 c 0
 195 450 150 495 150 550 c 0
150 300 m 0
 150 355 195 400 250 400 c 0
 305 400 350 355 350 300 c 0
 350 245 305 200 250 200 c 0
 195 200 150 245 150 300 c 0
150 50 m 0
 150 105 195 150 250 150 c 0
 305 150 350 105 350 50 c 0
 350 -5 305 -50 250 -50 c 0
 195 -50 150 -5 150 50 c 0
400 550 m 0
 400 605 445 650 500 650 c 0
 555 650 600 605 600 550 c 0
 600 495 555 450 500 450 c 0
 445 450 400 495 400 550 c 0
460 50 m 1024
EndSplineSet
Validated: 1
EndChar

StartChar: uni51
Encoding: 81 81 35
Width: 750
GlyphClass: 2
Flags: W
LayerCount: 2
Fore
SplineSet
150 550 m 0
 150 605 195 650 250 650 c 0
 305 650 350 605 350 550 c 0
 350 495 305 450 250 450 c 0
 195 450 150 495 150 550 c 0
150 300 m 0
 150 355 195 400 250 400 c 0
 305 400 350 355 350 300 c 0
 350 245 305 200 250 200 c 0
 195 200 150 245 150 300 c 0
150 50 m 0
 150 105 195 150 250 150 c 0
 305 150 350 105 350 50 c 0
 350 -5 305 -50 250 -50 c 0
 195 -50 150 -5 150 50 c 0
400 550 m 0
 400 605 445 650 500 650 c 0
 555 650 600 605 600 550 c 0
 600 495 555 450 500 450 c 0
 445 450 400 495 400 550 c 0
400 300 m 0
 400 355 445 400 500 400 c 0
 555 400 600 355 600 300 c 0
 600 245 555 200 500 200 c 0
 445 200 400 245 400 300 c 0
460 50 m 1024
EndSplineSet
Validated: 1
EndChar

StartChar: uni52
Encoding: 82 82 36
Width: 750
GlyphClass: 2
Flags: W
LayerCount: 2
Fore
SplineSet
150 550 m 0
 150 605 195 650 250 650 c 0
 305 650 350 605 350 550 c 0
 350 495 305 450 250 450 c 0
 195 450 150 495 150 550 c 0
150 300 m 0
 150 355 195 400 250 400 c 0
 305 400 350 355 350 300 c 0
 350 245 305 200 250 200 c 0
 195 200 150 245 150 300 c 0
150 50 m 0
 150 105 195 150 250 150 c 0
 305 150 350 105 350 50 c 0
 350 -5 305 -50 250 -50 c 0
 195 -50 150 -5 150 50 c 0
400 300 m 0
 400 355 445 400 500 400 c 0
 555 400 600 355 600 300 c 0
 600 245 555 200 500 200 c 0
 445 200 400 245 400 300 c 0
460 50 m 1024
EndSplineSet
Validated: 1
EndChar

StartChar: uni53
Encoding: 83 83 37
Width: 750
GlyphClass: 2
Flags: W
LayerCount: 2
Fore
SplineSet
150 300 m 0
 150 355 195 400 250 400 c 0
 305 400 350 355 350 300 c 0
 350 245 305 200 250 200 c 0
 195 200 150 245 150 300 c 0
150 50 m 0
 150 105 195 150 250 150 c 0
 305 150 350 105 350 50 c 0
 350 -5 305 -50 250 -50 c 0
 195 -50 150 -5 150 50 c 0
400 550 m 0
 400 605 445 650 500 650 c 0
 555 650 600 605 600 550 c 0
 600 495 555 450 500 450 c 0
 445 450 400 495 400 550 c 0
460 50 m 1024
EndSplineSet
Validated: 1
EndChar

StartChar: uni54
Encoding: 84 84 38
Width: 750
GlyphClass: 2
Flags: W
LayerCount: 2
Fore
SplineSet
150 300 m 0
 150 355 195 400 250 400 c 0
 305 400 350 355 350 300 c 0
 350 245 305 200 250 200 c 0
 195 200 150 245 150 300 c 0
150 50 m 0
 150 105 195 150 250 150 c 0
 305 150 350 105 350 50 c 0
 350 -5 305 -50 250 -50 c 0
 195 -50 150 -5 150 50 c 0
400 550 m 0
 400 605 445 650 500 650 c 0
 555 650 600 605 600 550 c 0
 600 495 555 450 500 450 c 0
 445 450 400 495 400 550 c 0
400 300 m 0
 400 355 445 400 500 400 c 0
 555 400 600 355 600 300 c 0
 600 245 555 200 500 200 c 0
 445 200 400 245 400 300 c 0
460 50 m 1024
EndSplineSet
Validated: 1
EndChar

StartChar: uni55
Encoding: 85 85 39
Width: 750
GlyphClass: 2
Flags: W
LayerCount: 2
Fore
SplineSet
150 550 m 0
 150 605 195 650 250 650 c 0
 305 650 350 605 350 550 c 0
 350 495 305 450 250 450 c 0
 195 450 150 495 150 550 c 0
150 50 m 0
 150 105 195 150 250 150 c 0
 305 150 350 105 350 50 c 0
 350 -5 305 -50 250 -50 c 0
 195 -50 150 -5 150 50 c 0
400 50 m 0
 400 105 445 150 500 150 c 0
 555 150 600 105 600 50 c 0
 600 -5 555 -50 500 -50 c 0
 445 -50 400 -5 400 50 c 0
EndSplineSet
Validated: 1
EndChar

StartChar: uni56
Encoding: 86 86 40
Width: 750
GlyphClass: 2
Flags: W
LayerCount: 2
Fore
SplineSet
150 550 m 0
 150 605 195 650 250 650 c 0
 305 650 350 605 350 550 c 0
 350 495 305 450 250 450 c 0
 195 450 150 495 150 550 c 0
150 300 m 0
 150 355 195 400 250 400 c 0
 305 400 350 355 350 300 c 0
 350 245 305 200 250 200 c 0
 195 200 150 245 150 300 c 0
150 50 m 0
 150 105 195 150 250 150 c 0
 305 150 350 105 350 50 c 0
 350 -5 305 -50 250 -50 c 0
 195 -50 150 -5 150 50 c 0
400 50 m 0
 400 105 445 150 500 150 c 0
 555 150 600 105 600 50 c 0
 600 -5 555 -50 500 -50 c 0
 445 -50 400 -5 400 50 c 0
EndSplineSet
Validated: 1
EndChar

StartChar: uni57
Encoding: 87 87 41
Width: 750
GlyphClass: 2
Flags: W
LayerCount: 2
Fore
SplineSet
150 300 m 0
 150 355 195 400 250 400 c 0
 305 400 350 355 350 300 c 0
 350 245 305 200 250 200 c 0
 195 200 150 245 150 300 c 0
400 550 m 0
 400 605 445 650 500 650 c 0
 555 650 600 605 600 550 c 0
 600 495 555 450 500 450 c 0
 445 450 400 495 400 550 c 0
400 300 m 0
 400 355 445 400 500 400 c 0
 555 400 600 355 600 300 c 0
 600 245 555 200 500 200 c 0
 445 200 400 245 400 300 c 0
400 50 m 0
 400 105 445 150 500 150 c 0
 555 150 600 105 600 50 c 0
 600 -5 555 -50 500 -50 c 0
 445 -50 400 -5 400 50 c 0
EndSplineSet
Validated: 1
EndChar

StartChar: uni58
Encoding: 88 88 42
Width: 750
GlyphClass: 2
Flags: W
LayerCount: 2
Fore
SplineSet
150 550 m 0
 150 605 195 650 250 650 c 0
 305 650 350 605 350 550 c 0
 350 495 305 450 250 450 c 0
 195 450 150 495 150 550 c 0
150 50 m 0
 150 105 195 150 250 150 c 0
 305 150 350 105 350 50 c 0
 350 -5 305 -50 250 -50 c 0
 195 -50 150 -5 150 50 c 0
400 550 m 0
 400 605 445 650 500 650 c 0
 555 650 600 605 600 550 c 0
 600 495 555 450 500 450 c 0
 445 450 400 495 400 550 c 0
400 50 m 0
 400 105 445 150 500 150 c 0
 555 150 600 105 600 50 c 0
 600 -5 555 -50 500 -50 c 0
 445 -50 400 -5 400 50 c 0
EndSplineSet
Validated: 1
EndChar

StartChar: uni59
Encoding: 89 89 43
Width: 750
GlyphClass: 2
Flags: W
LayerCount: 2
Fore
SplineSet
150 550 m 0
 150 605 195 650 250 650 c 0
 305 650 350 605 350 550 c 0
 350 495 305 450 250 450 c 0
 195 450 150 495 150 550 c 0
150 50 m 0
 150 105 195 150 250 150 c 0
 305 150 350 105 350 50 c 0
 350 -5 305 -50 250 -50 c 0
 195 -50 150 -5 150 50 c 0
400 550 m 0
 400 605 445 650 500 650 c 0
 555 650 600 605 600 550 c 0
 600 495 555 450 500 450 c 0
 445 450 400 495 400 550 c 0
400 300 m 0
 400 355 445 400 500 400 c 0
 555 400 600 355 600 300 c 0
 600 245 555 200 500 200 c 0
 445 200 400 245 400 300 c 0
400 50 m 0
 400 105 445 150 500 150 c 0
 555 150 600 105 600 50 c 0
 600 -5 555 -50 500 -50 c 0
 445 -50 400 -5 400 50 c 0
EndSplineSet
Validated: 1
EndChar

StartChar: uni5A
Encoding: 90 90 44
Width: 750
GlyphClass: 2
Flags: W
LayerCount: 2
Fore
SplineSet
150 550 m 0
 150 605 195 650 250 650 c 0
 305 650 350 605 350 550 c 0
 350 495 305 450 250 450 c 0
 195 450 150 495 150 550 c 0
150 50 m 0
 150 105 195 150 250 150 c 0
 305 150 350 105 350 50 c 0
 350 -5 305 -50 250 -50 c 0
 195 -50 150 -5 150 50 c 0
400 300 m 0
 400 355 445 400 500 400 c 0
 555 400 600 355 600 300 c 0
 600 245 555 200 500 200 c 0
 445 200 400 245 400 300 c 0
400 50 m 0
 400 105 445 150 500 150 c 0
 555 150 600 105 600 50 c 0
 600 -5 555 -50 500 -50 c 0
 445 -50 400 -5 400 50 c 0
EndSplineSet
Validated: 1
EndChar

StartChar: uni5B
Encoding: 91 91 45
Width: 750
GlyphClass: 2
Flags: W
HStem: -50 200<188.358 311.642 438.358 561.642> 200 200<188.358 311.642 438.358 561.642> 450 200<188.358 311.642>
VStem: 150 200<-11.6421 111.642 238.358 361.642 488.358 611.642> 400 200<-11.6421 111.642 238.358 361.642>
CounterMasks: 1 e0
LayerCount: 2
Fore
SplineSet
150 550 m 0
 150 605 195 650 250 650 c 0
 305 650 350 605 350 550 c 0
 350 495 305 450 250 450 c 0
 195 450 150 495 150 550 c 0
150 300 m 0
 150 355 195 400 250 400 c 0
 305 400 350 355 350 300 c 0
 350 245 305 200 250 200 c 0
 195 200 150 245 150 300 c 0
150 50 m 0
 150 105 195 150 250 150 c 0
 305 150 350 105 350 50 c 0
 350 -5 305 -50 250 -50 c 0
 195 -50 150 -5 150 50 c 0
400 300 m 0
 400 355 445 400 500 400 c 0
 555 400 600 355 600 300 c 0
 600 245 555 200 500 200 c 0
 445 200 400 245 400 300 c 0
400 50 m 0
 400 105 445 150 500 150 c 0
 555 150 600 105 600 50 c 0
 600 -5 555 -50 500 -50 c 0
 445 -50 400 -5 400 50 c 0
EndSplineSet
Validated: 1
EndChar

StartChar: uni5D
Encoding: 93 93 46
Width: 750
GlyphClass: 2
Flags: W
HStem: -50 200<188.358 311.642 438.358 561.642> 200 200<188.358 311.642 438.358 561.642> 450 200<438.358 561.642>
VStem: 150 200<-11.6421 111.642 238.358 361.642> 400 200<-11.6421 111.642 238.358 361.642 488.358 611.642>
CounterMasks: 1 e0
LayerCount: 2
Fore
SplineSet
150 300 m 0
 150 355 195 400 250 400 c 0
 305 400 350 355 350 300 c 0
 350 245 305 200 250 200 c 0
 195 200 150 245 150 300 c 0
150 50 m 0
 150 105 195 150 250 150 c 0
 305 150 350 105 350 50 c 0
 350 -5 305 -50 250 -50 c 0
 195 -50 150 -5 150 50 c 0
400 550 m 0
 400 605 445 650 500 650 c 0
 555 650 600 605 600 550 c 0
 600 495 555 450 500 450 c 0
 445 450 400 495 400 550 c 0
400 300 m 0
 400 355 445 400 500 400 c 0
 555 400 600 355 600 300 c 0
 600 245 555 200 500 200 c 0
 445 200 400 245 400 300 c 0
400 50 m 0
 400 105 445 150 500 150 c 0
 555 150 600 105 600 50 c 0
 600 -5 555 -50 500 -50 c 0
 445 -50 400 -5 400 50 c 0
EndSplineSet
Validated: 1
EndChar

StartChar: uni61
Encoding: 97 97 47
Width: 750
GlyphClass: 2
Flags: W
LayerCount: 2
Fore
SplineSet
150 550 m 0
 150 605 195 650 250 650 c 0
 305 650 350 605 350 550 c 0
 350 495 305 450 250 450 c 0
 195 450 150 495 150 550 c 0
460 50 m 1024
EndSplineSet
Validated: 1
EndChar

StartChar: uni62
Encoding: 98 98 48
Width: 750
GlyphClass: 2
Flags: W
LayerCount: 2
Fore
SplineSet
150 550 m 0
 150 605 195 650 250 650 c 0
 305 650 350 605 350 550 c 0
 350 495 305 450 250 450 c 0
 195 450 150 495 150 550 c 0
150 300 m 0
 150 355 195 400 250 400 c 0
 305 400 350 355 350 300 c 0
 350 245 305 200 250 200 c 0
 195 200 150 245 150 300 c 0
460 50 m 1024
EndSplineSet
Validated: 1
EndChar

StartChar: uni63
Encoding: 99 99 49
Width: 750
GlyphClass: 2
Flags: W
LayerCount: 2
Fore
SplineSet
150 550 m 0
 150 605 195 650 250 650 c 0
 305 650 350 605 350 550 c 0
 350 495 305 450 250 450 c 0
 195 450 150 495 150 550 c 0
400 550 m 0
 400 605 445 650 500 650 c 0
 555 650 600 605 600 550 c 0
 600 495 555 450 500 450 c 0
 445 450 400 495 400 550 c 0
460 50 m 1024
EndSplineSet
Validated: 1
EndChar

StartChar: uni64
Encoding: 100 100 50
Width: 750
GlyphClass: 2
Flags: W
LayerCount: 2
Fore
SplineSet
150 550 m 0
 150 605 195 650 250 650 c 0
 305 650 350 605 350 550 c 0
 350 495 305 450 250 450 c 0
 195 450 150 495 150 550 c 0
400 550 m 0
 400 605 445 650 500 650 c 0
 555 650 600 605 600 550 c 0
 600 495 555 450 500 450 c 0
 445 450 400 495 400 550 c 0
400 300 m 0
 400 355 445 400 500 400 c 0
 555 400 600 355 600 300 c 0
 600 245 555 200 500 200 c 0
 445 200 400 245 400 300 c 0
460 50 m 1024
EndSplineSet
Validated: 1
EndChar

StartChar: uni65
Encoding: 101 101 51
Width: 750
GlyphClass: 2
Flags: W
LayerCount: 2
Fore
SplineSet
150 550 m 0
 150 605 195 650 250 650 c 0
 305 650 350 605 350 550 c 0
 350 495 305 450 250 450 c 0
 195 450 150 495 150 550 c 0
400 300 m 0
 400 355 445 400 500 400 c 0
 555 400 600 355 600 300 c 0
 600 245 555 200 500 200 c 0
 445 200 400 245 400 300 c 0
460 50 m 1024
EndSplineSet
Validated: 1
EndChar

StartChar: uni66
Encoding: 102 102 52
Width: 750
GlyphClass: 2
Flags: W
LayerCount: 2
Fore
SplineSet
150 550 m 0
 150 605 195 650 250 650 c 0
 305 650 350 605 350 550 c 0
 350 495 305 450 250 450 c 0
 195 450 150 495 150 550 c 0
150 300 m 0
 150 355 195 400 250 400 c 0
 305 400 350 355 350 300 c 0
 350 245 305 200 250 200 c 0
 195 200 150 245 150 300 c 0
400 550 m 0
 400 605 445 650 500 650 c 0
 555 650 600 605 600 550 c 0
 600 495 555 450 500 450 c 0
 445 450 400 495 400 550 c 0
460 50 m 1024
EndSplineSet
Validated: 1
EndChar

StartChar: uni67
Encoding: 103 103 53
Width: 750
GlyphClass: 2
Flags: W
LayerCount: 2
Fore
SplineSet
150 550 m 0
 150 605 195 650 250 650 c 0
 305 650 350 605 350 550 c 0
 350 495 305 450 250 450 c 0
 195 450 150 495 150 550 c 0
150 300 m 0
 150 355 195 400 250 400 c 0
 305 400 350 355 350 300 c 0
 350 245 305 200 250 200 c 0
 195 200 150 245 150 300 c 0
400 550 m 0
 400 605 445 650 500 650 c 0
 555 650 600 605 600 550 c 0
 600 495 555 450 500 450 c 0
 445 450 400 495 400 550 c 0
400 300 m 0
 400 355 445 400 500 400 c 0
 555 400 600 355 600 300 c 0
 600 245 555 200 500 200 c 0
 445 200 400 245 400 300 c 0
460 50 m 1024
EndSplineSet
Validated: 1
EndChar

StartChar: uni68
Encoding: 104 104 54
Width: 750
GlyphClass: 2
Flags: W
LayerCount: 2
Fore
SplineSet
150 550 m 0
 150 605 195 650 250 650 c 0
 305 650 350 605 350 550 c 0
 350 495 305 450 250 450 c 0
 195 450 150 495 150 550 c 0
150 300 m 0
 150 355 195 400 250 400 c 0
 305 400 350 355 350 300 c 0
 350 245 305 200 250 200 c 0
 195 200 150 245 150 300 c 0
400 300 m 0
 400 355 445 400 500 400 c 0
 555 400 600 355 600 300 c 0
 600 245 555 200 500 200 c 0
 445 200 400 245 400 300 c 0
460 50 m 1024
EndSplineSet
Validated: 1
EndChar

StartChar: uni69
Encoding: 105 105 55
Width: 750
GlyphClass: 2
Flags: W
LayerCount: 2
Fore
SplineSet
150 300 m 0
 150 355 195 400 250 400 c 0
 305 400 350 355 350 300 c 0
 350 245 305 200 250 200 c 0
 195 200 150 245 150 300 c 0
400 550 m 0
 400 605 445 650 500 650 c 0
 555 650 600 605 600 550 c 0
 600 495 555 450 500 450 c 0
 445 450 400 495 400 550 c 0
460 50 m 1024
EndSplineSet
Validated: 1
EndChar

StartChar: uni6A
Encoding: 106 106 56
Width: 750
GlyphClass: 2
Flags: W
LayerCount: 2
Fore
SplineSet
150 300 m 0
 150 355 195 400 250 400 c 0
 305 400 350 355 350 300 c 0
 350 245 305 200 250 200 c 0
 195 200 150 245 150 300 c 0
400 550 m 0
 400 605 445 650 500 650 c 0
 555 650 600 605 600 550 c 0
 600 495 555 450 500 450 c 0
 445 450 400 495 400 550 c 0
400 300 m 0
 400 355 445 400 500 400 c 0
 555 400 600 355 600 300 c 0
 600 245 555 200 500 200 c 0
 445 200 400 245 400 300 c 0
460 50 m 1024
EndSplineSet
Validated: 1
EndChar

StartChar: uni6B
Encoding: 107 107 57
Width: 750
GlyphClass: 2
Flags: W
LayerCount: 2
Fore
SplineSet
150 550 m 0
 150 605 195 650 250 650 c 0
 305 650 350 605 350 550 c 0
 350 495 305 450 250 450 c 0
 195 450 150 495 150 550 c 0
150 50 m 0
 150 105 195 150 250 150 c 0
 305 150 350 105 350 50 c 0
 350 -5 305 -50 250 -50 c 0
 195 -50 150 -5 150 50 c 0
460 50 m 1024
EndSplineSet
Validated: 1
EndChar

StartChar: uni6C
Encoding: 108 108 58
Width: 750
GlyphClass: 2
Flags: W
LayerCount: 2
Fore
SplineSet
150 550 m 0
 150 605 195 650 250 650 c 0
 305 650 350 605 350 550 c 0
 350 495 305 450 250 450 c 0
 195 450 150 495 150 550 c 0
150 300 m 0
 150 355 195 400 250 400 c 0
 305 400 350 355 350 300 c 0
 350 245 305 200 250 200 c 0
 195 200 150 245 150 300 c 0
150 50 m 0
 150 105 195 150 250 150 c 0
 305 150 350 105 350 50 c 0
 350 -5 305 -50 250 -50 c 0
 195 -50 150 -5 150 50 c 0
460 50 m 1024
EndSplineSet
Validated: 1
EndChar

StartChar: uni6D
Encoding: 109 109 59
Width: 750
GlyphClass: 2
Flags: W
LayerCount: 2
Fore
SplineSet
150 550 m 0
 150 605 195 650 250 650 c 0
 305 650 350 605 350 550 c 0
 350 495 305 450 250 450 c 0
 195 450 150 495 150 550 c 0
150 50 m 0
 150 105 195 150 250 150 c 0
 305 150 350 105 350 50 c 0
 350 -5 305 -50 250 -50 c 0
 195 -50 150 -5 150 50 c 0
400 550 m 0
 400 605 445 650 500 650 c 0
 555 650 600 605 600 550 c 0
 600 495 555 450 500 450 c 0
 445 450 400 495 400 550 c 0
460 50 m 1024
EndSplineSet
Validated: 1
EndChar

StartChar: uni6E
Encoding: 110 110 60
Width: 750
GlyphClass: 2
Flags: W
LayerCount: 2
Fore
SplineSet
150 550 m 0
 150 605 195 650 250 650 c 0
 305 650 350 605 350 550 c 0
 350 495 305 450 250 450 c 0
 195 450 150 495 150 550 c 0
150 50 m 0
 150 105 195 150 250 150 c 0
 305 150 350 105 350 50 c 0
 350 -5 305 -50 250 -50 c 0
 195 -50 150 -5 150 50 c 0
400 550 m 0
 400 605 445 650 500 650 c 0
 555 650 600 605 600 550 c 0
 600 495 555 450 500 450 c 0
 445 450 400 495 400 550 c 0
400 300 m 0
 400 355 445 400 500 400 c 0
 555 400 600 355 600 300 c 0
 600 245 555 200 500 200 c 0
 445 200 400 245 400 300 c 0
460 50 m 1024
EndSplineSet
Validated: 1
EndChar

StartChar: uni6F
Encoding: 111 111 61
Width: 750
GlyphClass: 2
Flags: W
LayerCount: 2
Fore
SplineSet
150 550 m 0
 150 605 195 650 250 650 c 0
 305 650 350 605 350 550 c 0
 350 495 305 450 250 450 c 0
 195 450 150 495 150 550 c 0
150 50 m 0
 150 105 195 150 250 150 c 0
 305 150 350 105 350 50 c 0
 350 -5 305 -50 250 -50 c 0
 195 -50 150 -5 150 50 c 0
400 300 m 0
 400 355 445 400 500 400 c 0
 555 400 600 355 600 300 c 0
 600 245 555 200 500 200 c 0
 445 200 400 245 400 300 c 0
460 50 m 1024
EndSplineSet
Validated: 1
EndChar

StartChar: uni70
Encoding: 112 112 62
Width: 750
GlyphClass: 2
Flags: W
LayerCount: 2
Fore
SplineSet
150 550 m 0
 150 605 195 650 250 650 c 0
 305 650 350 605 350 550 c 0
 350 495 305 450 250 450 c 0
 195 450 150 495 150 550 c 0
150 300 m 0
 150 355 195 400 250 400 c 0
 305 400 350 355 350 300 c 0
 350 245 305 200 250 200 c 0
 195 200 150 245 150 300 c 0
150 50 m 0
 150 105 195 150 250 150 c 0
 305 150 350 105 350 50 c 0
 350 -5 305 -50 250 -50 c 0
 195 -50 150 -5 150 50 c 0
400 550 m 0
 400 605 445 650 500 650 c 0
 555 650 600 605 600 550 c 0
 600 495 555 450 500 450 c 0
 445 450 400 495 400 550 c 0
460 50 m 1024
EndSplineSet
Validated: 1
EndChar

StartChar: uni71
Encoding: 113 113 63
Width: 750
GlyphClass: 2
Flags: W
LayerCount: 2
Fore
SplineSet
150 550 m 0
 150 605 195 650 250 650 c 0
 305 650 350 605 350 550 c 0
 350 495 305 450 250 450 c 0
 195 450 150 495 150 550 c 0
150 300 m 0
 150 355 195 400 250 400 c 0
 305 400 350 355 350 300 c 0
 350 245 305 200 250 200 c 0
 195 200 150 245 150 300 c 0
150 50 m 0
 150 105 195 150 250 150 c 0
 305 150 350 105 350 50 c 0
 350 -5 305 -50 250 -50 c 0
 195 -50 150 -5 150 50 c 0
400 550 m 0
 400 605 445 650 500 650 c 0
 555 650 600 605 600 550 c 0
 600 495 555 450 500 450 c 0
 445 450 400 495 400 550 c 0
400 300 m 0
 400 355 445 400 500 400 c 0
 555 400 600 355 600 300 c 0
 600 245 555 200 500 200 c 0
 445 200 400 245 400 300 c 0
460 50 m 1024
EndSplineSet
Validated: 1
EndChar

StartChar: uni72
Encoding: 114 114 64
Width: 750
GlyphClass: 2
Flags: W
LayerCount: 2
Fore
SplineSet
150 550 m 0
 150 605 195 650 250 650 c 0
 305 650 350 605 350 550 c 0
 350 495 305 450 250 450 c 0
 195 450 150 495 150 550 c 0
150 300 m 0
 150 355 195 400 250 400 c 0
 305 400 350 355 350 300 c 0
 350 245 305 200 250 200 c 0
 195 200 150 245 150 300 c 0
150 50 m 0
 150 105 195 150 250 150 c 0
 305 150 350 105 350 50 c 0
 350 -5 305 -50 250 -50 c 0
 195 -50 150 -5 150 50 c 0
400 300 m 0
 400 355 445 400 500 400 c 0
 555 400 600 355 600 300 c 0
 600 245 555 200 500 200 c 0
 445 200 400 245 400 300 c 0
460 50 m 1024
EndSplineSet
Validated: 1
EndChar

StartChar: uni73
Encoding: 115 115 65
Width: 750
GlyphClass: 2
Flags: W
LayerCount: 2
Fore
SplineSet
150 300 m 0
 150 355 195 400 250 400 c 0
 305 400 350 355 350 300 c 0
 350 245 305 200 250 200 c 0
 195 200 150 245 150 300 c 0
150 50 m 0
 150 105 195 150 250 150 c 0
 305 150 350 105 350 50 c 0
 350 -5 305 -50 250 -50 c 0
 195 -50 150 -5 150 50 c 0
400 550 m 0
 400 605 445 650 500 650 c 0
 555 650 600 605 600 550 c 0
 600 495 555 450 500 450 c 0
 445 450 400 495 400 550 c 0
460 50 m 1024
EndSplineSet
Validated: 1
EndChar

StartChar: uni74
Encoding: 116 116 66
Width: 750
GlyphClass: 2
Flags: W
LayerCount: 2
Fore
SplineSet
150 300 m 0
 150 355 195 400 250 400 c 0
 305 400 350 355 350 300 c 0
 350 245 305 200 250 200 c 0
 195 200 150 245 150 300 c 0
150 50 m 0
 150 105 195 150 250 150 c 0
 305 150 350 105 350 50 c 0
 350 -5 305 -50 250 -50 c 0
 195 -50 150 -5 150 50 c 0
400 550 m 0
 400 605 445 650 500 650 c 0
 555 650 600 605 600 550 c 0
 600 495 555 450 500 450 c 0
 445 450 400 495 400 550 c 0
400 300 m 0
 400 355 445 400 500 400 c 0
 555 400 600 355 600 300 c 0
 600 245 555 200 500 200 c 0
 445 200 400 245 400 300 c 0
460 50 m 1024
EndSplineSet
Validated: 1
EndChar

StartChar: uni75
Encoding: 117 117 67
Width: 750
GlyphClass: 2
Flags: W
LayerCount: 2
Fore
SplineSet
150 550 m 0
 150 605 195 650 250 650 c 0
 305 650 350 605 350 550 c 0
 350 495 305 450 250 450 c 0
 195 450 150 495 150 550 c 0
150 50 m 0
 150 105 195 150 250 150 c 0
 305 150 350 105 350 50 c 0
 350 -5 305 -50 250 -50 c 0
 195 -50 150 -5 150 50 c 0
400 50 m 0
 400 105 445 150 500 150 c 0
 555 150 600 105 600 50 c 0
 600 -5 555 -50 500 -50 c 0
 445 -50 400 -5 400 50 c 0
EndSplineSet
Validated: 1
EndChar

StartChar: uni76
Encoding: 118 118 68
Width: 750
GlyphClass: 2
Flags: W
LayerCount: 2
Fore
SplineSet
150 550 m 0
 150 605 195 650 250 650 c 0
 305 650 350 605 350 550 c 0
 350 495 305 450 250 450 c 0
 195 450 150 495 150 550 c 0
150 300 m 0
 150 355 195 400 250 400 c 0
 305 400 350 355 350 300 c 0
 350 245 305 200 250 200 c 0
 195 200 150 245 150 300 c 0
150 50 m 0
 150 105 195 150 250 150 c 0
 305 150 350 105 350 50 c 0
 350 -5 305 -50 250 -50 c 0
 195 -50 150 -5 150 50 c 0
400 50 m 0
 400 105 445 150 500 150 c 0
 555 150 600 105 600 50 c 0
 600 -5 555 -50 500 -50 c 0
 445 -50 400 -5 400 50 c 0
EndSplineSet
Validated: 1
EndChar

StartChar: uni77
Encoding: 119 119 69
Width: 750
GlyphClass: 2
Flags: W
LayerCount: 2
Fore
SplineSet
150 300 m 0
 150 355 195 400 250 400 c 0
 305 400 350 355 350 300 c 0
 350 245 305 200 250 200 c 0
 195 200 150 245 150 300 c 0
400 550 m 0
 400 605 445 650 500 650 c 0
 555 650 600 605 600 550 c 0
 600 495 555 450 500 450 c 0
 445 450 400 495 400 550 c 0
400 300 m 0
 400 355 445 400 500 400 c 0
 555 400 600 355 600 300 c 0
 600 245 555 200 500 200 c 0
 445 200 400 245 400 300 c 0
400 50 m 0
 400 105 445 150 500 150 c 0
 555 150 600 105 600 50 c 0
 600 -5 555 -50 500 -50 c 0
 445 -50 400 -5 400 50 c 0
EndSplineSet
Validated: 1
EndChar

StartChar: uni78
Encoding: 120 120 70
Width: 750
GlyphClass: 2
Flags: W
LayerCount: 2
Fore
SplineSet
150 550 m 0
 150 605 195 650 250 650 c 0
 305 650 350 605 350 550 c 0
 350 495 305 450 250 450 c 0
 195 450 150 495 150 550 c 0
150 50 m 0
 150 105 195 150 250 150 c 0
 305 150 350 105 350 50 c 0
 350 -5 305 -50 250 -50 c 0
 195 -50 150 -5 150 50 c 0
400 550 m 0
 400 605 445 650 500 650 c 0
 555 650 600 605 600 550 c 0
 600 495 555 450 500 450 c 0
 445 450 400 495 400 550 c 0
400 50 m 0
 400 105 445 150 500 150 c 0
 555 150 600 105 600 50 c 0
 600 -5 555 -50 500 -50 c 0
 445 -50 400 -5 400 50 c 0
EndSplineSet
Validated: 1
EndChar

StartChar: uni79
Encoding: 121 121 71
Width: 750
GlyphClass: 2
Flags: W
LayerCount: 2
Fore
SplineSet
150 550 m 0
 150 605 195 650 250 650 c 0
 305 650 350 605 350 550 c 0
 350 495 305 450 250 450 c 0
 195 450 150 495 150 550 c 0
150 50 m 0
 150 105 195 150 250 150 c 0
 305 150 350 105 350 50 c 0
 350 -5 305 -50 250 -50 c 0
 195 -50 150 -5 150 50 c 0
400 550 m 0
 400 605 445 650 500 650 c 0
 555 650 600 605 600 550 c 0
 600 495 555 450 500 450 c 0
 445 450 400 495 400 550 c 0
400 300 m 0
 400 355 445 400 500 400 c 0
 555 400 600 355 600 300 c 0
 600 245 555 200 500 200 c 0
 445 200 400 245 400 300 c 0
400 50 m 0
 400 105 445 150 500 150 c 0
 555 150 600 105 600 50 c 0
 600 -5 555 -50 500 -50 c 0
 445 -50 400 -5 400 50 c 0
EndSplineSet
Validated: 1
EndChar

StartChar: uni7A
Encoding: 122 122 72
Width: 750
GlyphClass: 2
Flags: W
LayerCount: 2
Fore
SplineSet
150 550 m 0
 150 605 195 650 250 650 c 0
 305 650 350 605 350 550 c 0
 350 495 305 450 250 450 c 0
 195 450 150 495 150 550 c 0
150 50 m 0
 150 105 195 150 250 150 c 0
 305 150 350 105 350 50 c 0
 350 -5 305 -50 250 -50 c 0
 195 -50 150 -5 150 50 c 0
400 300 m 0
 400 355 445 400 500 400 c 0
 555 400 600 355 600 300 c 0
 600 245 555 200 500 200 c 0
 445 200 400 245 400 300 c 0
400 50 m 0
 400 105 445 150 500 150 c 0
 555 150 600 105 600 50 c 0
 600 -5 555 -50 500 -50 c 0
 445 -50 400 -5 400 50 c 0
EndSplineSet
Validated: 1
EndChar

StartChar: uni2801
Encoding: 10241 10241 74
Width: 750
GlyphClass: 2
Flags: W
LayerCount: 2
Fore
SplineSet
150 550 m 0
 150 605 195 650 250 650 c 0
 305 650 350 605 350 550 c 0
 350 495 305 450 250 450 c 0
 195 450 150 495 150 550 c 0
460 50 m 1024
EndSplineSet
Validated: 1
EndChar

StartChar: uni2802
Encoding: 10242 10242 75
Width: 750
GlyphClass: 2
Flags: W
LayerCount: 2
Fore
SplineSet
150 300 m 0
 150 355 195 400 250 400 c 0
 305 400 350 355 350 300 c 0
 350 245 305 200 250 200 c 0
 195 200 150 245 150 300 c 0
460 50 m 1024
EndSplineSet
Validated: 1
EndChar

StartChar: uni2803
Encoding: 10243 10243 76
Width: 750
GlyphClass: 2
Flags: W
LayerCount: 2
Fore
SplineSet
150 550 m 0
 150 605 195 650 250 650 c 0
 305 650 350 605 350 550 c 0
 350 495 305 450 250 450 c 0
 195 450 150 495 150 550 c 0
150 300 m 0
 150 355 195 400 250 400 c 0
 305 400 350 355 350 300 c 0
 350 245 305 200 250 200 c 0
 195 200 150 245 150 300 c 0
460 50 m 1024
EndSplineSet
Validated: 1
EndChar

StartChar: uni2804
Encoding: 10244 10244 77
Width: 750
GlyphClass: 2
Flags: W
LayerCount: 2
Fore
SplineSet
150 50 m 0
 150 105 195 150 250 150 c 0
 305 150 350 105 350 50 c 0
 350 -5 305 -50 250 -50 c 0
 195 -50 150 -5 150 50 c 0
460 50 m 1024
EndSplineSet
Validated: 1
EndChar

StartChar: uni2805
Encoding: 10245 10245 78
Width: 750
GlyphClass: 2
Flags: W
LayerCount: 2
Fore
SplineSet
150 550 m 0
 150 605 195 650 250 650 c 0
 305 650 350 605 350 550 c 0
 350 495 305 450 250 450 c 0
 195 450 150 495 150 550 c 0
150 50 m 0
 150 105 195 150 250 150 c 0
 305 150 350 105 350 50 c 0
 350 -5 305 -50 250 -50 c 0
 195 -50 150 -5 150 50 c 0
460 50 m 1024
EndSplineSet
Validated: 1
EndChar

StartChar: uni2806
Encoding: 10246 10246 79
Width: 750
GlyphClass: 2
Flags: W
LayerCount: 2
Fore
SplineSet
150 300 m 0
 150 355 195 400 250 400 c 0
 305 400 350 355 350 300 c 0
 350 245 305 200 250 200 c 0
 195 200 150 245 150 300 c 0
150 50 m 0
 150 105 195 150 250 150 c 0
 305 150 350 105 350 50 c 0
 350 -5 305 -50 250 -50 c 0
 195 -50 150 -5 150 50 c 0
460 50 m 1024
EndSplineSet
Validated: 1
EndChar

StartChar: uni2807
Encoding: 10247 10247 80
Width: 750
GlyphClass: 2
Flags: W
LayerCount: 2
Fore
SplineSet
150 550 m 0
 150 605 195 650 250 650 c 0
 305 650 350 605 350 550 c 0
 350 495 305 450 250 450 c 0
 195 450 150 495 150 550 c 0
150 300 m 0
 150 355 195 400 250 400 c 0
 305 400 350 355 350 300 c 0
 350 245 305 200 250 200 c 0
 195 200 150 245 150 300 c 0
150 50 m 0
 150 105 195 150 250 150 c 0
 305 150 350 105 350 50 c 0
 350 -5 305 -50 250 -50 c 0
 195 -50 150 -5 150 50 c 0
460 50 m 1024
EndSplineSet
Validated: 1
EndChar

StartChar: uni2808
Encoding: 10248 10248 81
Width: 750
GlyphClass: 2
Flags: W
LayerCount: 2
Fore
SplineSet
400 550 m 0
 400 605 445 650 500 650 c 0
 555 650 600 605 600 550 c 0
 600 495 555 450 500 450 c 0
 445 450 400 495 400 550 c 0
460 50 m 1024
EndSplineSet
Validated: 1
EndChar

StartChar: uni2809
Encoding: 10249 10249 82
Width: 750
GlyphClass: 2
Flags: W
LayerCount: 2
Fore
SplineSet
150 550 m 0
 150 605 195 650 250 650 c 0
 305 650 350 605 350 550 c 0
 350 495 305 450 250 450 c 0
 195 450 150 495 150 550 c 0
400 550 m 0
 400 605 445 650 500 650 c 0
 555 650 600 605 600 550 c 0
 600 495 555 450 500 450 c 0
 445 450 400 495 400 550 c 0
460 50 m 1024
EndSplineSet
Validated: 1
EndChar

StartChar: uni280A
Encoding: 10250 10250 83
Width: 750
GlyphClass: 2
Flags: W
LayerCount: 2
Fore
SplineSet
150 300 m 0
 150 355 195 400 250 400 c 0
 305 400 350 355 350 300 c 0
 350 245 305 200 250 200 c 0
 195 200 150 245 150 300 c 0
400 550 m 0
 400 605 445 650 500 650 c 0
 555 650 600 605 600 550 c 0
 600 495 555 450 500 450 c 0
 445 450 400 495 400 550 c 0
460 50 m 1024
EndSplineSet
Validated: 1
EndChar

StartChar: uni280B
Encoding: 10251 10251 84
Width: 750
GlyphClass: 2
Flags: W
LayerCount: 2
Fore
SplineSet
150 550 m 0
 150 605 195 650 250 650 c 0
 305 650 350 605 350 550 c 0
 350 495 305 450 250 450 c 0
 195 450 150 495 150 550 c 0
150 300 m 0
 150 355 195 400 250 400 c 0
 305 400 350 355 350 300 c 0
 350 245 305 200 250 200 c 0
 195 200 150 245 150 300 c 0
400 550 m 0
 400 605 445 650 500 650 c 0
 555 650 600 605 600 550 c 0
 600 495 555 450 500 450 c 0
 445 450 400 495 400 550 c 0
460 50 m 1024
EndSplineSet
Validated: 1
EndChar

StartChar: uni280C
Encoding: 10252 10252 85
Width: 750
GlyphClass: 2
Flags: W
LayerCount: 2
Fore
SplineSet
150 50 m 0
 150 105 195 150 250 150 c 0
 305 150 350 105 350 50 c 0
 350 -5 305 -50 250 -50 c 0
 195 -50 150 -5 150 50 c 0
400 550 m 0
 400 605 445 650 500 650 c 0
 555 650 600 605 600 550 c 0
 600 495 555 450 500 450 c 0
 445 450 400 495 400 550 c 0
460 50 m 1024
EndSplineSet
Validated: 1
EndChar

StartChar: uni280D
Encoding: 10253 10253 86
Width: 750
GlyphClass: 2
Flags: W
LayerCount: 2
Fore
SplineSet
150 550 m 0
 150 605 195 650 250 650 c 0
 305 650 350 605 350 550 c 0
 350 495 305 450 250 450 c 0
 195 450 150 495 150 550 c 0
150 50 m 0
 150 105 195 150 250 150 c 0
 305 150 350 105 350 50 c 0
 350 -5 305 -50 250 -50 c 0
 195 -50 150 -5 150 50 c 0
400 550 m 0
 400 605 445 650 500 650 c 0
 555 650 600 605 600 550 c 0
 600 495 555 450 500 450 c 0
 445 450 400 495 400 550 c 0
460 50 m 1024
EndSplineSet
Validated: 1
EndChar

StartChar: uni280E
Encoding: 10254 10254 87
Width: 750
GlyphClass: 2
Flags: W
LayerCount: 2
Fore
SplineSet
150 300 m 0
 150 355 195 400 250 400 c 0
 305 400 350 355 350 300 c 0
 350 245 305 200 250 200 c 0
 195 200 150 245 150 300 c 0
150 50 m 0
 150 105 195 150 250 150 c 0
 305 150 350 105 350 50 c 0
 350 -5 305 -50 250 -50 c 0
 195 -50 150 -5 150 50 c 0
400 550 m 0
 400 605 445 650 500 650 c 0
 555 650 600 605 600 550 c 0
 600 495 555 450 500 450 c 0
 445 450 400 495 400 550 c 0
460 50 m 1024
EndSplineSet
Validated: 1
EndChar

StartChar: uni280F
Encoding: 10255 10255 88
Width: 750
GlyphClass: 2
Flags: W
LayerCount: 2
Fore
SplineSet
150 550 m 0
 150 605 195 650 250 650 c 0
 305 650 350 605 350 550 c 0
 350 495 305 450 250 450 c 0
 195 450 150 495 150 550 c 0
150 300 m 0
 150 355 195 400 250 400 c 0
 305 400 350 355 350 300 c 0
 350 245 305 200 250 200 c 0
 195 200 150 245 150 300 c 0
150 50 m 0
 150 105 195 150 250 150 c 0
 305 150 350 105 350 50 c 0
 350 -5 305 -50 250 -50 c 0
 195 -50 150 -5 150 50 c 0
400 550 m 0
 400 605 445 650 500 650 c 0
 555 650 600 605 600 550 c 0
 600 495 555 450 500 450 c 0
 445 450 400 495 400 550 c 0
460 50 m 1024
EndSplineSet
Validated: 1
EndChar

StartChar: uni2810
Encoding: 10256 10256 89
Width: 750
GlyphClass: 2
Flags: W
LayerCount: 2
Fore
SplineSet
400 300 m 0
 400 355 445 400 500 400 c 0
 555 400 600 355 600 300 c 0
 600 245 555 200 500 200 c 0
 445 200 400 245 400 300 c 0
460 50 m 1024
EndSplineSet
Validated: 1
EndChar

StartChar: uni2811
Encoding: 10257 10257 90
Width: 750
GlyphClass: 2
Flags: W
LayerCount: 2
Fore
SplineSet
150 550 m 0
 150 605 195 650 250 650 c 0
 305 650 350 605 350 550 c 0
 350 495 305 450 250 450 c 0
 195 450 150 495 150 550 c 0
400 300 m 0
 400 355 445 400 500 400 c 0
 555 400 600 355 600 300 c 0
 600 245 555 200 500 200 c 0
 445 200 400 245 400 300 c 0
460 50 m 1024
EndSplineSet
Validated: 1
EndChar

StartChar: uni2812
Encoding: 10258 10258 91
Width: 750
GlyphClass: 2
Flags: W
LayerCount: 2
Fore
SplineSet
150 300 m 0
 150 355 195 400 250 400 c 0
 305 400 350 355 350 300 c 0
 350 245 305 200 250 200 c 0
 195 200 150 245 150 300 c 0
400 300 m 0
 400 355 445 400 500 400 c 0
 555 400 600 355 600 300 c 0
 600 245 555 200 500 200 c 0
 445 200 400 245 400 300 c 0
460 50 m 1024
EndSplineSet
Validated: 1
EndChar

StartChar: uni2813
Encoding: 10259 10259 92
Width: 750
GlyphClass: 2
Flags: W
LayerCount: 2
Fore
SplineSet
150 550 m 0
 150 605 195 650 250 650 c 0
 305 650 350 605 350 550 c 0
 350 495 305 450 250 450 c 0
 195 450 150 495 150 550 c 0
150 300 m 0
 150 355 195 400 250 400 c 0
 305 400 350 355 350 300 c 0
 350 245 305 200 250 200 c 0
 195 200 150 245 150 300 c 0
400 300 m 0
 400 355 445 400 500 400 c 0
 555 400 600 355 600 300 c 0
 600 245 555 200 500 200 c 0
 445 200 400 245 400 300 c 0
460 50 m 1024
EndSplineSet
Validated: 1
EndChar

StartChar: uni2814
Encoding: 10260 10260 93
Width: 750
GlyphClass: 2
Flags: W
LayerCount: 2
Fore
SplineSet
150 50 m 0
 150 105 195 150 250 150 c 0
 305 150 350 105 350 50 c 0
 350 -5 305 -50 250 -50 c 0
 195 -50 150 -5 150 50 c 0
400 300 m 0
 400 355 445 400 500 400 c 0
 555 400 600 355 600 300 c 0
 600 245 555 200 500 200 c 0
 445 200 400 245 400 300 c 0
460 50 m 1024
EndSplineSet
Validated: 1
EndChar

StartChar: uni2815
Encoding: 10261 10261 94
Width: 750
GlyphClass: 2
Flags: W
LayerCount: 2
Fore
SplineSet
150 550 m 0
 150 605 195 650 250 650 c 0
 305 650 350 605 350 550 c 0
 350 495 305 450 250 450 c 0
 195 450 150 495 150 550 c 0
150 50 m 0
 150 105 195 150 250 150 c 0
 305 150 350 105 350 50 c 0
 350 -5 305 -50 250 -50 c 0
 195 -50 150 -5 150 50 c 0
400 300 m 0
 400 355 445 400 500 400 c 0
 555 400 600 355 600 300 c 0
 600 245 555 200 500 200 c 0
 445 200 400 245 400 300 c 0
460 50 m 1024
EndSplineSet
Validated: 1
EndChar

StartChar: uni2816
Encoding: 10262 10262 95
Width: 750
GlyphClass: 2
Flags: W
LayerCount: 2
Fore
SplineSet
150 300 m 0
 150 355 195 400 250 400 c 0
 305 400 350 355 350 300 c 0
 350 245 305 200 250 200 c 0
 195 200 150 245 150 300 c 0
150 50 m 0
 150 105 195 150 250 150 c 0
 305 150 350 105 350 50 c 0
 350 -5 305 -50 250 -50 c 0
 195 -50 150 -5 150 50 c 0
400 300 m 0
 400 355 445 400 500 400 c 0
 555 400 600 355 600 300 c 0
 600 245 555 200 500 200 c 0
 445 200 400 245 400 300 c 0
460 50 m 1024
EndSplineSet
Validated: 1
EndChar

StartChar: uni2817
Encoding: 10263 10263 96
Width: 750
GlyphClass: 2
Flags: W
LayerCount: 2
Fore
SplineSet
150 550 m 0
 150 605 195 650 250 650 c 0
 305 650 350 605 350 550 c 0
 350 495 305 450 250 450 c 0
 195 450 150 495 150 550 c 0
150 300 m 0
 150 355 195 400 250 400 c 0
 305 400 350 355 350 300 c 0
 350 245 305 200 250 200 c 0
 195 200 150 245 150 300 c 0
150 50 m 0
 150 105 195 150 250 150 c 0
 305 150 350 105 350 50 c 0
 350 -5 305 -50 250 -50 c 0
 195 -50 150 -5 150 50 c 0
400 300 m 0
 400 355 445 400 500 400 c 0
 555 400 600 355 600 300 c 0
 600 245 555 200 500 200 c 0
 445 200 400 245 400 300 c 0
460 50 m 1024
EndSplineSet
Validated: 1
EndChar

StartChar: uni2818
Encoding: 10264 10264 97
Width: 750
GlyphClass: 2
Flags: W
LayerCount: 2
Fore
SplineSet
400 550 m 0
 400 605 445 650 500 650 c 0
 555 650 600 605 600 550 c 0
 600 495 555 450 500 450 c 0
 445 450 400 495 400 550 c 0
400 300 m 0
 400 355 445 400 500 400 c 0
 555 400 600 355 600 300 c 0
 600 245 555 200 500 200 c 0
 445 200 400 245 400 300 c 0
460 50 m 1024
EndSplineSet
Validated: 1
EndChar

StartChar: uni2819
Encoding: 10265 10265 98
Width: 750
GlyphClass: 2
Flags: W
LayerCount: 2
Fore
SplineSet
150 550 m 0
 150 605 195 650 250 650 c 0
 305 650 350 605 350 550 c 0
 350 495 305 450 250 450 c 0
 195 450 150 495 150 550 c 0
400 550 m 0
 400 605 445 650 500 650 c 0
 555 650 600 605 600 550 c 0
 600 495 555 450 500 450 c 0
 445 450 400 495 400 550 c 0
400 300 m 0
 400 355 445 400 500 400 c 0
 555 400 600 355 600 300 c 0
 600 245 555 200 500 200 c 0
 445 200 400 245 400 300 c 0
460 50 m 1024
EndSplineSet
Validated: 1
EndChar

StartChar: uni281A
Encoding: 10266 10266 99
Width: 750
GlyphClass: 2
Flags: W
LayerCount: 2
Fore
SplineSet
150 300 m 0
 150 355 195 400 250 400 c 0
 305 400 350 355 350 300 c 0
 350 245 305 200 250 200 c 0
 195 200 150 245 150 300 c 0
400 550 m 0
 400 605 445 650 500 650 c 0
 555 650 600 605 600 550 c 0
 600 495 555 450 500 450 c 0
 445 450 400 495 400 550 c 0
400 300 m 0
 400 355 445 400 500 400 c 0
 555 400 600 355 600 300 c 0
 600 245 555 200 500 200 c 0
 445 200 400 245 400 300 c 0
460 50 m 1024
EndSplineSet
Validated: 1
EndChar

StartChar: uni281B
Encoding: 10267 10267 100
Width: 750
GlyphClass: 2
Flags: W
LayerCount: 2
Fore
SplineSet
150 550 m 0
 150 605 195 650 250 650 c 0
 305 650 350 605 350 550 c 0
 350 495 305 450 250 450 c 0
 195 450 150 495 150 550 c 0
150 300 m 0
 150 355 195 400 250 400 c 0
 305 400 350 355 350 300 c 0
 350 245 305 200 250 200 c 0
 195 200 150 245 150 300 c 0
400 550 m 0
 400 605 445 650 500 650 c 0
 555 650 600 605 600 550 c 0
 600 495 555 450 500 450 c 0
 445 450 400 495 400 550 c 0
400 300 m 0
 400 355 445 400 500 400 c 0
 555 400 600 355 600 300 c 0
 600 245 555 200 500 200 c 0
 445 200 400 245 400 300 c 0
460 50 m 1024
EndSplineSet
Validated: 1
EndChar

StartChar: uni281C
Encoding: 10268 10268 101
Width: 750
GlyphClass: 2
Flags: W
LayerCount: 2
Fore
SplineSet
150 50 m 0
 150 105 195 150 250 150 c 0
 305 150 350 105 350 50 c 0
 350 -5 305 -50 250 -50 c 0
 195 -50 150 -5 150 50 c 0
400 550 m 0
 400 605 445 650 500 650 c 0
 555 650 600 605 600 550 c 0
 600 495 555 450 500 450 c 0
 445 450 400 495 400 550 c 0
400 300 m 0
 400 355 445 400 500 400 c 0
 555 400 600 355 600 300 c 0
 600 245 555 200 500 200 c 0
 445 200 400 245 400 300 c 0
460 50 m 1024
EndSplineSet
Validated: 1
EndChar

StartChar: uni281D
Encoding: 10269 10269 102
Width: 750
GlyphClass: 2
Flags: W
LayerCount: 2
Fore
SplineSet
150 550 m 0
 150 605 195 650 250 650 c 0
 305 650 350 605 350 550 c 0
 350 495 305 450 250 450 c 0
 195 450 150 495 150 550 c 0
150 50 m 0
 150 105 195 150 250 150 c 0
 305 150 350 105 350 50 c 0
 350 -5 305 -50 250 -50 c 0
 195 -50 150 -5 150 50 c 0
400 550 m 0
 400 605 445 650 500 650 c 0
 555 650 600 605 600 550 c 0
 600 495 555 450 500 450 c 0
 445 450 400 495 400 550 c 0
400 300 m 0
 400 355 445 400 500 400 c 0
 555 400 600 355 600 300 c 0
 600 245 555 200 500 200 c 0
 445 200 400 245 400 300 c 0
460 50 m 1024
EndSplineSet
Validated: 1
EndChar

StartChar: uni281E
Encoding: 10270 10270 103
Width: 750
GlyphClass: 2
Flags: W
LayerCount: 2
Fore
SplineSet
150 300 m 0
 150 355 195 400 250 400 c 0
 305 400 350 355 350 300 c 0
 350 245 305 200 250 200 c 0
 195 200 150 245 150 300 c 0
150 50 m 0
 150 105 195 150 250 150 c 0
 305 150 350 105 350 50 c 0
 350 -5 305 -50 250 -50 c 0
 195 -50 150 -5 150 50 c 0
400 550 m 0
 400 605 445 650 500 650 c 0
 555 650 600 605 600 550 c 0
 600 495 555 450 500 450 c 0
 445 450 400 495 400 550 c 0
400 300 m 0
 400 355 445 400 500 400 c 0
 555 400 600 355 600 300 c 0
 600 245 555 200 500 200 c 0
 445 200 400 245 400 300 c 0
460 50 m 1024
EndSplineSet
Validated: 1
EndChar

StartChar: uni281F
Encoding: 10271 10271 104
Width: 750
GlyphClass: 2
Flags: W
LayerCount: 2
Fore
SplineSet
150 550 m 0
 150 605 195 650 250 650 c 0
 305 650 350 605 350 550 c 0
 350 495 305 450 250 450 c 0
 195 450 150 495 150 550 c 0
150 300 m 0
 150 355 195 400 250 400 c 0
 305 400 350 355 350 300 c 0
 350 245 305 200 250 200 c 0
 195 200 150 245 150 300 c 0
150 50 m 0
 150 105 195 150 250 150 c 0
 305 150 350 105 350 50 c 0
 350 -5 305 -50 250 -50 c 0
 195 -50 150 -5 150 50 c 0
400 550 m 0
 400 605 445 650 500 650 c 0
 555 650 600 605 600 550 c 0
 600 495 555 450 500 450 c 0
 445 450 400 495 400 550 c 0
400 300 m 0
 400 355 445 400 500 400 c 0
 555 400 600 355 600 300 c 0
 600 245 555 200 500 200 c 0
 445 200 400 245 400 300 c 0
460 50 m 1024
EndSplineSet
Validated: 1
EndChar

StartChar: uni2820
Encoding: 10272 10272 105
Width: 750
GlyphClass: 2
Flags: W
LayerCount: 2
Fore
SplineSet
400 50 m 0
 400 105 445 150 500 150 c 0
 555 150 600 105 600 50 c 0
 600 -5 555 -50 500 -50 c 0
 445 -50 400 -5 400 50 c 0
EndSplineSet
Validated: 1
EndChar

StartChar: uni2821
Encoding: 10273 10273 106
Width: 750
GlyphClass: 2
Flags: W
LayerCount: 2
Fore
SplineSet
150 550 m 0
 150 605 195 650 250 650 c 0
 305 650 350 605 350 550 c 0
 350 495 305 450 250 450 c 0
 195 450 150 495 150 550 c 0
400 50 m 0
 400 105 445 150 500 150 c 0
 555 150 600 105 600 50 c 0
 600 -5 555 -50 500 -50 c 0
 445 -50 400 -5 400 50 c 0
EndSplineSet
Validated: 1
EndChar

StartChar: uni2822
Encoding: 10274 10274 107
Width: 750
GlyphClass: 2
Flags: W
LayerCount: 2
Fore
SplineSet
150 300 m 0
 150 355 195 400 250 400 c 0
 305 400 350 355 350 300 c 0
 350 245 305 200 250 200 c 0
 195 200 150 245 150 300 c 0
400 50 m 0
 400 105 445 150 500 150 c 0
 555 150 600 105 600 50 c 0
 600 -5 555 -50 500 -50 c 0
 445 -50 400 -5 400 50 c 0
EndSplineSet
Validated: 1
EndChar

StartChar: uni2823
Encoding: 10275 10275 108
Width: 750
GlyphClass: 2
Flags: W
LayerCount: 2
Fore
SplineSet
150 550 m 0
 150 605 195 650 250 650 c 0
 305 650 350 605 350 550 c 0
 350 495 305 450 250 450 c 0
 195 450 150 495 150 550 c 0
150 300 m 0
 150 355 195 400 250 400 c 0
 305 400 350 355 350 300 c 0
 350 245 305 200 250 200 c 0
 195 200 150 245 150 300 c 0
400 50 m 0
 400 105 445 150 500 150 c 0
 555 150 600 105 600 50 c 0
 600 -5 555 -50 500 -50 c 0
 445 -50 400 -5 400 50 c 0
EndSplineSet
Validated: 1
EndChar

StartChar: uni2824
Encoding: 10276 10276 109
Width: 750
GlyphClass: 2
Flags: W
LayerCount: 2
Fore
SplineSet
150 50 m 0
 150 105 195 150 250 150 c 0
 305 150 350 105 350 50 c 0
 350 -5 305 -50 250 -50 c 0
 195 -50 150 -5 150 50 c 0
400 50 m 0
 400 105 445 150 500 150 c 0
 555 150 600 105 600 50 c 0
 600 -5 555 -50 500 -50 c 0
 445 -50 400 -5 400 50 c 0
EndSplineSet
Validated: 1
EndChar

StartChar: uni2825
Encoding: 10277 10277 110
Width: 750
GlyphClass: 2
Flags: W
LayerCount: 2
Fore
SplineSet
150 550 m 0
 150 605 195 650 250 650 c 0
 305 650 350 605 350 550 c 0
 350 495 305 450 250 450 c 0
 195 450 150 495 150 550 c 0
150 50 m 0
 150 105 195 150 250 150 c 0
 305 150 350 105 350 50 c 0
 350 -5 305 -50 250 -50 c 0
 195 -50 150 -5 150 50 c 0
400 50 m 0
 400 105 445 150 500 150 c 0
 555 150 600 105 600 50 c 0
 600 -5 555 -50 500 -50 c 0
 445 -50 400 -5 400 50 c 0
EndSplineSet
Validated: 1
EndChar

StartChar: uni2826
Encoding: 10278 10278 111
Width: 750
GlyphClass: 2
Flags: W
LayerCount: 2
Fore
SplineSet
150 300 m 0
 150 355 195 400 250 400 c 0
 305 400 350 355 350 300 c 0
 350 245 305 200 250 200 c 0
 195 200 150 245 150 300 c 0
150 50 m 0
 150 105 195 150 250 150 c 0
 305 150 350 105 350 50 c 0
 350 -5 305 -50 250 -50 c 0
 195 -50 150 -5 150 50 c 0
400 50 m 0
 400 105 445 150 500 150 c 0
 555 150 600 105 600 50 c 0
 600 -5 555 -50 500 -50 c 0
 445 -50 400 -5 400 50 c 0
EndSplineSet
Validated: 1
EndChar

StartChar: uni2827
Encoding: 10279 10279 112
Width: 750
GlyphClass: 2
Flags: W
LayerCount: 2
Fore
SplineSet
150 550 m 0
 150 605 195 650 250 650 c 0
 305 650 350 605 350 550 c 0
 350 495 305 450 250 450 c 0
 195 450 150 495 150 550 c 0
150 300 m 0
 150 355 195 400 250 400 c 0
 305 400 350 355 350 300 c 0
 350 245 305 200 250 200 c 0
 195 200 150 245 150 300 c 0
150 50 m 0
 150 105 195 150 250 150 c 0
 305 150 350 105 350 50 c 0
 350 -5 305 -50 250 -50 c 0
 195 -50 150 -5 150 50 c 0
400 50 m 0
 400 105 445 150 500 150 c 0
 555 150 600 105 600 50 c 0
 600 -5 555 -50 500 -50 c 0
 445 -50 400 -5 400 50 c 0
EndSplineSet
Validated: 1
EndChar

StartChar: uni2828
Encoding: 10280 10280 113
Width: 750
GlyphClass: 2
Flags: W
LayerCount: 2
Fore
SplineSet
400 550 m 0
 400 605 445 650 500 650 c 0
 555 650 600 605 600 550 c 0
 600 495 555 450 500 450 c 0
 445 450 400 495 400 550 c 0
400 50 m 0
 400 105 445 150 500 150 c 0
 555 150 600 105 600 50 c 0
 600 -5 555 -50 500 -50 c 0
 445 -50 400 -5 400 50 c 0
EndSplineSet
Validated: 1
EndChar

StartChar: uni2829
Encoding: 10281 10281 114
Width: 750
GlyphClass: 2
Flags: W
LayerCount: 2
Fore
SplineSet
150 550 m 0
 150 605 195 650 250 650 c 0
 305 650 350 605 350 550 c 0
 350 495 305 450 250 450 c 0
 195 450 150 495 150 550 c 0
400 550 m 0
 400 605 445 650 500 650 c 0
 555 650 600 605 600 550 c 0
 600 495 555 450 500 450 c 0
 445 450 400 495 400 550 c 0
400 50 m 0
 400 105 445 150 500 150 c 0
 555 150 600 105 600 50 c 0
 600 -5 555 -50 500 -50 c 0
 445 -50 400 -5 400 50 c 0
EndSplineSet
Validated: 1
EndChar

StartChar: uni282A
Encoding: 10282 10282 115
Width: 750
GlyphClass: 2
Flags: W
LayerCount: 2
Fore
SplineSet
150 300 m 0
 150 355 195 400 250 400 c 0
 305 400 350 355 350 300 c 0
 350 245 305 200 250 200 c 0
 195 200 150 245 150 300 c 0
400 550 m 0
 400 605 445 650 500 650 c 0
 555 650 600 605 600 550 c 0
 600 495 555 450 500 450 c 0
 445 450 400 495 400 550 c 0
400 50 m 0
 400 105 445 150 500 150 c 0
 555 150 600 105 600 50 c 0
 600 -5 555 -50 500 -50 c 0
 445 -50 400 -5 400 50 c 0
EndSplineSet
Validated: 1
EndChar

StartChar: uni282B
Encoding: 10283 10283 116
Width: 750
GlyphClass: 2
Flags: W
LayerCount: 2
Fore
SplineSet
150 550 m 0
 150 605 195 650 250 650 c 0
 305 650 350 605 350 550 c 0
 350 495 305 450 250 450 c 0
 195 450 150 495 150 550 c 0
150 300 m 0
 150 355 195 400 250 400 c 0
 305 400 350 355 350 300 c 0
 350 245 305 200 250 200 c 0
 195 200 150 245 150 300 c 0
400 550 m 0
 400 605 445 650 500 650 c 0
 555 650 600 605 600 550 c 0
 600 495 555 450 500 450 c 0
 445 450 400 495 400 550 c 0
400 50 m 0
 400 105 445 150 500 150 c 0
 555 150 600 105 600 50 c 0
 600 -5 555 -50 500 -50 c 0
 445 -50 400 -5 400 50 c 0
EndSplineSet
Validated: 1
EndChar

StartChar: uni282C
Encoding: 10284 10284 117
Width: 750
GlyphClass: 2
Flags: W
LayerCount: 2
Fore
SplineSet
150 50 m 0
 150 105 195 150 250 150 c 0
 305 150 350 105 350 50 c 0
 350 -5 305 -50 250 -50 c 0
 195 -50 150 -5 150 50 c 0
400 550 m 0
 400 605 445 650 500 650 c 0
 555 650 600 605 600 550 c 0
 600 495 555 450 500 450 c 0
 445 450 400 495 400 550 c 0
400 50 m 0
 400 105 445 150 500 150 c 0
 555 150 600 105 600 50 c 0
 600 -5 555 -50 500 -50 c 0
 445 -50 400 -5 400 50 c 0
EndSplineSet
Validated: 1
EndChar

StartChar: uni282D
Encoding: 10285 10285 118
Width: 750
GlyphClass: 2
Flags: W
LayerCount: 2
Fore
SplineSet
150 550 m 0
 150 605 195 650 250 650 c 0
 305 650 350 605 350 550 c 0
 350 495 305 450 250 450 c 0
 195 450 150 495 150 550 c 0
150 50 m 0
 150 105 195 150 250 150 c 0
 305 150 350 105 350 50 c 0
 350 -5 305 -50 250 -50 c 0
 195 -50 150 -5 150 50 c 0
400 550 m 0
 400 605 445 650 500 650 c 0
 555 650 600 605 600 550 c 0
 600 495 555 450 500 450 c 0
 445 450 400 495 400 550 c 0
400 50 m 0
 400 105 445 150 500 150 c 0
 555 150 600 105 600 50 c 0
 600 -5 555 -50 500 -50 c 0
 445 -50 400 -5 400 50 c 0
EndSplineSet
Validated: 1
EndChar

StartChar: uni282E
Encoding: 10286 10286 119
Width: 750
GlyphClass: 2
Flags: W
LayerCount: 2
Fore
SplineSet
150 300 m 0
 150 355 195 400 250 400 c 0
 305 400 350 355 350 300 c 0
 350 245 305 200 250 200 c 0
 195 200 150 245 150 300 c 0
150 50 m 0
 150 105 195 150 250 150 c 0
 305 150 350 105 350 50 c 0
 350 -5 305 -50 250 -50 c 0
 195 -50 150 -5 150 50 c 0
400 550 m 0
 400 605 445 650 500 650 c 0
 555 650 600 605 600 550 c 0
 600 495 555 450 500 450 c 0
 445 450 400 495 400 550 c 0
400 50 m 0
 400 105 445 150 500 150 c 0
 555 150 600 105 600 50 c 0
 600 -5 555 -50 500 -50 c 0
 445 -50 400 -5 400 50 c 0
EndSplineSet
Validated: 1
EndChar

StartChar: uni282F
Encoding: 10287 10287 120
Width: 750
GlyphClass: 2
Flags: W
LayerCount: 2
Fore
SplineSet
150 550 m 0
 150 605 195 650 250 650 c 0
 305 650 350 605 350 550 c 0
 350 495 305 450 250 450 c 0
 195 450 150 495 150 550 c 0
150 300 m 0
 150 355 195 400 250 400 c 0
 305 400 350 355 350 300 c 0
 350 245 305 200 250 200 c 0
 195 200 150 245 150 300 c 0
150 50 m 0
 150 105 195 150 250 150 c 0
 305 150 350 105 350 50 c 0
 350 -5 305 -50 250 -50 c 0
 195 -50 150 -5 150 50 c 0
400 550 m 0
 400 605 445 650 500 650 c 0
 555 650 600 605 600 550 c 0
 600 495 555 450 500 450 c 0
 445 450 400 495 400 550 c 0
400 50 m 0
 400 105 445 150 500 150 c 0
 555 150 600 105 600 50 c 0
 600 -5 555 -50 500 -50 c 0
 445 -50 400 -5 400 50 c 0
EndSplineSet
Validated: 1
EndChar

StartChar: uni2830
Encoding: 10288 10288 121
Width: 750
GlyphClass: 2
Flags: W
LayerCount: 2
Fore
SplineSet
400 300 m 0
 400 355 445 400 500 400 c 0
 555 400 600 355 600 300 c 0
 600 245 555 200 500 200 c 0
 445 200 400 245 400 300 c 0
400 50 m 0
 400 105 445 150 500 150 c 0
 555 150 600 105 600 50 c 0
 600 -5 555 -50 500 -50 c 0
 445 -50 400 -5 400 50 c 0
EndSplineSet
Validated: 1
EndChar

StartChar: uni2831
Encoding: 10289 10289 122
Width: 750
GlyphClass: 2
Flags: W
LayerCount: 2
Fore
SplineSet
150 550 m 0
 150 605 195 650 250 650 c 0
 305 650 350 605 350 550 c 0
 350 495 305 450 250 450 c 0
 195 450 150 495 150 550 c 0
400 300 m 0
 400 355 445 400 500 400 c 0
 555 400 600 355 600 300 c 0
 600 245 555 200 500 200 c 0
 445 200 400 245 400 300 c 0
400 50 m 0
 400 105 445 150 500 150 c 0
 555 150 600 105 600 50 c 0
 600 -5 555 -50 500 -50 c 0
 445 -50 400 -5 400 50 c 0
EndSplineSet
Validated: 1
EndChar

StartChar: uni2832
Encoding: 10290 10290 123
Width: 750
GlyphClass: 2
Flags: W
LayerCount: 2
Fore
SplineSet
150 300 m 0
 150 355 195 400 250 400 c 0
 305 400 350 355 350 300 c 0
 350 245 305 200 250 200 c 0
 195 200 150 245 150 300 c 0
400 300 m 0
 400 355 445 400 500 400 c 0
 555 400 600 355 600 300 c 0
 600 245 555 200 500 200 c 0
 445 200 400 245 400 300 c 0
400 50 m 0
 400 105 445 150 500 150 c 0
 555 150 600 105 600 50 c 0
 600 -5 555 -50 500 -50 c 0
 445 -50 400 -5 400 50 c 0
EndSplineSet
Validated: 1
EndChar

StartChar: uni2833
Encoding: 10291 10291 124
Width: 750
GlyphClass: 2
Flags: W
LayerCount: 2
Fore
SplineSet
150 550 m 0
 150 605 195 650 250 650 c 0
 305 650 350 605 350 550 c 0
 350 495 305 450 250 450 c 0
 195 450 150 495 150 550 c 0
150 300 m 0
 150 355 195 400 250 400 c 0
 305 400 350 355 350 300 c 0
 350 245 305 200 250 200 c 0
 195 200 150 245 150 300 c 0
400 300 m 0
 400 355 445 400 500 400 c 0
 555 400 600 355 600 300 c 0
 600 245 555 200 500 200 c 0
 445 200 400 245 400 300 c 0
400 50 m 0
 400 105 445 150 500 150 c 0
 555 150 600 105 600 50 c 0
 600 -5 555 -50 500 -50 c 0
 445 -50 400 -5 400 50 c 0
EndSplineSet
Validated: 1
EndChar

StartChar: uni2834
Encoding: 10292 10292 125
Width: 750
GlyphClass: 2
Flags: W
LayerCount: 2
Fore
SplineSet
150 50 m 0
 150 105 195 150 250 150 c 0
 305 150 350 105 350 50 c 0
 350 -5 305 -50 250 -50 c 0
 195 -50 150 -5 150 50 c 0
400 300 m 0
 400 355 445 400 500 400 c 0
 555 400 600 355 600 300 c 0
 600 245 555 200 500 200 c 0
 445 200 400 245 400 300 c 0
400 50 m 0
 400 105 445 150 500 150 c 0
 555 150 600 105 600 50 c 0
 600 -5 555 -50 500 -50 c 0
 445 -50 400 -5 400 50 c 0
EndSplineSet
Validated: 1
EndChar

StartChar: uni2835
Encoding: 10293 10293 126
Width: 750
GlyphClass: 2
Flags: W
LayerCount: 2
Fore
SplineSet
150 550 m 0
 150 605 195 650 250 650 c 0
 305 650 350 605 350 550 c 0
 350 495 305 450 250 450 c 0
 195 450 150 495 150 550 c 0
150 50 m 0
 150 105 195 150 250 150 c 0
 305 150 350 105 350 50 c 0
 350 -5 305 -50 250 -50 c 0
 195 -50 150 -5 150 50 c 0
400 300 m 0
 400 355 445 400 500 400 c 0
 555 400 600 355 600 300 c 0
 600 245 555 200 500 200 c 0
 445 200 400 245 400 300 c 0
400 50 m 0
 400 105 445 150 500 150 c 0
 555 150 600 105 600 50 c 0
 600 -5 555 -50 500 -50 c 0
 445 -50 400 -5 400 50 c 0
EndSplineSet
Validated: 1
EndChar

StartChar: uni2836
Encoding: 10294 10294 127
Width: 750
GlyphClass: 2
Flags: W
LayerCount: 2
Fore
SplineSet
150 300 m 0
 150 355 195 400 250 400 c 0
 305 400 350 355 350 300 c 0
 350 245 305 200 250 200 c 0
 195 200 150 245 150 300 c 0
150 50 m 0
 150 105 195 150 250 150 c 0
 305 150 350 105 350 50 c 0
 350 -5 305 -50 250 -50 c 0
 195 -50 150 -5 150 50 c 0
400 300 m 0
 400 355 445 400 500 400 c 0
 555 400 600 355 600 300 c 0
 600 245 555 200 500 200 c 0
 445 200 400 245 400 300 c 0
400 50 m 0
 400 105 445 150 500 150 c 0
 555 150 600 105 600 50 c 0
 600 -5 555 -50 500 -50 c 0
 445 -50 400 -5 400 50 c 0
EndSplineSet
Validated: 1
EndChar

StartChar: uni2837
Encoding: 10295 10295 128
Width: 750
GlyphClass: 2
Flags: W
LayerCount: 2
Fore
SplineSet
150 550 m 0
 150 605 195 650 250 650 c 0
 305 650 350 605 350 550 c 0
 350 495 305 450 250 450 c 0
 195 450 150 495 150 550 c 0
150 300 m 0
 150 355 195 400 250 400 c 0
 305 400 350 355 350 300 c 0
 350 245 305 200 250 200 c 0
 195 200 150 245 150 300 c 0
150 50 m 0
 150 105 195 150 250 150 c 0
 305 150 350 105 350 50 c 0
 350 -5 305 -50 250 -50 c 0
 195 -50 150 -5 150 50 c 0
400 300 m 0
 400 355 445 400 500 400 c 0
 555 400 600 355 600 300 c 0
 600 245 555 200 500 200 c 0
 445 200 400 245 400 300 c 0
400 50 m 0
 400 105 445 150 500 150 c 0
 555 150 600 105 600 50 c 0
 600 -5 555 -50 500 -50 c 0
 445 -50 400 -5 400 50 c 0
EndSplineSet
Validated: 1
EndChar

StartChar: uni2838
Encoding: 10296 10296 129
Width: 750
GlyphClass: 2
Flags: W
LayerCount: 2
Fore
SplineSet
400 550 m 0
 400 605 445 650 500 650 c 0
 555 650 600 605 600 550 c 0
 600 495 555 450 500 450 c 0
 445 450 400 495 400 550 c 0
400 300 m 0
 400 355 445 400 500 400 c 0
 555 400 600 355 600 300 c 0
 600 245 555 200 500 200 c 0
 445 200 400 245 400 300 c 0
400 50 m 0
 400 105 445 150 500 150 c 0
 555 150 600 105 600 50 c 0
 600 -5 555 -50 500 -50 c 0
 445 -50 400 -5 400 50 c 0
EndSplineSet
Validated: 1
EndChar

StartChar: uni2839
Encoding: 10297 10297 130
Width: 750
GlyphClass: 2
Flags: W
LayerCount: 2
Fore
SplineSet
150 550 m 0
 150 605 195 650 250 650 c 0
 305 650 350 605 350 550 c 0
 350 495 305 450 250 450 c 0
 195 450 150 495 150 550 c 0
400 550 m 0
 400 605 445 650 500 650 c 0
 555 650 600 605 600 550 c 0
 600 495 555 450 500 450 c 0
 445 450 400 495 400 550 c 0
400 300 m 0
 400 355 445 400 500 400 c 0
 555 400 600 355 600 300 c 0
 600 245 555 200 500 200 c 0
 445 200 400 245 400 300 c 0
400 50 m 0
 400 105 445 150 500 150 c 0
 555 150 600 105 600 50 c 0
 600 -5 555 -50 500 -50 c 0
 445 -50 400 -5 400 50 c 0
EndSplineSet
Validated: 1
EndChar

StartChar: uni283A
Encoding: 10298 10298 131
Width: 750
GlyphClass: 2
Flags: W
LayerCount: 2
Fore
SplineSet
150 300 m 0
 150 355 195 400 250 400 c 0
 305 400 350 355 350 300 c 0
 350 245 305 200 250 200 c 0
 195 200 150 245 150 300 c 0
400 550 m 0
 400 605 445 650 500 650 c 0
 555 650 600 605 600 550 c 0
 600 495 555 450 500 450 c 0
 445 450 400 495 400 550 c 0
400 300 m 0
 400 355 445 400 500 400 c 0
 555 400 600 355 600 300 c 0
 600 245 555 200 500 200 c 0
 445 200 400 245 400 300 c 0
400 50 m 0
 400 105 445 150 500 150 c 0
 555 150 600 105 600 50 c 0
 600 -5 555 -50 500 -50 c 0
 445 -50 400 -5 400 50 c 0
EndSplineSet
Validated: 1
EndChar

StartChar: uni283B
Encoding: 10299 10299 132
Width: 750
GlyphClass: 2
Flags: W
LayerCount: 2
Fore
SplineSet
150 550 m 0
 150 605 195 650 250 650 c 0
 305 650 350 605 350 550 c 0
 350 495 305 450 250 450 c 0
 195 450 150 495 150 550 c 0
150 300 m 0
 150 355 195 400 250 400 c 0
 305 400 350 355 350 300 c 0
 350 245 305 200 250 200 c 0
 195 200 150 245 150 300 c 0
400 550 m 0
 400 605 445 650 500 650 c 0
 555 650 600 605 600 550 c 0
 600 495 555 450 500 450 c 0
 445 450 400 495 400 550 c 0
400 300 m 0
 400 355 445 400 500 400 c 0
 555 400 600 355 600 300 c 0
 600 245 555 200 500 200 c 0
 445 200 400 245 400 300 c 0
400 50 m 0
 400 105 445 150 500 150 c 0
 555 150 600 105 600 50 c 0
 600 -5 555 -50 500 -50 c 0
 445 -50 400 -5 400 50 c 0
EndSplineSet
Validated: 1
EndChar

StartChar: uni283C
Encoding: 10300 10300 133
Width: 750
GlyphClass: 2
Flags: W
LayerCount: 2
Fore
SplineSet
150 50 m 0
 150 105 195 150 250 150 c 0
 305 150 350 105 350 50 c 0
 350 -5 305 -50 250 -50 c 0
 195 -50 150 -5 150 50 c 0
400 550 m 0
 400 605 445 650 500 650 c 0
 555 650 600 605 600 550 c 0
 600 495 555 450 500 450 c 0
 445 450 400 495 400 550 c 0
400 300 m 0
 400 355 445 400 500 400 c 0
 555 400 600 355 600 300 c 0
 600 245 555 200 500 200 c 0
 445 200 400 245 400 300 c 0
400 50 m 0
 400 105 445 150 500 150 c 0
 555 150 600 105 600 50 c 0
 600 -5 555 -50 500 -50 c 0
 445 -50 400 -5 400 50 c 0
EndSplineSet
Validated: 1
EndChar

StartChar: uni283D
Encoding: 10301 10301 134
Width: 750
GlyphClass: 2
Flags: W
LayerCount: 2
Fore
SplineSet
150 550 m 0
 150 605 195 650 250 650 c 0
 305 650 350 605 350 550 c 0
 350 495 305 450 250 450 c 0
 195 450 150 495 150 550 c 0
150 50 m 0
 150 105 195 150 250 150 c 0
 305 150 350 105 350 50 c 0
 350 -5 305 -50 250 -50 c 0
 195 -50 150 -5 150 50 c 0
400 550 m 0
 400 605 445 650 500 650 c 0
 555 650 600 605 600 550 c 0
 600 495 555 450 500 450 c 0
 445 450 400 495 400 550 c 0
400 300 m 0
 400 355 445 400 500 400 c 0
 555 400 600 355 600 300 c 0
 600 245 555 200 500 200 c 0
 445 200 400 245 400 300 c 0
400 50 m 0
 400 105 445 150 500 150 c 0
 555 150 600 105 600 50 c 0
 600 -5 555 -50 500 -50 c 0
 445 -50 400 -5 400 50 c 0
EndSplineSet
Validated: 1
EndChar

StartChar: uni283E
Encoding: 10302 10302 135
Width: 750
GlyphClass: 2
Flags: W
LayerCount: 2
Fore
SplineSet
150 300 m 0
 150 355 195 400 250 400 c 0
 305 400 350 355 350 300 c 0
 350 245 305 200 250 200 c 0
 195 200 150 245 150 300 c 0
150 50 m 0
 150 105 195 150 250 150 c 0
 305 150 350 105 350 50 c 0
 350 -5 305 -50 250 -50 c 0
 195 -50 150 -5 150 50 c 0
400 550 m 0
 400 605 445 650 500 650 c 0
 555 650 600 605 600 550 c 0
 600 495 555 450 500 450 c 0
 445 450 400 495 400 550 c 0
400 300 m 0
 400 355 445 400 500 400 c 0
 555 400 600 355 600 300 c 0
 600 245 555 200 500 200 c 0
 445 200 400 245 400 300 c 0
400 50 m 0
 400 105 445 150 500 150 c 0
 555 150 600 105 600 50 c 0
 600 -5 555 -50 500 -50 c 0
 445 -50 400 -5 400 50 c 0
EndSplineSet
Validated: 1
EndChar

StartChar: uni283F
Encoding: 10303 10303 136
Width: 750
GlyphClass: 2
Flags: W
LayerCount: 2
Fore
SplineSet
150 550 m 0
 150 605 195 650 250 650 c 0
 305 650 350 605 350 550 c 0
 350 495 305 450 250 450 c 0
 195 450 150 495 150 550 c 0
150 300 m 0
 150 355 195 400 250 400 c 0
 305 400 350 355 350 300 c 0
 350 245 305 200 250 200 c 0
 195 200 150 245 150 300 c 0
150 50 m 0
 150 105 195 150 250 150 c 0
 305 150 350 105 350 50 c 0
 350 -5 305 -50 250 -50 c 0
 195 -50 150 -5 150 50 c 0
400 550 m 0
 400 605 445 650 500 650 c 0
 555 650 600 605 600 550 c 0
 600 495 555 450 500 450 c 0
 445 450 400 495 400 550 c 0
400 300 m 0
 400 355 445 400 500 400 c 0
 555 400 600 355 600 300 c 0
 600 245 555 200 500 200 c 0
 445 200 400 245 400 300 c 0
400 50 m 0
 400 105 445 150 500 150 c 0
 555 150 600 105 600 50 c 0
 600 -5 555 -50 500 -50 c 0
 445 -50 400 -5 400 50 c 0
EndSplineSet
Validated: 1
EndChar

StartChar: uni2840
Encoding: 10304 10304 137
Width: 750
GlyphClass: 2
Flags: W
LayerCount: 2
Fore
SplineSet
170 0 m 0
 170 44 206 80 250 80 c 0
 294 80 330 44 330 0 c 0
 330 -44 294 -80 250 -80 c 0
 206 -80 170 -44 170 0 c 0
468 0 m 1024
EndSplineSet
Validated: 1
EndChar

StartChar: uni2841
Encoding: 10305 10305 138
Width: 750
GlyphClass: 2
Flags: W
LayerCount: 2
Fore
SplineSet
170 600 m 0
 170 644 206 680 250 680 c 0
 294 680 330 644 330 600 c 0
 330 556 294 520 250 520 c 0
 206 520 170 556 170 600 c 0
170 0 m 0
 170 44 206 80 250 80 c 0
 294 80 330 44 330 0 c 0
 330 -44 294 -80 250 -80 c 0
 206 -80 170 -44 170 0 c 0
468 0 m 1024
EndSplineSet
Validated: 1
EndChar

StartChar: uni2842
Encoding: 10306 10306 139
Width: 750
GlyphClass: 2
Flags: W
LayerCount: 2
Fore
SplineSet
170 400 m 0
 170 444 206 480 250 480 c 0
 294 480 330 444 330 400 c 0
 330 356 294 320 250 320 c 0
 206 320 170 356 170 400 c 0
170 0 m 0
 170 44 206 80 250 80 c 0
 294 80 330 44 330 0 c 0
 330 -44 294 -80 250 -80 c 0
 206 -80 170 -44 170 0 c 0
468 0 m 1024
EndSplineSet
Validated: 1
EndChar

StartChar: uni2843
Encoding: 10307 10307 140
Width: 750
GlyphClass: 2
Flags: W
LayerCount: 2
Fore
SplineSet
170 600 m 0
 170 644 206 680 250 680 c 0
 294 680 330 644 330 600 c 0
 330 556 294 520 250 520 c 0
 206 520 170 556 170 600 c 0
170 400 m 0
 170 444 206 480 250 480 c 0
 294 480 330 444 330 400 c 0
 330 356 294 320 250 320 c 0
 206 320 170 356 170 400 c 0
170 0 m 0
 170 44 206 80 250 80 c 0
 294 80 330 44 330 0 c 0
 330 -44 294 -80 250 -80 c 0
 206 -80 170 -44 170 0 c 0
468 0 m 1024
EndSplineSet
Validated: 1
EndChar

StartChar: uni2844
Encoding: 10308 10308 141
Width: 750
GlyphClass: 2
Flags: W
LayerCount: 2
Fore
SplineSet
170 200 m 0
 170 244 206 280 250 280 c 0
 294 280 330 244 330 200 c 0
 330 156 294 120 250 120 c 0
 206 120 170 156 170 200 c 0
170 0 m 0
 170 44 206 80 250 80 c 0
 294 80 330 44 330 0 c 0
 330 -44 294 -80 250 -80 c 0
 206 -80 170 -44 170 0 c 0
468 0 m 1024
EndSplineSet
Validated: 1
EndChar

StartChar: uni2845
Encoding: 10309 10309 142
Width: 750
GlyphClass: 2
Flags: W
LayerCount: 2
Fore
SplineSet
170 600 m 0
 170 644 206 680 250 680 c 0
 294 680 330 644 330 600 c 0
 330 556 294 520 250 520 c 0
 206 520 170 556 170 600 c 0
170 200 m 0
 170 244 206 280 250 280 c 0
 294 280 330 244 330 200 c 0
 330 156 294 120 250 120 c 0
 206 120 170 156 170 200 c 0
170 0 m 0
 170 44 206 80 250 80 c 0
 294 80 330 44 330 0 c 0
 330 -44 294 -80 250 -80 c 0
 206 -80 170 -44 170 0 c 0
468 0 m 1024
EndSplineSet
Validated: 1
EndChar

StartChar: uni2846
Encoding: 10310 10310 143
Width: 750
GlyphClass: 2
Flags: W
LayerCount: 2
Fore
SplineSet
170 400 m 0
 170 444 206 480 250 480 c 0
 294 480 330 444 330 400 c 0
 330 356 294 320 250 320 c 0
 206 320 170 356 170 400 c 0
170 200 m 0
 170 244 206 280 250 280 c 0
 294 280 330 244 330 200 c 0
 330 156 294 120 250 120 c 0
 206 120 170 156 170 200 c 0
170 0 m 0
 170 44 206 80 250 80 c 0
 294 80 330 44 330 0 c 0
 330 -44 294 -80 250 -80 c 0
 206 -80 170 -44 170 0 c 0
468 0 m 1024
EndSplineSet
Validated: 1
EndChar

StartChar: uni2847
Encoding: 10311 10311 144
Width: 750
GlyphClass: 2
Flags: W
LayerCount: 2
Fore
SplineSet
170 600 m 0
 170 644 206 680 250 680 c 0
 294 680 330 644 330 600 c 0
 330 556 294 520 250 520 c 0
 206 520 170 556 170 600 c 0
170 400 m 0
 170 444 206 480 250 480 c 0
 294 480 330 444 330 400 c 0
 330 356 294 320 250 320 c 0
 206 320 170 356 170 400 c 0
170 200 m 0
 170 244 206 280 250 280 c 0
 294 280 330 244 330 200 c 0
 330 156 294 120 250 120 c 0
 206 120 170 156 170 200 c 0
170 0 m 0
 170 44 206 80 250 80 c 0
 294 80 330 44 330 0 c 0
 330 -44 294 -80 250 -80 c 0
 206 -80 170 -44 170 0 c 0
468 0 m 1024
EndSplineSet
Validated: 1
EndChar

StartChar: uni2848
Encoding: 10312 10312 145
Width: 750
GlyphClass: 2
Flags: W
LayerCount: 2
Fore
SplineSet
420 600 m 0
 420 644 456 680 500 680 c 0
 544 680 580 644 580 600 c 0
 580 556 544 520 500 520 c 0
 456 520 420 556 420 600 c 0
170 0 m 0
 170 44 206 80 250 80 c 0
 294 80 330 44 330 0 c 0
 330 -44 294 -80 250 -80 c 0
 206 -80 170 -44 170 0 c 0
468 0 m 1024
EndSplineSet
Validated: 1
EndChar

StartChar: uni2849
Encoding: 10313 10313 146
Width: 750
GlyphClass: 2
Flags: W
LayerCount: 2
Fore
SplineSet
170 600 m 0
 170 644 206 680 250 680 c 0
 294 680 330 644 330 600 c 0
 330 556 294 520 250 520 c 0
 206 520 170 556 170 600 c 0
420 600 m 0
 420 644 456 680 500 680 c 0
 544 680 580 644 580 600 c 0
 580 556 544 520 500 520 c 0
 456 520 420 556 420 600 c 0
170 0 m 0
 170 44 206 80 250 80 c 0
 294 80 330 44 330 0 c 0
 330 -44 294 -80 250 -80 c 0
 206 -80 170 -44 170 0 c 0
468 0 m 1024
EndSplineSet
Validated: 1
EndChar

StartChar: uni284A
Encoding: 10314 10314 147
Width: 750
GlyphClass: 2
Flags: W
LayerCount: 2
Fore
SplineSet
170 400 m 0
 170 444 206 480 250 480 c 0
 294 480 330 444 330 400 c 0
 330 356 294 320 250 320 c 0
 206 320 170 356 170 400 c 0
420 600 m 0
 420 644 456 680 500 680 c 0
 544 680 580 644 580 600 c 0
 580 556 544 520 500 520 c 0
 456 520 420 556 420 600 c 0
170 0 m 0
 170 44 206 80 250 80 c 0
 294 80 330 44 330 0 c 0
 330 -44 294 -80 250 -80 c 0
 206 -80 170 -44 170 0 c 0
468 0 m 1024
EndSplineSet
Validated: 1
EndChar

StartChar: uni284B
Encoding: 10315 10315 148
Width: 750
GlyphClass: 2
Flags: W
LayerCount: 2
Fore
SplineSet
170 600 m 0
 170 644 206 680 250 680 c 0
 294 680 330 644 330 600 c 0
 330 556 294 520 250 520 c 0
 206 520 170 556 170 600 c 0
170 400 m 0
 170 444 206 480 250 480 c 0
 294 480 330 444 330 400 c 0
 330 356 294 320 250 320 c 0
 206 320 170 356 170 400 c 0
420 600 m 0
 420 644 456 680 500 680 c 0
 544 680 580 644 580 600 c 0
 580 556 544 520 500 520 c 0
 456 520 420 556 420 600 c 0
170 0 m 0
 170 44 206 80 250 80 c 0
 294 80 330 44 330 0 c 0
 330 -44 294 -80 250 -80 c 0
 206 -80 170 -44 170 0 c 0
468 0 m 1024
EndSplineSet
Validated: 1
EndChar

StartChar: uni284C
Encoding: 10316 10316 149
Width: 750
GlyphClass: 2
Flags: W
LayerCount: 2
Fore
SplineSet
170 200 m 0
 170 244 206 280 250 280 c 0
 294 280 330 244 330 200 c 0
 330 156 294 120 250 120 c 0
 206 120 170 156 170 200 c 0
420 600 m 0
 420 644 456 680 500 680 c 0
 544 680 580 644 580 600 c 0
 580 556 544 520 500 520 c 0
 456 520 420 556 420 600 c 0
170 0 m 0
 170 44 206 80 250 80 c 0
 294 80 330 44 330 0 c 0
 330 -44 294 -80 250 -80 c 0
 206 -80 170 -44 170 0 c 0
468 0 m 1024
EndSplineSet
Validated: 1
EndChar

StartChar: uni284D
Encoding: 10317 10317 150
Width: 750
GlyphClass: 2
Flags: W
LayerCount: 2
Fore
SplineSet
170 600 m 0
 170 644 206 680 250 680 c 0
 294 680 330 644 330 600 c 0
 330 556 294 520 250 520 c 0
 206 520 170 556 170 600 c 0
170 200 m 0
 170 244 206 280 250 280 c 0
 294 280 330 244 330 200 c 0
 330 156 294 120 250 120 c 0
 206 120 170 156 170 200 c 0
420 600 m 0
 420 644 456 680 500 680 c 0
 544 680 580 644 580 600 c 0
 580 556 544 520 500 520 c 0
 456 520 420 556 420 600 c 0
170 0 m 0
 170 44 206 80 250 80 c 0
 294 80 330 44 330 0 c 0
 330 -44 294 -80 250 -80 c 0
 206 -80 170 -44 170 0 c 0
468 0 m 1024
EndSplineSet
Validated: 1
EndChar

StartChar: uni284E
Encoding: 10318 10318 151
Width: 750
GlyphClass: 2
Flags: W
LayerCount: 2
Fore
SplineSet
170 400 m 0
 170 444 206 480 250 480 c 0
 294 480 330 444 330 400 c 0
 330 356 294 320 250 320 c 0
 206 320 170 356 170 400 c 0
170 200 m 0
 170 244 206 280 250 280 c 0
 294 280 330 244 330 200 c 0
 330 156 294 120 250 120 c 0
 206 120 170 156 170 200 c 0
420 600 m 0
 420 644 456 680 500 680 c 0
 544 680 580 644 580 600 c 0
 580 556 544 520 500 520 c 0
 456 520 420 556 420 600 c 0
170 0 m 0
 170 44 206 80 250 80 c 0
 294 80 330 44 330 0 c 0
 330 -44 294 -80 250 -80 c 0
 206 -80 170 -44 170 0 c 0
468 0 m 1024
EndSplineSet
Validated: 1
EndChar

StartChar: uni284F
Encoding: 10319 10319 152
Width: 750
GlyphClass: 2
Flags: W
LayerCount: 2
Fore
SplineSet
170 600 m 0
 170 644 206 680 250 680 c 0
 294 680 330 644 330 600 c 0
 330 556 294 520 250 520 c 0
 206 520 170 556 170 600 c 0
170 400 m 0
 170 444 206 480 250 480 c 0
 294 480 330 444 330 400 c 0
 330 356 294 320 250 320 c 0
 206 320 170 356 170 400 c 0
170 200 m 0
 170 244 206 280 250 280 c 0
 294 280 330 244 330 200 c 0
 330 156 294 120 250 120 c 0
 206 120 170 156 170 200 c 0
420 600 m 0
 420 644 456 680 500 680 c 0
 544 680 580 644 580 600 c 0
 580 556 544 520 500 520 c 0
 456 520 420 556 420 600 c 0
170 0 m 0
 170 44 206 80 250 80 c 0
 294 80 330 44 330 0 c 0
 330 -44 294 -80 250 -80 c 0
 206 -80 170 -44 170 0 c 0
468 0 m 1024
EndSplineSet
Validated: 1
EndChar

StartChar: uni2850
Encoding: 10320 10320 153
Width: 750
GlyphClass: 2
Flags: W
LayerCount: 2
Fore
SplineSet
420 400 m 0
 420 444 456 480 500 480 c 0
 544 480 580 444 580 400 c 0
 580 356 544 320 500 320 c 0
 456 320 420 356 420 400 c 0
170 0 m 0
 170 44 206 80 250 80 c 0
 294 80 330 44 330 0 c 0
 330 -44 294 -80 250 -80 c 0
 206 -80 170 -44 170 0 c 0
468 0 m 1024
EndSplineSet
Validated: 1
EndChar

StartChar: uni2851
Encoding: 10321 10321 154
Width: 750
GlyphClass: 2
Flags: W
LayerCount: 2
Fore
SplineSet
170 600 m 0
 170 644 206 680 250 680 c 0
 294 680 330 644 330 600 c 0
 330 556 294 520 250 520 c 0
 206 520 170 556 170 600 c 0
420 400 m 0
 420 444 456 480 500 480 c 0
 544 480 580 444 580 400 c 0
 580 356 544 320 500 320 c 0
 456 320 420 356 420 400 c 0
170 0 m 0
 170 44 206 80 250 80 c 0
 294 80 330 44 330 0 c 0
 330 -44 294 -80 250 -80 c 0
 206 -80 170 -44 170 0 c 0
468 0 m 1024
EndSplineSet
Validated: 1
EndChar

StartChar: uni2852
Encoding: 10322 10322 155
Width: 750
GlyphClass: 2
Flags: W
LayerCount: 2
Fore
SplineSet
170 400 m 0
 170 444 206 480 250 480 c 0
 294 480 330 444 330 400 c 0
 330 356 294 320 250 320 c 0
 206 320 170 356 170 400 c 0
420 400 m 0
 420 444 456 480 500 480 c 0
 544 480 580 444 580 400 c 0
 580 356 544 320 500 320 c 0
 456 320 420 356 420 400 c 0
170 0 m 0
 170 44 206 80 250 80 c 0
 294 80 330 44 330 0 c 0
 330 -44 294 -80 250 -80 c 0
 206 -80 170 -44 170 0 c 0
468 0 m 1024
EndSplineSet
Validated: 1
EndChar

StartChar: uni2853
Encoding: 10323 10323 156
Width: 750
GlyphClass: 2
Flags: W
LayerCount: 2
Fore
SplineSet
170 600 m 0
 170 644 206 680 250 680 c 0
 294 680 330 644 330 600 c 0
 330 556 294 520 250 520 c 0
 206 520 170 556 170 600 c 0
170 400 m 0
 170 444 206 480 250 480 c 0
 294 480 330 444 330 400 c 0
 330 356 294 320 250 320 c 0
 206 320 170 356 170 400 c 0
420 400 m 0
 420 444 456 480 500 480 c 0
 544 480 580 444 580 400 c 0
 580 356 544 320 500 320 c 0
 456 320 420 356 420 400 c 0
170 0 m 0
 170 44 206 80 250 80 c 0
 294 80 330 44 330 0 c 0
 330 -44 294 -80 250 -80 c 0
 206 -80 170 -44 170 0 c 0
468 0 m 1024
EndSplineSet
Validated: 1
EndChar

StartChar: uni2854
Encoding: 10324 10324 157
Width: 750
GlyphClass: 2
Flags: W
LayerCount: 2
Fore
SplineSet
170 200 m 0
 170 244 206 280 250 280 c 0
 294 280 330 244 330 200 c 0
 330 156 294 120 250 120 c 0
 206 120 170 156 170 200 c 0
420 400 m 0
 420 444 456 480 500 480 c 0
 544 480 580 444 580 400 c 0
 580 356 544 320 500 320 c 0
 456 320 420 356 420 400 c 0
170 0 m 0
 170 44 206 80 250 80 c 0
 294 80 330 44 330 0 c 0
 330 -44 294 -80 250 -80 c 0
 206 -80 170 -44 170 0 c 0
468 0 m 1024
EndSplineSet
Validated: 1
EndChar

StartChar: uni2855
Encoding: 10325 10325 158
Width: 750
GlyphClass: 2
Flags: W
LayerCount: 2
Fore
SplineSet
170 600 m 0
 170 644 206 680 250 680 c 0
 294 680 330 644 330 600 c 0
 330 556 294 520 250 520 c 0
 206 520 170 556 170 600 c 0
170 200 m 0
 170 244 206 280 250 280 c 0
 294 280 330 244 330 200 c 0
 330 156 294 120 250 120 c 0
 206 120 170 156 170 200 c 0
420 400 m 0
 420 444 456 480 500 480 c 0
 544 480 580 444 580 400 c 0
 580 356 544 320 500 320 c 0
 456 320 420 356 420 400 c 0
170 0 m 0
 170 44 206 80 250 80 c 0
 294 80 330 44 330 0 c 0
 330 -44 294 -80 250 -80 c 0
 206 -80 170 -44 170 0 c 0
468 0 m 1024
EndSplineSet
Validated: 1
EndChar

StartChar: uni2856
Encoding: 10326 10326 159
Width: 750
GlyphClass: 2
Flags: W
LayerCount: 2
Fore
SplineSet
170 400 m 0
 170 444 206 480 250 480 c 0
 294 480 330 444 330 400 c 0
 330 356 294 320 250 320 c 0
 206 320 170 356 170 400 c 0
170 200 m 0
 170 244 206 280 250 280 c 0
 294 280 330 244 330 200 c 0
 330 156 294 120 250 120 c 0
 206 120 170 156 170 200 c 0
420 400 m 0
 420 444 456 480 500 480 c 0
 544 480 580 444 580 400 c 0
 580 356 544 320 500 320 c 0
 456 320 420 356 420 400 c 0
170 0 m 0
 170 44 206 80 250 80 c 0
 294 80 330 44 330 0 c 0
 330 -44 294 -80 250 -80 c 0
 206 -80 170 -44 170 0 c 0
468 0 m 1024
EndSplineSet
Validated: 1
EndChar

StartChar: uni2857
Encoding: 10327 10327 160
Width: 750
GlyphClass: 2
Flags: W
LayerCount: 2
Fore
SplineSet
170 600 m 0
 170 644 206 680 250 680 c 0
 294 680 330 644 330 600 c 0
 330 556 294 520 250 520 c 0
 206 520 170 556 170 600 c 0
170 400 m 0
 170 444 206 480 250 480 c 0
 294 480 330 444 330 400 c 0
 330 356 294 320 250 320 c 0
 206 320 170 356 170 400 c 0
170 200 m 0
 170 244 206 280 250 280 c 0
 294 280 330 244 330 200 c 0
 330 156 294 120 250 120 c 0
 206 120 170 156 170 200 c 0
420 400 m 0
 420 444 456 480 500 480 c 0
 544 480 580 444 580 400 c 0
 580 356 544 320 500 320 c 0
 456 320 420 356 420 400 c 0
170 0 m 0
 170 44 206 80 250 80 c 0
 294 80 330 44 330 0 c 0
 330 -44 294 -80 250 -80 c 0
 206 -80 170 -44 170 0 c 0
468 0 m 1024
EndSplineSet
Validated: 1
EndChar

StartChar: uni2858
Encoding: 10328 10328 161
Width: 750
GlyphClass: 2
Flags: W
LayerCount: 2
Fore
SplineSet
420 600 m 0
 420 644 456 680 500 680 c 0
 544 680 580 644 580 600 c 0
 580 556 544 520 500 520 c 0
 456 520 420 556 420 600 c 0
420 400 m 0
 420 444 456 480 500 480 c 0
 544 480 580 444 580 400 c 0
 580 356 544 320 500 320 c 0
 456 320 420 356 420 400 c 0
170 0 m 0
 170 44 206 80 250 80 c 0
 294 80 330 44 330 0 c 0
 330 -44 294 -80 250 -80 c 0
 206 -80 170 -44 170 0 c 0
468 0 m 1024
EndSplineSet
Validated: 1
EndChar

StartChar: uni2859
Encoding: 10329 10329 162
Width: 750
GlyphClass: 2
Flags: W
LayerCount: 2
Fore
SplineSet
170 600 m 0
 170 644 206 680 250 680 c 0
 294 680 330 644 330 600 c 0
 330 556 294 520 250 520 c 0
 206 520 170 556 170 600 c 0
420 600 m 0
 420 644 456 680 500 680 c 0
 544 680 580 644 580 600 c 0
 580 556 544 520 500 520 c 0
 456 520 420 556 420 600 c 0
420 400 m 0
 420 444 456 480 500 480 c 0
 544 480 580 444 580 400 c 0
 580 356 544 320 500 320 c 0
 456 320 420 356 420 400 c 0
170 0 m 0
 170 44 206 80 250 80 c 0
 294 80 330 44 330 0 c 0
 330 -44 294 -80 250 -80 c 0
 206 -80 170 -44 170 0 c 0
468 0 m 1024
EndSplineSet
Validated: 1
EndChar

StartChar: uni285A
Encoding: 10330 10330 163
Width: 750
GlyphClass: 2
Flags: W
LayerCount: 2
Fore
SplineSet
170 400 m 0
 170 444 206 480 250 480 c 0
 294 480 330 444 330 400 c 0
 330 356 294 320 250 320 c 0
 206 320 170 356 170 400 c 0
420 600 m 0
 420 644 456 680 500 680 c 0
 544 680 580 644 580 600 c 0
 580 556 544 520 500 520 c 0
 456 520 420 556 420 600 c 0
420 400 m 0
 420 444 456 480 500 480 c 0
 544 480 580 444 580 400 c 0
 580 356 544 320 500 320 c 0
 456 320 420 356 420 400 c 0
170 0 m 0
 170 44 206 80 250 80 c 0
 294 80 330 44 330 0 c 0
 330 -44 294 -80 250 -80 c 0
 206 -80 170 -44 170 0 c 0
468 0 m 1024
EndSplineSet
Validated: 1
EndChar

StartChar: uni285B
Encoding: 10331 10331 164
Width: 750
GlyphClass: 2
Flags: W
LayerCount: 2
Fore
SplineSet
170 600 m 0
 170 644 206 680 250 680 c 0
 294 680 330 644 330 600 c 0
 330 556 294 520 250 520 c 0
 206 520 170 556 170 600 c 0
170 400 m 0
 170 444 206 480 250 480 c 0
 294 480 330 444 330 400 c 0
 330 356 294 320 250 320 c 0
 206 320 170 356 170 400 c 0
420 600 m 0
 420 644 456 680 500 680 c 0
 544 680 580 644 580 600 c 0
 580 556 544 520 500 520 c 0
 456 520 420 556 420 600 c 0
420 400 m 0
 420 444 456 480 500 480 c 0
 544 480 580 444 580 400 c 0
 580 356 544 320 500 320 c 0
 456 320 420 356 420 400 c 0
170 0 m 0
 170 44 206 80 250 80 c 0
 294 80 330 44 330 0 c 0
 330 -44 294 -80 250 -80 c 0
 206 -80 170 -44 170 0 c 0
468 0 m 1024
EndSplineSet
Validated: 1
EndChar

StartChar: uni285C
Encoding: 10332 10332 165
Width: 750
GlyphClass: 2
Flags: W
LayerCount: 2
Fore
SplineSet
170 200 m 0
 170 244 206 280 250 280 c 0
 294 280 330 244 330 200 c 0
 330 156 294 120 250 120 c 0
 206 120 170 156 170 200 c 0
420 600 m 0
 420 644 456 680 500 680 c 0
 544 680 580 644 580 600 c 0
 580 556 544 520 500 520 c 0
 456 520 420 556 420 600 c 0
420 400 m 0
 420 444 456 480 500 480 c 0
 544 480 580 444 580 400 c 0
 580 356 544 320 500 320 c 0
 456 320 420 356 420 400 c 0
170 0 m 0
 170 44 206 80 250 80 c 0
 294 80 330 44 330 0 c 0
 330 -44 294 -80 250 -80 c 0
 206 -80 170 -44 170 0 c 0
468 0 m 1024
EndSplineSet
Validated: 1
EndChar

StartChar: uni285D
Encoding: 10333 10333 166
Width: 750
GlyphClass: 2
Flags: W
LayerCount: 2
Fore
SplineSet
170 600 m 0
 170 644 206 680 250 680 c 0
 294 680 330 644 330 600 c 0
 330 556 294 520 250 520 c 0
 206 520 170 556 170 600 c 0
170 200 m 0
 170 244 206 280 250 280 c 0
 294 280 330 244 330 200 c 0
 330 156 294 120 250 120 c 0
 206 120 170 156 170 200 c 0
420 600 m 0
 420 644 456 680 500 680 c 0
 544 680 580 644 580 600 c 0
 580 556 544 520 500 520 c 0
 456 520 420 556 420 600 c 0
420 400 m 0
 420 444 456 480 500 480 c 0
 544 480 580 444 580 400 c 0
 580 356 544 320 500 320 c 0
 456 320 420 356 420 400 c 0
170 0 m 0
 170 44 206 80 250 80 c 0
 294 80 330 44 330 0 c 0
 330 -44 294 -80 250 -80 c 0
 206 -80 170 -44 170 0 c 0
468 0 m 1024
EndSplineSet
Validated: 1
EndChar

StartChar: uni285E
Encoding: 10334 10334 167
Width: 750
GlyphClass: 2
Flags: W
LayerCount: 2
Fore
SplineSet
170 400 m 0
 170 444 206 480 250 480 c 0
 294 480 330 444 330 400 c 0
 330 356 294 320 250 320 c 0
 206 320 170 356 170 400 c 0
170 200 m 0
 170 244 206 280 250 280 c 0
 294 280 330 244 330 200 c 0
 330 156 294 120 250 120 c 0
 206 120 170 156 170 200 c 0
420 600 m 0
 420 644 456 680 500 680 c 0
 544 680 580 644 580 600 c 0
 580 556 544 520 500 520 c 0
 456 520 420 556 420 600 c 0
420 400 m 0
 420 444 456 480 500 480 c 0
 544 480 580 444 580 400 c 0
 580 356 544 320 500 320 c 0
 456 320 420 356 420 400 c 0
170 0 m 0
 170 44 206 80 250 80 c 0
 294 80 330 44 330 0 c 0
 330 -44 294 -80 250 -80 c 0
 206 -80 170 -44 170 0 c 0
468 0 m 1024
EndSplineSet
Validated: 1
EndChar

StartChar: uni285F
Encoding: 10335 10335 168
Width: 750
GlyphClass: 2
Flags: W
LayerCount: 2
Fore
SplineSet
170 600 m 0
 170 644 206 680 250 680 c 0
 294 680 330 644 330 600 c 0
 330 556 294 520 250 520 c 0
 206 520 170 556 170 600 c 0
170 400 m 0
 170 444 206 480 250 480 c 0
 294 480 330 444 330 400 c 0
 330 356 294 320 250 320 c 0
 206 320 170 356 170 400 c 0
170 200 m 0
 170 244 206 280 250 280 c 0
 294 280 330 244 330 200 c 0
 330 156 294 120 250 120 c 0
 206 120 170 156 170 200 c 0
420 600 m 0
 420 644 456 680 500 680 c 0
 544 680 580 644 580 600 c 0
 580 556 544 520 500 520 c 0
 456 520 420 556 420 600 c 0
420 400 m 0
 420 444 456 480 500 480 c 0
 544 480 580 444 580 400 c 0
 580 356 544 320 500 320 c 0
 456 320 420 356 420 400 c 0
170 0 m 0
 170 44 206 80 250 80 c 0
 294 80 330 44 330 0 c 0
 330 -44 294 -80 250 -80 c 0
 206 -80 170 -44 170 0 c 0
468 0 m 1024
EndSplineSet
Validated: 1
EndChar

StartChar: uni2860
Encoding: 10336 10336 169
Width: 750
GlyphClass: 2
Flags: W
LayerCount: 2
Fore
SplineSet
420 200 m 0
 420 244 456 280 500 280 c 0
 544 280 580 244 580 200 c 0
 580 156 544 120 500 120 c 0
 456 120 420 156 420 200 c 0
170 0 m 0
 170 44 206 80 250 80 c 0
 294 80 330 44 330 0 c 0
 330 -44 294 -80 250 -80 c 0
 206 -80 170 -44 170 0 c 0
468 0 m 1024
EndSplineSet
Validated: 1
EndChar

StartChar: uni2861
Encoding: 10337 10337 170
Width: 750
GlyphClass: 2
Flags: W
LayerCount: 2
Fore
SplineSet
170 600 m 0
 170 644 206 680 250 680 c 0
 294 680 330 644 330 600 c 0
 330 556 294 520 250 520 c 0
 206 520 170 556 170 600 c 0
420 200 m 0
 420 244 456 280 500 280 c 0
 544 280 580 244 580 200 c 0
 580 156 544 120 500 120 c 0
 456 120 420 156 420 200 c 0
170 0 m 0
 170 44 206 80 250 80 c 0
 294 80 330 44 330 0 c 0
 330 -44 294 -80 250 -80 c 0
 206 -80 170 -44 170 0 c 0
468 0 m 1024
EndSplineSet
Validated: 1
EndChar

StartChar: uni2862
Encoding: 10338 10338 171
Width: 750
GlyphClass: 2
Flags: W
LayerCount: 2
Fore
SplineSet
170 400 m 0
 170 444 206 480 250 480 c 0
 294 480 330 444 330 400 c 0
 330 356 294 320 250 320 c 0
 206 320 170 356 170 400 c 0
420 200 m 0
 420 244 456 280 500 280 c 0
 544 280 580 244 580 200 c 0
 580 156 544 120 500 120 c 0
 456 120 420 156 420 200 c 0
170 0 m 0
 170 44 206 80 250 80 c 0
 294 80 330 44 330 0 c 0
 330 -44 294 -80 250 -80 c 0
 206 -80 170 -44 170 0 c 0
468 0 m 1024
EndSplineSet
Validated: 1
EndChar

StartChar: uni2863
Encoding: 10339 10339 172
Width: 750
GlyphClass: 2
Flags: W
LayerCount: 2
Fore
SplineSet
170 600 m 0
 170 644 206 680 250 680 c 0
 294 680 330 644 330 600 c 0
 330 556 294 520 250 520 c 0
 206 520 170 556 170 600 c 0
170 400 m 0
 170 444 206 480 250 480 c 0
 294 480 330 444 330 400 c 0
 330 356 294 320 250 320 c 0
 206 320 170 356 170 400 c 0
420 200 m 0
 420 244 456 280 500 280 c 0
 544 280 580 244 580 200 c 0
 580 156 544 120 500 120 c 0
 456 120 420 156 420 200 c 0
170 0 m 0
 170 44 206 80 250 80 c 0
 294 80 330 44 330 0 c 0
 330 -44 294 -80 250 -80 c 0
 206 -80 170 -44 170 0 c 0
468 0 m 1024
EndSplineSet
Validated: 1
EndChar

StartChar: uni2864
Encoding: 10340 10340 173
Width: 750
GlyphClass: 2
Flags: W
LayerCount: 2
Fore
SplineSet
170 200 m 0
 170 244 206 280 250 280 c 0
 294 280 330 244 330 200 c 0
 330 156 294 120 250 120 c 0
 206 120 170 156 170 200 c 0
420 200 m 0
 420 244 456 280 500 280 c 0
 544 280 580 244 580 200 c 0
 580 156 544 120 500 120 c 0
 456 120 420 156 420 200 c 0
170 0 m 0
 170 44 206 80 250 80 c 0
 294 80 330 44 330 0 c 0
 330 -44 294 -80 250 -80 c 0
 206 -80 170 -44 170 0 c 0
468 0 m 1024
EndSplineSet
Validated: 1
EndChar

StartChar: uni2865
Encoding: 10341 10341 174
Width: 750
GlyphClass: 2
Flags: W
LayerCount: 2
Fore
SplineSet
170 600 m 0
 170 644 206 680 250 680 c 0
 294 680 330 644 330 600 c 0
 330 556 294 520 250 520 c 0
 206 520 170 556 170 600 c 0
170 200 m 0
 170 244 206 280 250 280 c 0
 294 280 330 244 330 200 c 0
 330 156 294 120 250 120 c 0
 206 120 170 156 170 200 c 0
420 200 m 0
 420 244 456 280 500 280 c 0
 544 280 580 244 580 200 c 0
 580 156 544 120 500 120 c 0
 456 120 420 156 420 200 c 0
170 0 m 0
 170 44 206 80 250 80 c 0
 294 80 330 44 330 0 c 0
 330 -44 294 -80 250 -80 c 0
 206 -80 170 -44 170 0 c 0
468 0 m 1024
EndSplineSet
Validated: 1
EndChar

StartChar: uni2866
Encoding: 10342 10342 175
Width: 750
GlyphClass: 2
Flags: W
LayerCount: 2
Fore
SplineSet
170 400 m 0
 170 444 206 480 250 480 c 0
 294 480 330 444 330 400 c 0
 330 356 294 320 250 320 c 0
 206 320 170 356 170 400 c 0
170 200 m 0
 170 244 206 280 250 280 c 0
 294 280 330 244 330 200 c 0
 330 156 294 120 250 120 c 0
 206 120 170 156 170 200 c 0
420 200 m 0
 420 244 456 280 500 280 c 0
 544 280 580 244 580 200 c 0
 580 156 544 120 500 120 c 0
 456 120 420 156 420 200 c 0
170 0 m 0
 170 44 206 80 250 80 c 0
 294 80 330 44 330 0 c 0
 330 -44 294 -80 250 -80 c 0
 206 -80 170 -44 170 0 c 0
468 0 m 1024
EndSplineSet
Validated: 1
EndChar

StartChar: uni2867
Encoding: 10343 10343 176
Width: 750
GlyphClass: 2
Flags: W
LayerCount: 2
Fore
SplineSet
170 600 m 0
 170 644 206 680 250 680 c 0
 294 680 330 644 330 600 c 0
 330 556 294 520 250 520 c 0
 206 520 170 556 170 600 c 0
170 400 m 0
 170 444 206 480 250 480 c 0
 294 480 330 444 330 400 c 0
 330 356 294 320 250 320 c 0
 206 320 170 356 170 400 c 0
170 200 m 0
 170 244 206 280 250 280 c 0
 294 280 330 244 330 200 c 0
 330 156 294 120 250 120 c 0
 206 120 170 156 170 200 c 0
420 200 m 0
 420 244 456 280 500 280 c 0
 544 280 580 244 580 200 c 0
 580 156 544 120 500 120 c 0
 456 120 420 156 420 200 c 0
170 0 m 0
 170 44 206 80 250 80 c 0
 294 80 330 44 330 0 c 0
 330 -44 294 -80 250 -80 c 0
 206 -80 170 -44 170 0 c 0
468 0 m 1024
EndSplineSet
Validated: 1
EndChar

StartChar: uni2868
Encoding: 10344 10344 177
Width: 750
GlyphClass: 2
Flags: W
LayerCount: 2
Fore
SplineSet
420 600 m 0
 420 644 456 680 500 680 c 0
 544 680 580 644 580 600 c 0
 580 556 544 520 500 520 c 0
 456 520 420 556 420 600 c 0
420 200 m 0
 420 244 456 280 500 280 c 0
 544 280 580 244 580 200 c 0
 580 156 544 120 500 120 c 0
 456 120 420 156 420 200 c 0
170 0 m 0
 170 44 206 80 250 80 c 0
 294 80 330 44 330 0 c 0
 330 -44 294 -80 250 -80 c 0
 206 -80 170 -44 170 0 c 0
468 0 m 1024
EndSplineSet
Validated: 1
EndChar

StartChar: uni2869
Encoding: 10345 10345 178
Width: 750
GlyphClass: 2
Flags: W
LayerCount: 2
Fore
SplineSet
170 600 m 0
 170 644 206 680 250 680 c 0
 294 680 330 644 330 600 c 0
 330 556 294 520 250 520 c 0
 206 520 170 556 170 600 c 0
420 600 m 0
 420 644 456 680 500 680 c 0
 544 680 580 644 580 600 c 0
 580 556 544 520 500 520 c 0
 456 520 420 556 420 600 c 0
420 200 m 0
 420 244 456 280 500 280 c 0
 544 280 580 244 580 200 c 0
 580 156 544 120 500 120 c 0
 456 120 420 156 420 200 c 0
170 0 m 0
 170 44 206 80 250 80 c 0
 294 80 330 44 330 0 c 0
 330 -44 294 -80 250 -80 c 0
 206 -80 170 -44 170 0 c 0
468 0 m 1024
EndSplineSet
Validated: 1
EndChar

StartChar: uni286A
Encoding: 10346 10346 179
Width: 750
GlyphClass: 2
Flags: W
LayerCount: 2
Fore
SplineSet
170 400 m 0
 170 444 206 480 250 480 c 0
 294 480 330 444 330 400 c 0
 330 356 294 320 250 320 c 0
 206 320 170 356 170 400 c 0
420 600 m 0
 420 644 456 680 500 680 c 0
 544 680 580 644 580 600 c 0
 580 556 544 520 500 520 c 0
 456 520 420 556 420 600 c 0
420 200 m 0
 420 244 456 280 500 280 c 0
 544 280 580 244 580 200 c 0
 580 156 544 120 500 120 c 0
 456 120 420 156 420 200 c 0
170 0 m 0
 170 44 206 80 250 80 c 0
 294 80 330 44 330 0 c 0
 330 -44 294 -80 250 -80 c 0
 206 -80 170 -44 170 0 c 0
468 0 m 1024
EndSplineSet
Validated: 1
EndChar

StartChar: uni286B
Encoding: 10347 10347 180
Width: 750
GlyphClass: 2
Flags: W
LayerCount: 2
Fore
SplineSet
170 600 m 0
 170 644 206 680 250 680 c 0
 294 680 330 644 330 600 c 0
 330 556 294 520 250 520 c 0
 206 520 170 556 170 600 c 0
170 400 m 0
 170 444 206 480 250 480 c 0
 294 480 330 444 330 400 c 0
 330 356 294 320 250 320 c 0
 206 320 170 356 170 400 c 0
420 600 m 0
 420 644 456 680 500 680 c 0
 544 680 580 644 580 600 c 0
 580 556 544 520 500 520 c 0
 456 520 420 556 420 600 c 0
420 200 m 0
 420 244 456 280 500 280 c 0
 544 280 580 244 580 200 c 0
 580 156 544 120 500 120 c 0
 456 120 420 156 420 200 c 0
170 0 m 0
 170 44 206 80 250 80 c 0
 294 80 330 44 330 0 c 0
 330 -44 294 -80 250 -80 c 0
 206 -80 170 -44 170 0 c 0
468 0 m 1024
EndSplineSet
Validated: 1
EndChar

StartChar: uni286C
Encoding: 10348 10348 181
Width: 750
GlyphClass: 2
Flags: W
LayerCount: 2
Fore
SplineSet
170 200 m 0
 170 244 206 280 250 280 c 0
 294 280 330 244 330 200 c 0
 330 156 294 120 250 120 c 0
 206 120 170 156 170 200 c 0
420 600 m 0
 420 644 456 680 500 680 c 0
 544 680 580 644 580 600 c 0
 580 556 544 520 500 520 c 0
 456 520 420 556 420 600 c 0
420 200 m 0
 420 244 456 280 500 280 c 0
 544 280 580 244 580 200 c 0
 580 156 544 120 500 120 c 0
 456 120 420 156 420 200 c 0
170 0 m 0
 170 44 206 80 250 80 c 0
 294 80 330 44 330 0 c 0
 330 -44 294 -80 250 -80 c 0
 206 -80 170 -44 170 0 c 0
468 0 m 1024
EndSplineSet
Validated: 1
EndChar

StartChar: uni286D
Encoding: 10349 10349 182
Width: 750
GlyphClass: 2
Flags: W
LayerCount: 2
Fore
SplineSet
170 600 m 0
 170 644 206 680 250 680 c 0
 294 680 330 644 330 600 c 0
 330 556 294 520 250 520 c 0
 206 520 170 556 170 600 c 0
170 200 m 0
 170 244 206 280 250 280 c 0
 294 280 330 244 330 200 c 0
 330 156 294 120 250 120 c 0
 206 120 170 156 170 200 c 0
420 600 m 0
 420 644 456 680 500 680 c 0
 544 680 580 644 580 600 c 0
 580 556 544 520 500 520 c 0
 456 520 420 556 420 600 c 0
420 200 m 0
 420 244 456 280 500 280 c 0
 544 280 580 244 580 200 c 0
 580 156 544 120 500 120 c 0
 456 120 420 156 420 200 c 0
170 0 m 0
 170 44 206 80 250 80 c 0
 294 80 330 44 330 0 c 0
 330 -44 294 -80 250 -80 c 0
 206 -80 170 -44 170 0 c 0
468 0 m 1024
EndSplineSet
Validated: 1
EndChar

StartChar: uni286E
Encoding: 10350 10350 183
Width: 750
GlyphClass: 2
Flags: W
LayerCount: 2
Fore
SplineSet
170 400 m 0
 170 444 206 480 250 480 c 0
 294 480 330 444 330 400 c 0
 330 356 294 320 250 320 c 0
 206 320 170 356 170 400 c 0
170 200 m 0
 170 244 206 280 250 280 c 0
 294 280 330 244 330 200 c 0
 330 156 294 120 250 120 c 0
 206 120 170 156 170 200 c 0
420 600 m 0
 420 644 456 680 500 680 c 0
 544 680 580 644 580 600 c 0
 580 556 544 520 500 520 c 0
 456 520 420 556 420 600 c 0
420 200 m 0
 420 244 456 280 500 280 c 0
 544 280 580 244 580 200 c 0
 580 156 544 120 500 120 c 0
 456 120 420 156 420 200 c 0
170 0 m 0
 170 44 206 80 250 80 c 0
 294 80 330 44 330 0 c 0
 330 -44 294 -80 250 -80 c 0
 206 -80 170 -44 170 0 c 0
468 0 m 1024
EndSplineSet
Validated: 1
EndChar

StartChar: uni286F
Encoding: 10351 10351 184
Width: 750
GlyphClass: 2
Flags: W
LayerCount: 2
Fore
SplineSet
170 600 m 0
 170 644 206 680 250 680 c 0
 294 680 330 644 330 600 c 0
 330 556 294 520 250 520 c 0
 206 520 170 556 170 600 c 0
170 400 m 0
 170 444 206 480 250 480 c 0
 294 480 330 444 330 400 c 0
 330 356 294 320 250 320 c 0
 206 320 170 356 170 400 c 0
170 200 m 0
 170 244 206 280 250 280 c 0
 294 280 330 244 330 200 c 0
 330 156 294 120 250 120 c 0
 206 120 170 156 170 200 c 0
420 600 m 0
 420 644 456 680 500 680 c 0
 544 680 580 644 580 600 c 0
 580 556 544 520 500 520 c 0
 456 520 420 556 420 600 c 0
420 200 m 0
 420 244 456 280 500 280 c 0
 544 280 580 244 580 200 c 0
 580 156 544 120 500 120 c 0
 456 120 420 156 420 200 c 0
170 0 m 0
 170 44 206 80 250 80 c 0
 294 80 330 44 330 0 c 0
 330 -44 294 -80 250 -80 c 0
 206 -80 170 -44 170 0 c 0
468 0 m 1024
EndSplineSet
Validated: 1
EndChar

StartChar: uni2870
Encoding: 10352 10352 185
Width: 750
GlyphClass: 2
Flags: W
LayerCount: 2
Fore
SplineSet
420 400 m 0
 420 444 456 480 500 480 c 0
 544 480 580 444 580 400 c 0
 580 356 544 320 500 320 c 0
 456 320 420 356 420 400 c 0
420 200 m 0
 420 244 456 280 500 280 c 0
 544 280 580 244 580 200 c 0
 580 156 544 120 500 120 c 0
 456 120 420 156 420 200 c 0
170 0 m 0
 170 44 206 80 250 80 c 0
 294 80 330 44 330 0 c 0
 330 -44 294 -80 250 -80 c 0
 206 -80 170 -44 170 0 c 0
468 0 m 1024
EndSplineSet
Validated: 1
EndChar

StartChar: uni2871
Encoding: 10353 10353 186
Width: 750
GlyphClass: 2
Flags: W
LayerCount: 2
Fore
SplineSet
170 600 m 0
 170 644 206 680 250 680 c 0
 294 680 330 644 330 600 c 0
 330 556 294 520 250 520 c 0
 206 520 170 556 170 600 c 0
420 400 m 0
 420 444 456 480 500 480 c 0
 544 480 580 444 580 400 c 0
 580 356 544 320 500 320 c 0
 456 320 420 356 420 400 c 0
420 200 m 0
 420 244 456 280 500 280 c 0
 544 280 580 244 580 200 c 0
 580 156 544 120 500 120 c 0
 456 120 420 156 420 200 c 0
170 0 m 0
 170 44 206 80 250 80 c 0
 294 80 330 44 330 0 c 0
 330 -44 294 -80 250 -80 c 0
 206 -80 170 -44 170 0 c 0
468 0 m 1024
EndSplineSet
Validated: 1
EndChar

StartChar: uni2872
Encoding: 10354 10354 187
Width: 750
GlyphClass: 2
Flags: W
LayerCount: 2
Fore
SplineSet
170 400 m 0
 170 444 206 480 250 480 c 0
 294 480 330 444 330 400 c 0
 330 356 294 320 250 320 c 0
 206 320 170 356 170 400 c 0
420 400 m 0
 420 444 456 480 500 480 c 0
 544 480 580 444 580 400 c 0
 580 356 544 320 500 320 c 0
 456 320 420 356 420 400 c 0
420 200 m 0
 420 244 456 280 500 280 c 0
 544 280 580 244 580 200 c 0
 580 156 544 120 500 120 c 0
 456 120 420 156 420 200 c 0
170 0 m 0
 170 44 206 80 250 80 c 0
 294 80 330 44 330 0 c 0
 330 -44 294 -80 250 -80 c 0
 206 -80 170 -44 170 0 c 0
468 0 m 1024
EndSplineSet
Validated: 1
EndChar

StartChar: uni2873
Encoding: 10355 10355 188
Width: 750
GlyphClass: 2
Flags: W
LayerCount: 2
Fore
SplineSet
170 600 m 0
 170 644 206 680 250 680 c 0
 294 680 330 644 330 600 c 0
 330 556 294 520 250 520 c 0
 206 520 170 556 170 600 c 0
170 400 m 0
 170 444 206 480 250 480 c 0
 294 480 330 444 330 400 c 0
 330 356 294 320 250 320 c 0
 206 320 170 356 170 400 c 0
420 400 m 0
 420 444 456 480 500 480 c 0
 544 480 580 444 580 400 c 0
 580 356 544 320 500 320 c 0
 456 320 420 356 420 400 c 0
420 200 m 0
 420 244 456 280 500 280 c 0
 544 280 580 244 580 200 c 0
 580 156 544 120 500 120 c 0
 456 120 420 156 420 200 c 0
170 0 m 0
 170 44 206 80 250 80 c 0
 294 80 330 44 330 0 c 0
 330 -44 294 -80 250 -80 c 0
 206 -80 170 -44 170 0 c 0
468 0 m 1024
EndSplineSet
Validated: 1
EndChar

StartChar: uni2874
Encoding: 10356 10356 189
Width: 750
GlyphClass: 2
Flags: W
LayerCount: 2
Fore
SplineSet
170 200 m 0
 170 244 206 280 250 280 c 0
 294 280 330 244 330 200 c 0
 330 156 294 120 250 120 c 0
 206 120 170 156 170 200 c 0
420 400 m 0
 420 444 456 480 500 480 c 0
 544 480 580 444 580 400 c 0
 580 356 544 320 500 320 c 0
 456 320 420 356 420 400 c 0
420 200 m 0
 420 244 456 280 500 280 c 0
 544 280 580 244 580 200 c 0
 580 156 544 120 500 120 c 0
 456 120 420 156 420 200 c 0
170 0 m 0
 170 44 206 80 250 80 c 0
 294 80 330 44 330 0 c 0
 330 -44 294 -80 250 -80 c 0
 206 -80 170 -44 170 0 c 0
468 0 m 1024
EndSplineSet
Validated: 1
EndChar

StartChar: uni2875
Encoding: 10357 10357 190
Width: 750
GlyphClass: 2
Flags: W
LayerCount: 2
Fore
SplineSet
170 600 m 0
 170 644 206 680 250 680 c 0
 294 680 330 644 330 600 c 0
 330 556 294 520 250 520 c 0
 206 520 170 556 170 600 c 0
170 200 m 0
 170 244 206 280 250 280 c 0
 294 280 330 244 330 200 c 0
 330 156 294 120 250 120 c 0
 206 120 170 156 170 200 c 0
420 400 m 0
 420 444 456 480 500 480 c 0
 544 480 580 444 580 400 c 0
 580 356 544 320 500 320 c 0
 456 320 420 356 420 400 c 0
420 200 m 0
 420 244 456 280 500 280 c 0
 544 280 580 244 580 200 c 0
 580 156 544 120 500 120 c 0
 456 120 420 156 420 200 c 0
170 0 m 0
 170 44 206 80 250 80 c 0
 294 80 330 44 330 0 c 0
 330 -44 294 -80 250 -80 c 0
 206 -80 170 -44 170 0 c 0
468 0 m 1024
EndSplineSet
Validated: 1
EndChar

StartChar: uni2876
Encoding: 10358 10358 191
Width: 750
GlyphClass: 2
Flags: W
LayerCount: 2
Fore
SplineSet
170 400 m 0
 170 444 206 480 250 480 c 0
 294 480 330 444 330 400 c 0
 330 356 294 320 250 320 c 0
 206 320 170 356 170 400 c 0
170 200 m 0
 170 244 206 280 250 280 c 0
 294 280 330 244 330 200 c 0
 330 156 294 120 250 120 c 0
 206 120 170 156 170 200 c 0
420 400 m 0
 420 444 456 480 500 480 c 0
 544 480 580 444 580 400 c 0
 580 356 544 320 500 320 c 0
 456 320 420 356 420 400 c 0
420 200 m 0
 420 244 456 280 500 280 c 0
 544 280 580 244 580 200 c 0
 580 156 544 120 500 120 c 0
 456 120 420 156 420 200 c 0
170 0 m 0
 170 44 206 80 250 80 c 0
 294 80 330 44 330 0 c 0
 330 -44 294 -80 250 -80 c 0
 206 -80 170 -44 170 0 c 0
468 0 m 1024
EndSplineSet
Validated: 1
EndChar

StartChar: uni2877
Encoding: 10359 10359 192
Width: 750
GlyphClass: 2
Flags: W
LayerCount: 2
Fore
SplineSet
170 600 m 0
 170 644 206 680 250 680 c 0
 294 680 330 644 330 600 c 0
 330 556 294 520 250 520 c 0
 206 520 170 556 170 600 c 0
170 400 m 0
 170 444 206 480 250 480 c 0
 294 480 330 444 330 400 c 0
 330 356 294 320 250 320 c 0
 206 320 170 356 170 400 c 0
170 200 m 0
 170 244 206 280 250 280 c 0
 294 280 330 244 330 200 c 0
 330 156 294 120 250 120 c 0
 206 120 170 156 170 200 c 0
420 400 m 0
 420 444 456 480 500 480 c 0
 544 480 580 444 580 400 c 0
 580 356 544 320 500 320 c 0
 456 320 420 356 420 400 c 0
420 200 m 0
 420 244 456 280 500 280 c 0
 544 280 580 244 580 200 c 0
 580 156 544 120 500 120 c 0
 456 120 420 156 420 200 c 0
170 0 m 0
 170 44 206 80 250 80 c 0
 294 80 330 44 330 0 c 0
 330 -44 294 -80 250 -80 c 0
 206 -80 170 -44 170 0 c 0
468 0 m 1024
EndSplineSet
Validated: 1
EndChar

StartChar: uni2878
Encoding: 10360 10360 193
Width: 750
GlyphClass: 2
Flags: W
LayerCount: 2
Fore
SplineSet
420 600 m 0
 420 644 456 680 500 680 c 0
 544 680 580 644 580 600 c 0
 580 556 544 520 500 520 c 0
 456 520 420 556 420 600 c 0
420 400 m 0
 420 444 456 480 500 480 c 0
 544 480 580 444 580 400 c 0
 580 356 544 320 500 320 c 0
 456 320 420 356 420 400 c 0
420 200 m 0
 420 244 456 280 500 280 c 0
 544 280 580 244 580 200 c 0
 580 156 544 120 500 120 c 0
 456 120 420 156 420 200 c 0
170 0 m 0
 170 44 206 80 250 80 c 0
 294 80 330 44 330 0 c 0
 330 -44 294 -80 250 -80 c 0
 206 -80 170 -44 170 0 c 0
468 0 m 1024
EndSplineSet
Validated: 1
EndChar

StartChar: uni2879
Encoding: 10361 10361 194
Width: 750
GlyphClass: 2
Flags: W
LayerCount: 2
Fore
SplineSet
170 600 m 0
 170 644 206 680 250 680 c 0
 294 680 330 644 330 600 c 0
 330 556 294 520 250 520 c 0
 206 520 170 556 170 600 c 0
420 600 m 0
 420 644 456 680 500 680 c 0
 544 680 580 644 580 600 c 0
 580 556 544 520 500 520 c 0
 456 520 420 556 420 600 c 0
420 400 m 0
 420 444 456 480 500 480 c 0
 544 480 580 444 580 400 c 0
 580 356 544 320 500 320 c 0
 456 320 420 356 420 400 c 0
420 200 m 0
 420 244 456 280 500 280 c 0
 544 280 580 244 580 200 c 0
 580 156 544 120 500 120 c 0
 456 120 420 156 420 200 c 0
170 0 m 0
 170 44 206 80 250 80 c 0
 294 80 330 44 330 0 c 0
 330 -44 294 -80 250 -80 c 0
 206 -80 170 -44 170 0 c 0
468 0 m 1024
EndSplineSet
Validated: 1
EndChar

StartChar: uni287A
Encoding: 10362 10362 195
Width: 750
GlyphClass: 2
Flags: W
LayerCount: 2
Fore
SplineSet
170 400 m 0
 170 444 206 480 250 480 c 0
 294 480 330 444 330 400 c 0
 330 356 294 320 250 320 c 0
 206 320 170 356 170 400 c 0
420 600 m 0
 420 644 456 680 500 680 c 0
 544 680 580 644 580 600 c 0
 580 556 544 520 500 520 c 0
 456 520 420 556 420 600 c 0
420 400 m 0
 420 444 456 480 500 480 c 0
 544 480 580 444 580 400 c 0
 580 356 544 320 500 320 c 0
 456 320 420 356 420 400 c 0
420 200 m 0
 420 244 456 280 500 280 c 0
 544 280 580 244 580 200 c 0
 580 156 544 120 500 120 c 0
 456 120 420 156 420 200 c 0
170 0 m 0
 170 44 206 80 250 80 c 0
 294 80 330 44 330 0 c 0
 330 -44 294 -80 250 -80 c 0
 206 -80 170 -44 170 0 c 0
468 0 m 1024
EndSplineSet
Validated: 1
EndChar

StartChar: uni287B
Encoding: 10363 10363 196
Width: 750
GlyphClass: 2
Flags: W
LayerCount: 2
Fore
SplineSet
170 600 m 0
 170 644 206 680 250 680 c 0
 294 680 330 644 330 600 c 0
 330 556 294 520 250 520 c 0
 206 520 170 556 170 600 c 0
170 400 m 0
 170 444 206 480 250 480 c 0
 294 480 330 444 330 400 c 0
 330 356 294 320 250 320 c 0
 206 320 170 356 170 400 c 0
420 600 m 0
 420 644 456 680 500 680 c 0
 544 680 580 644 580 600 c 0
 580 556 544 520 500 520 c 0
 456 520 420 556 420 600 c 0
420 400 m 0
 420 444 456 480 500 480 c 0
 544 480 580 444 580 400 c 0
 580 356 544 320 500 320 c 0
 456 320 420 356 420 400 c 0
420 200 m 0
 420 244 456 280 500 280 c 0
 544 280 580 244 580 200 c 0
 580 156 544 120 500 120 c 0
 456 120 420 156 420 200 c 0
170 0 m 0
 170 44 206 80 250 80 c 0
 294 80 330 44 330 0 c 0
 330 -44 294 -80 250 -80 c 0
 206 -80 170 -44 170 0 c 0
468 0 m 1024
EndSplineSet
Validated: 1
EndChar

StartChar: uni287C
Encoding: 10364 10364 197
Width: 750
GlyphClass: 2
Flags: W
LayerCount: 2
Fore
SplineSet
170 200 m 0
 170 244 206 280 250 280 c 0
 294 280 330 244 330 200 c 0
 330 156 294 120 250 120 c 0
 206 120 170 156 170 200 c 0
420 600 m 0
 420 644 456 680 500 680 c 0
 544 680 580 644 580 600 c 0
 580 556 544 520 500 520 c 0
 456 520 420 556 420 600 c 0
420 400 m 0
 420 444 456 480 500 480 c 0
 544 480 580 444 580 400 c 0
 580 356 544 320 500 320 c 0
 456 320 420 356 420 400 c 0
420 200 m 0
 420 244 456 280 500 280 c 0
 544 280 580 244 580 200 c 0
 580 156 544 120 500 120 c 0
 456 120 420 156 420 200 c 0
170 0 m 0
 170 44 206 80 250 80 c 0
 294 80 330 44 330 0 c 0
 330 -44 294 -80 250 -80 c 0
 206 -80 170 -44 170 0 c 0
468 0 m 1024
EndSplineSet
Validated: 1
EndChar

StartChar: uni287D
Encoding: 10365 10365 198
Width: 750
GlyphClass: 2
Flags: W
LayerCount: 2
Fore
SplineSet
170 600 m 0
 170 644 206 680 250 680 c 0
 294 680 330 644 330 600 c 0
 330 556 294 520 250 520 c 0
 206 520 170 556 170 600 c 0
170 200 m 0
 170 244 206 280 250 280 c 0
 294 280 330 244 330 200 c 0
 330 156 294 120 250 120 c 0
 206 120 170 156 170 200 c 0
420 600 m 0
 420 644 456 680 500 680 c 0
 544 680 580 644 580 600 c 0
 580 556 544 520 500 520 c 0
 456 520 420 556 420 600 c 0
420 400 m 0
 420 444 456 480 500 480 c 0
 544 480 580 444 580 400 c 0
 580 356 544 320 500 320 c 0
 456 320 420 356 420 400 c 0
420 200 m 0
 420 244 456 280 500 280 c 0
 544 280 580 244 580 200 c 0
 580 156 544 120 500 120 c 0
 456 120 420 156 420 200 c 0
170 0 m 0
 170 44 206 80 250 80 c 0
 294 80 330 44 330 0 c 0
 330 -44 294 -80 250 -80 c 0
 206 -80 170 -44 170 0 c 0
468 0 m 1024
EndSplineSet
Validated: 1
EndChar

StartChar: uni287E
Encoding: 10366 10366 199
Width: 750
GlyphClass: 2
Flags: W
LayerCount: 2
Fore
SplineSet
170 400 m 0
 170 444 206 480 250 480 c 0
 294 480 330 444 330 400 c 0
 330 356 294 320 250 320 c 0
 206 320 170 356 170 400 c 0
170 200 m 0
 170 244 206 280 250 280 c 0
 294 280 330 244 330 200 c 0
 330 156 294 120 250 120 c 0
 206 120 170 156 170 200 c 0
420 600 m 0
 420 644 456 680 500 680 c 0
 544 680 580 644 580 600 c 0
 580 556 544 520 500 520 c 0
 456 520 420 556 420 600 c 0
420 400 m 0
 420 444 456 480 500 480 c 0
 544 480 580 444 580 400 c 0
 580 356 544 320 500 320 c 0
 456 320 420 356 420 400 c 0
420 200 m 0
 420 244 456 280 500 280 c 0
 544 280 580 244 580 200 c 0
 580 156 544 120 500 120 c 0
 456 120 420 156 420 200 c 0
170 0 m 0
 170 44 206 80 250 80 c 0
 294 80 330 44 330 0 c 0
 330 -44 294 -80 250 -80 c 0
 206 -80 170 -44 170 0 c 0
468 0 m 1024
EndSplineSet
Validated: 1
EndChar

StartChar: uni287F
Encoding: 10367 10367 200
Width: 750
GlyphClass: 2
Flags: W
LayerCount: 2
Fore
SplineSet
170 600 m 0
 170 644 206 680 250 680 c 0
 294 680 330 644 330 600 c 0
 330 556 294 520 250 520 c 0
 206 520 170 556 170 600 c 0
170 400 m 0
 170 444 206 480 250 480 c 0
 294 480 330 444 330 400 c 0
 330 356 294 320 250 320 c 0
 206 320 170 356 170 400 c 0
170 200 m 0
 170 244 206 280 250 280 c 0
 294 280 330 244 330 200 c 0
 330 156 294 120 250 120 c 0
 206 120 170 156 170 200 c 0
420 600 m 0
 420 644 456 680 500 680 c 0
 544 680 580 644 580 600 c 0
 580 556 544 520 500 520 c 0
 456 520 420 556 420 600 c 0
420 400 m 0
 420 444 456 480 500 480 c 0
 544 480 580 444 580 400 c 0
 580 356 544 320 500 320 c 0
 456 320 420 356 420 400 c 0
420 200 m 0
 420 244 456 280 500 280 c 0
 544 280 580 244 580 200 c 0
 580 156 544 120 500 120 c 0
 456 120 420 156 420 200 c 0
170 0 m 0
 170 44 206 80 250 80 c 0
 294 80 330 44 330 0 c 0
 330 -44 294 -80 250 -80 c 0
 206 -80 170 -44 170 0 c 0
468 0 m 1024
EndSplineSet
Validated: 1
EndChar

StartChar: uni2880
Encoding: 10368 10368 201
Width: 750
GlyphClass: 2
Flags: W
LayerCount: 2
Fore
SplineSet
420 0 m 0
 420 44 456 80 500 80 c 0
 544 80 580 44 580 0 c 0
 580 -44 544 -80 500 -80 c 0
 456 -80 420 -44 420 0 c 0
EndSplineSet
Validated: 1
EndChar

StartChar: uni2881
Encoding: 10369 10369 202
Width: 750
GlyphClass: 2
Flags: W
LayerCount: 2
Fore
SplineSet
170 600 m 0
 170 644 206 680 250 680 c 0
 294 680 330 644 330 600 c 0
 330 556 294 520 250 520 c 0
 206 520 170 556 170 600 c 0
420 0 m 0
 420 44 456 80 500 80 c 0
 544 80 580 44 580 0 c 0
 580 -44 544 -80 500 -80 c 0
 456 -80 420 -44 420 0 c 0
EndSplineSet
Validated: 1
EndChar

StartChar: uni2882
Encoding: 10370 10370 203
Width: 750
GlyphClass: 2
Flags: W
LayerCount: 2
Fore
SplineSet
170 400 m 0
 170 444 206 480 250 480 c 0
 294 480 330 444 330 400 c 0
 330 356 294 320 250 320 c 0
 206 320 170 356 170 400 c 0
420 0 m 0
 420 44 456 80 500 80 c 0
 544 80 580 44 580 0 c 0
 580 -44 544 -80 500 -80 c 0
 456 -80 420 -44 420 0 c 0
EndSplineSet
Validated: 1
EndChar

StartChar: uni2883
Encoding: 10371 10371 204
Width: 750
GlyphClass: 2
Flags: W
LayerCount: 2
Fore
SplineSet
170 600 m 0
 170 644 206 680 250 680 c 0
 294 680 330 644 330 600 c 0
 330 556 294 520 250 520 c 0
 206 520 170 556 170 600 c 0
170 400 m 0
 170 444 206 480 250 480 c 0
 294 480 330 444 330 400 c 0
 330 356 294 320 250 320 c 0
 206 320 170 356 170 400 c 0
420 0 m 0
 420 44 456 80 500 80 c 0
 544 80 580 44 580 0 c 0
 580 -44 544 -80 500 -80 c 0
 456 -80 420 -44 420 0 c 0
EndSplineSet
Validated: 1
EndChar

StartChar: uni2884
Encoding: 10372 10372 205
Width: 750
GlyphClass: 2
Flags: W
LayerCount: 2
Fore
SplineSet
170 200 m 0
 170 244 206 280 250 280 c 0
 294 280 330 244 330 200 c 0
 330 156 294 120 250 120 c 0
 206 120 170 156 170 200 c 0
420 0 m 0
 420 44 456 80 500 80 c 0
 544 80 580 44 580 0 c 0
 580 -44 544 -80 500 -80 c 0
 456 -80 420 -44 420 0 c 0
EndSplineSet
Validated: 1
EndChar

StartChar: uni2885
Encoding: 10373 10373 206
Width: 750
GlyphClass: 2
Flags: W
LayerCount: 2
Fore
SplineSet
170 600 m 0
 170 644 206 680 250 680 c 0
 294 680 330 644 330 600 c 0
 330 556 294 520 250 520 c 0
 206 520 170 556 170 600 c 0
170 200 m 0
 170 244 206 280 250 280 c 0
 294 280 330 244 330 200 c 0
 330 156 294 120 250 120 c 0
 206 120 170 156 170 200 c 0
420 0 m 0
 420 44 456 80 500 80 c 0
 544 80 580 44 580 0 c 0
 580 -44 544 -80 500 -80 c 0
 456 -80 420 -44 420 0 c 0
EndSplineSet
Validated: 1
EndChar

StartChar: uni2886
Encoding: 10374 10374 207
Width: 750
GlyphClass: 2
Flags: W
LayerCount: 2
Fore
SplineSet
170 400 m 0
 170 444 206 480 250 480 c 0
 294 480 330 444 330 400 c 0
 330 356 294 320 250 320 c 0
 206 320 170 356 170 400 c 0
170 200 m 0
 170 244 206 280 250 280 c 0
 294 280 330 244 330 200 c 0
 330 156 294 120 250 120 c 0
 206 120 170 156 170 200 c 0
420 0 m 0
 420 44 456 80 500 80 c 0
 544 80 580 44 580 0 c 0
 580 -44 544 -80 500 -80 c 0
 456 -80 420 -44 420 0 c 0
EndSplineSet
Validated: 1
EndChar

StartChar: uni2887
Encoding: 10375 10375 208
Width: 750
GlyphClass: 2
Flags: W
LayerCount: 2
Fore
SplineSet
170 600 m 0
 170 644 206 680 250 680 c 0
 294 680 330 644 330 600 c 0
 330 556 294 520 250 520 c 0
 206 520 170 556 170 600 c 0
170 400 m 0
 170 444 206 480 250 480 c 0
 294 480 330 444 330 400 c 0
 330 356 294 320 250 320 c 0
 206 320 170 356 170 400 c 0
170 200 m 0
 170 244 206 280 250 280 c 0
 294 280 330 244 330 200 c 0
 330 156 294 120 250 120 c 0
 206 120 170 156 170 200 c 0
420 0 m 0
 420 44 456 80 500 80 c 0
 544 80 580 44 580 0 c 0
 580 -44 544 -80 500 -80 c 0
 456 -80 420 -44 420 0 c 0
EndSplineSet
Validated: 1
EndChar

StartChar: uni2888
Encoding: 10376 10376 209
Width: 750
GlyphClass: 2
Flags: W
LayerCount: 2
Fore
SplineSet
420 600 m 0
 420 644 456 680 500 680 c 0
 544 680 580 644 580 600 c 0
 580 556 544 520 500 520 c 0
 456 520 420 556 420 600 c 0
420 0 m 0
 420 44 456 80 500 80 c 0
 544 80 580 44 580 0 c 0
 580 -44 544 -80 500 -80 c 0
 456 -80 420 -44 420 0 c 0
EndSplineSet
Validated: 1
EndChar

StartChar: uni2889
Encoding: 10377 10377 210
Width: 750
GlyphClass: 2
Flags: W
LayerCount: 2
Fore
SplineSet
170 600 m 0
 170 644 206 680 250 680 c 0
 294 680 330 644 330 600 c 0
 330 556 294 520 250 520 c 0
 206 520 170 556 170 600 c 0
420 600 m 0
 420 644 456 680 500 680 c 0
 544 680 580 644 580 600 c 0
 580 556 544 520 500 520 c 0
 456 520 420 556 420 600 c 0
420 0 m 0
 420 44 456 80 500 80 c 0
 544 80 580 44 580 0 c 0
 580 -44 544 -80 500 -80 c 0
 456 -80 420 -44 420 0 c 0
EndSplineSet
Validated: 1
EndChar

StartChar: uni288A
Encoding: 10378 10378 211
Width: 750
GlyphClass: 2
Flags: W
LayerCount: 2
Fore
SplineSet
170 400 m 0
 170 444 206 480 250 480 c 0
 294 480 330 444 330 400 c 0
 330 356 294 320 250 320 c 0
 206 320 170 356 170 400 c 0
420 600 m 0
 420 644 456 680 500 680 c 0
 544 680 580 644 580 600 c 0
 580 556 544 520 500 520 c 0
 456 520 420 556 420 600 c 0
420 0 m 0
 420 44 456 80 500 80 c 0
 544 80 580 44 580 0 c 0
 580 -44 544 -80 500 -80 c 0
 456 -80 420 -44 420 0 c 0
EndSplineSet
Validated: 1
EndChar

StartChar: uni288B
Encoding: 10379 10379 212
Width: 750
GlyphClass: 2
Flags: W
LayerCount: 2
Fore
SplineSet
170 600 m 0
 170 644 206 680 250 680 c 0
 294 680 330 644 330 600 c 0
 330 556 294 520 250 520 c 0
 206 520 170 556 170 600 c 0
170 400 m 0
 170 444 206 480 250 480 c 0
 294 480 330 444 330 400 c 0
 330 356 294 320 250 320 c 0
 206 320 170 356 170 400 c 0
420 600 m 0
 420 644 456 680 500 680 c 0
 544 680 580 644 580 600 c 0
 580 556 544 520 500 520 c 0
 456 520 420 556 420 600 c 0
420 0 m 0
 420 44 456 80 500 80 c 0
 544 80 580 44 580 0 c 0
 580 -44 544 -80 500 -80 c 0
 456 -80 420 -44 420 0 c 0
EndSplineSet
Validated: 1
EndChar

StartChar: uni288C
Encoding: 10380 10380 213
Width: 750
GlyphClass: 2
Flags: W
LayerCount: 2
Fore
SplineSet
170 200 m 0
 170 244 206 280 250 280 c 0
 294 280 330 244 330 200 c 0
 330 156 294 120 250 120 c 0
 206 120 170 156 170 200 c 0
420 600 m 0
 420 644 456 680 500 680 c 0
 544 680 580 644 580 600 c 0
 580 556 544 520 500 520 c 0
 456 520 420 556 420 600 c 0
420 0 m 0
 420 44 456 80 500 80 c 0
 544 80 580 44 580 0 c 0
 580 -44 544 -80 500 -80 c 0
 456 -80 420 -44 420 0 c 0
EndSplineSet
Validated: 1
EndChar

StartChar: uni288D
Encoding: 10381 10381 214
Width: 750
GlyphClass: 2
Flags: W
LayerCount: 2
Fore
SplineSet
170 600 m 0
 170 644 206 680 250 680 c 0
 294 680 330 644 330 600 c 0
 330 556 294 520 250 520 c 0
 206 520 170 556 170 600 c 0
170 200 m 0
 170 244 206 280 250 280 c 0
 294 280 330 244 330 200 c 0
 330 156 294 120 250 120 c 0
 206 120 170 156 170 200 c 0
420 600 m 0
 420 644 456 680 500 680 c 0
 544 680 580 644 580 600 c 0
 580 556 544 520 500 520 c 0
 456 520 420 556 420 600 c 0
420 0 m 0
 420 44 456 80 500 80 c 0
 544 80 580 44 580 0 c 0
 580 -44 544 -80 500 -80 c 0
 456 -80 420 -44 420 0 c 0
EndSplineSet
Validated: 1
EndChar

StartChar: uni288E
Encoding: 10382 10382 215
Width: 750
GlyphClass: 2
Flags: W
LayerCount: 2
Fore
SplineSet
170 400 m 0
 170 444 206 480 250 480 c 0
 294 480 330 444 330 400 c 0
 330 356 294 320 250 320 c 0
 206 320 170 356 170 400 c 0
170 200 m 0
 170 244 206 280 250 280 c 0
 294 280 330 244 330 200 c 0
 330 156 294 120 250 120 c 0
 206 120 170 156 170 200 c 0
420 600 m 0
 420 644 456 680 500 680 c 0
 544 680 580 644 580 600 c 0
 580 556 544 520 500 520 c 0
 456 520 420 556 420 600 c 0
420 0 m 0
 420 44 456 80 500 80 c 0
 544 80 580 44 580 0 c 0
 580 -44 544 -80 500 -80 c 0
 456 -80 420 -44 420 0 c 0
EndSplineSet
Validated: 1
EndChar

StartChar: uni288F
Encoding: 10383 10383 216
Width: 750
GlyphClass: 2
Flags: W
LayerCount: 2
Fore
SplineSet
170 600 m 0
 170 644 206 680 250 680 c 0
 294 680 330 644 330 600 c 0
 330 556 294 520 250 520 c 0
 206 520 170 556 170 600 c 0
170 400 m 0
 170 444 206 480 250 480 c 0
 294 480 330 444 330 400 c 0
 330 356 294 320 250 320 c 0
 206 320 170 356 170 400 c 0
170 200 m 0
 170 244 206 280 250 280 c 0
 294 280 330 244 330 200 c 0
 330 156 294 120 250 120 c 0
 206 120 170 156 170 200 c 0
420 600 m 0
 420 644 456 680 500 680 c 0
 544 680 580 644 580 600 c 0
 580 556 544 520 500 520 c 0
 456 520 420 556 420 600 c 0
420 0 m 0
 420 44 456 80 500 80 c 0
 544 80 580 44 580 0 c 0
 580 -44 544 -80 500 -80 c 0
 456 -80 420 -44 420 0 c 0
EndSplineSet
Validated: 1
EndChar

StartChar: uni2890
Encoding: 10384 10384 217
Width: 750
GlyphClass: 2
Flags: W
LayerCount: 2
Fore
SplineSet
420 400 m 0
 420 444 456 480 500 480 c 0
 544 480 580 444 580 400 c 0
 580 356 544 320 500 320 c 0
 456 320 420 356 420 400 c 0
420 0 m 0
 420 44 456 80 500 80 c 0
 544 80 580 44 580 0 c 0
 580 -44 544 -80 500 -80 c 0
 456 -80 420 -44 420 0 c 0
EndSplineSet
Validated: 1
EndChar

StartChar: uni2891
Encoding: 10385 10385 218
Width: 750
GlyphClass: 2
Flags: W
LayerCount: 2
Fore
SplineSet
170 600 m 0
 170 644 206 680 250 680 c 0
 294 680 330 644 330 600 c 0
 330 556 294 520 250 520 c 0
 206 520 170 556 170 600 c 0
420 400 m 0
 420 444 456 480 500 480 c 0
 544 480 580 444 580 400 c 0
 580 356 544 320 500 320 c 0
 456 320 420 356 420 400 c 0
420 0 m 0
 420 44 456 80 500 80 c 0
 544 80 580 44 580 0 c 0
 580 -44 544 -80 500 -80 c 0
 456 -80 420 -44 420 0 c 0
EndSplineSet
Validated: 1
EndChar

StartChar: uni2892
Encoding: 10386 10386 219
Width: 750
GlyphClass: 2
Flags: W
LayerCount: 2
Fore
SplineSet
170 400 m 0
 170 444 206 480 250 480 c 0
 294 480 330 444 330 400 c 0
 330 356 294 320 250 320 c 0
 206 320 170 356 170 400 c 0
420 400 m 0
 420 444 456 480 500 480 c 0
 544 480 580 444 580 400 c 0
 580 356 544 320 500 320 c 0
 456 320 420 356 420 400 c 0
420 0 m 0
 420 44 456 80 500 80 c 0
 544 80 580 44 580 0 c 0
 580 -44 544 -80 500 -80 c 0
 456 -80 420 -44 420 0 c 0
EndSplineSet
Validated: 1
EndChar

StartChar: uni2893
Encoding: 10387 10387 220
Width: 750
GlyphClass: 2
Flags: W
LayerCount: 2
Fore
SplineSet
170 600 m 0
 170 644 206 680 250 680 c 0
 294 680 330 644 330 600 c 0
 330 556 294 520 250 520 c 0
 206 520 170 556 170 600 c 0
170 400 m 0
 170 444 206 480 250 480 c 0
 294 480 330 444 330 400 c 0
 330 356 294 320 250 320 c 0
 206 320 170 356 170 400 c 0
420 400 m 0
 420 444 456 480 500 480 c 0
 544 480 580 444 580 400 c 0
 580 356 544 320 500 320 c 0
 456 320 420 356 420 400 c 0
420 0 m 0
 420 44 456 80 500 80 c 0
 544 80 580 44 580 0 c 0
 580 -44 544 -80 500 -80 c 0
 456 -80 420 -44 420 0 c 0
EndSplineSet
Validated: 1
EndChar

StartChar: uni2894
Encoding: 10388 10388 221
Width: 750
GlyphClass: 2
Flags: W
LayerCount: 2
Fore
SplineSet
170 200 m 0
 170 244 206 280 250 280 c 0
 294 280 330 244 330 200 c 0
 330 156 294 120 250 120 c 0
 206 120 170 156 170 200 c 0
420 400 m 0
 420 444 456 480 500 480 c 0
 544 480 580 444 580 400 c 0
 580 356 544 320 500 320 c 0
 456 320 420 356 420 400 c 0
420 0 m 0
 420 44 456 80 500 80 c 0
 544 80 580 44 580 0 c 0
 580 -44 544 -80 500 -80 c 0
 456 -80 420 -44 420 0 c 0
EndSplineSet
Validated: 1
EndChar

StartChar: uni2895
Encoding: 10389 10389 222
Width: 750
GlyphClass: 2
Flags: W
LayerCount: 2
Fore
SplineSet
170 600 m 0
 170 644 206 680 250 680 c 0
 294 680 330 644 330 600 c 0
 330 556 294 520 250 520 c 0
 206 520 170 556 170 600 c 0
170 200 m 0
 170 244 206 280 250 280 c 0
 294 280 330 244 330 200 c 0
 330 156 294 120 250 120 c 0
 206 120 170 156 170 200 c 0
420 400 m 0
 420 444 456 480 500 480 c 0
 544 480 580 444 580 400 c 0
 580 356 544 320 500 320 c 0
 456 320 420 356 420 400 c 0
420 0 m 0
 420 44 456 80 500 80 c 0
 544 80 580 44 580 0 c 0
 580 -44 544 -80 500 -80 c 0
 456 -80 420 -44 420 0 c 0
EndSplineSet
Validated: 1
EndChar

StartChar: uni2896
Encoding: 10390 10390 223
Width: 750
GlyphClass: 2
Flags: W
LayerCount: 2
Fore
SplineSet
170 400 m 0
 170 444 206 480 250 480 c 0
 294 480 330 444 330 400 c 0
 330 356 294 320 250 320 c 0
 206 320 170 356 170 400 c 0
170 200 m 0
 170 244 206 280 250 280 c 0
 294 280 330 244 330 200 c 0
 330 156 294 120 250 120 c 0
 206 120 170 156 170 200 c 0
420 400 m 0
 420 444 456 480 500 480 c 0
 544 480 580 444 580 400 c 0
 580 356 544 320 500 320 c 0
 456 320 420 356 420 400 c 0
420 0 m 0
 420 44 456 80 500 80 c 0
 544 80 580 44 580 0 c 0
 580 -44 544 -80 500 -80 c 0
 456 -80 420 -44 420 0 c 0
EndSplineSet
Validated: 1
EndChar

StartChar: uni2897
Encoding: 10391 10391 224
Width: 750
GlyphClass: 2
Flags: W
LayerCount: 2
Fore
SplineSet
170 600 m 0
 170 644 206 680 250 680 c 0
 294 680 330 644 330 600 c 0
 330 556 294 520 250 520 c 0
 206 520 170 556 170 600 c 0
170 400 m 0
 170 444 206 480 250 480 c 0
 294 480 330 444 330 400 c 0
 330 356 294 320 250 320 c 0
 206 320 170 356 170 400 c 0
170 200 m 0
 170 244 206 280 250 280 c 0
 294 280 330 244 330 200 c 0
 330 156 294 120 250 120 c 0
 206 120 170 156 170 200 c 0
420 400 m 0
 420 444 456 480 500 480 c 0
 544 480 580 444 580 400 c 0
 580 356 544 320 500 320 c 0
 456 320 420 356 420 400 c 0
420 0 m 0
 420 44 456 80 500 80 c 0
 544 80 580 44 580 0 c 0
 580 -44 544 -80 500 -80 c 0
 456 -80 420 -44 420 0 c 0
EndSplineSet
Validated: 1
EndChar

StartChar: uni2898
Encoding: 10392 10392 225
Width: 750
GlyphClass: 2
Flags: W
LayerCount: 2
Fore
SplineSet
420 600 m 0
 420 644 456 680 500 680 c 0
 544 680 580 644 580 600 c 0
 580 556 544 520 500 520 c 0
 456 520 420 556 420 600 c 0
420 400 m 0
 420 444 456 480 500 480 c 0
 544 480 580 444 580 400 c 0
 580 356 544 320 500 320 c 0
 456 320 420 356 420 400 c 0
420 0 m 0
 420 44 456 80 500 80 c 0
 544 80 580 44 580 0 c 0
 580 -44 544 -80 500 -80 c 0
 456 -80 420 -44 420 0 c 0
EndSplineSet
Validated: 1
EndChar

StartChar: uni2899
Encoding: 10393 10393 226
Width: 750
GlyphClass: 2
Flags: W
LayerCount: 2
Fore
SplineSet
170 600 m 0
 170 644 206 680 250 680 c 0
 294 680 330 644 330 600 c 0
 330 556 294 520 250 520 c 0
 206 520 170 556 170 600 c 0
420 600 m 0
 420 644 456 680 500 680 c 0
 544 680 580 644 580 600 c 0
 580 556 544 520 500 520 c 0
 456 520 420 556 420 600 c 0
420 400 m 0
 420 444 456 480 500 480 c 0
 544 480 580 444 580 400 c 0
 580 356 544 320 500 320 c 0
 456 320 420 356 420 400 c 0
420 0 m 0
 420 44 456 80 500 80 c 0
 544 80 580 44 580 0 c 0
 580 -44 544 -80 500 -80 c 0
 456 -80 420 -44 420 0 c 0
EndSplineSet
Validated: 1
EndChar

StartChar: uni289A
Encoding: 10394 10394 227
Width: 750
GlyphClass: 2
Flags: W
LayerCount: 2
Fore
SplineSet
170 400 m 0
 170 444 206 480 250 480 c 0
 294 480 330 444 330 400 c 0
 330 356 294 320 250 320 c 0
 206 320 170 356 170 400 c 0
420 600 m 0
 420 644 456 680 500 680 c 0
 544 680 580 644 580 600 c 0
 580 556 544 520 500 520 c 0
 456 520 420 556 420 600 c 0
420 400 m 0
 420 444 456 480 500 480 c 0
 544 480 580 444 580 400 c 0
 580 356 544 320 500 320 c 0
 456 320 420 356 420 400 c 0
420 0 m 0
 420 44 456 80 500 80 c 0
 544 80 580 44 580 0 c 0
 580 -44 544 -80 500 -80 c 0
 456 -80 420 -44 420 0 c 0
EndSplineSet
Validated: 1
EndChar

StartChar: uni289B
Encoding: 10395 10395 228
Width: 750
GlyphClass: 2
Flags: W
LayerCount: 2
Fore
SplineSet
170 600 m 0
 170 644 206 680 250 680 c 0
 294 680 330 644 330 600 c 0
 330 556 294 520 250 520 c 0
 206 520 170 556 170 600 c 0
170 400 m 0
 170 444 206 480 250 480 c 0
 294 480 330 444 330 400 c 0
 330 356 294 320 250 320 c 0
 206 320 170 356 170 400 c 0
420 600 m 0
 420 644 456 680 500 680 c 0
 544 680 580 644 580 600 c 0
 580 556 544 520 500 520 c 0
 456 520 420 556 420 600 c 0
420 400 m 0
 420 444 456 480 500 480 c 0
 544 480 580 444 580 400 c 0
 580 356 544 320 500 320 c 0
 456 320 420 356 420 400 c 0
420 0 m 0
 420 44 456 80 500 80 c 0
 544 80 580 44 580 0 c 0
 580 -44 544 -80 500 -80 c 0
 456 -80 420 -44 420 0 c 0
EndSplineSet
Validated: 1
EndChar

StartChar: uni289C
Encoding: 10396 10396 229
Width: 750
GlyphClass: 2
Flags: W
LayerCount: 2
Fore
SplineSet
170 200 m 0
 170 244 206 280 250 280 c 0
 294 280 330 244 330 200 c 0
 330 156 294 120 250 120 c 0
 206 120 170 156 170 200 c 0
420 600 m 0
 420 644 456 680 500 680 c 0
 544 680 580 644 580 600 c 0
 580 556 544 520 500 520 c 0
 456 520 420 556 420 600 c 0
420 400 m 0
 420 444 456 480 500 480 c 0
 544 480 580 444 580 400 c 0
 580 356 544 320 500 320 c 0
 456 320 420 356 420 400 c 0
420 0 m 0
 420 44 456 80 500 80 c 0
 544 80 580 44 580 0 c 0
 580 -44 544 -80 500 -80 c 0
 456 -80 420 -44 420 0 c 0
EndSplineSet
Validated: 1
EndChar

StartChar: uni289D
Encoding: 10397 10397 230
Width: 750
GlyphClass: 2
Flags: W
LayerCount: 2
Fore
SplineSet
170 600 m 0
 170 644 206 680 250 680 c 0
 294 680 330 644 330 600 c 0
 330 556 294 520 250 520 c 0
 206 520 170 556 170 600 c 0
170 200 m 0
 170 244 206 280 250 280 c 0
 294 280 330 244 330 200 c 0
 330 156 294 120 250 120 c 0
 206 120 170 156 170 200 c 0
420 600 m 0
 420 644 456 680 500 680 c 0
 544 680 580 644 580 600 c 0
 580 556 544 520 500 520 c 0
 456 520 420 556 420 600 c 0
420 400 m 0
 420 444 456 480 500 480 c 0
 544 480 580 444 580 400 c 0
 580 356 544 320 500 320 c 0
 456 320 420 356 420 400 c 0
420 0 m 0
 420 44 456 80 500 80 c 0
 544 80 580 44 580 0 c 0
 580 -44 544 -80 500 -80 c 0
 456 -80 420 -44 420 0 c 0
EndSplineSet
Validated: 1
EndChar

StartChar: uni289E
Encoding: 10398 10398 231
Width: 750
GlyphClass: 2
Flags: W
LayerCount: 2
Fore
SplineSet
170 400 m 0
 170 444 206 480 250 480 c 0
 294 480 330 444 330 400 c 0
 330 356 294 320 250 320 c 0
 206 320 170 356 170 400 c 0
170 200 m 0
 170 244 206 280 250 280 c 0
 294 280 330 244 330 200 c 0
 330 156 294 120 250 120 c 0
 206 120 170 156 170 200 c 0
420 600 m 0
 420 644 456 680 500 680 c 0
 544 680 580 644 580 600 c 0
 580 556 544 520 500 520 c 0
 456 520 420 556 420 600 c 0
420 400 m 0
 420 444 456 480 500 480 c 0
 544 480 580 444 580 400 c 0
 580 356 544 320 500 320 c 0
 456 320 420 356 420 400 c 0
420 0 m 0
 420 44 456 80 500 80 c 0
 544 80 580 44 580 0 c 0
 580 -44 544 -80 500 -80 c 0
 456 -80 420 -44 420 0 c 0
EndSplineSet
Validated: 1
EndChar

StartChar: uni289F
Encoding: 10399 10399 232
Width: 750
GlyphClass: 2
Flags: W
LayerCount: 2
Fore
SplineSet
170 600 m 0
 170 644 206 680 250 680 c 0
 294 680 330 644 330 600 c 0
 330 556 294 520 250 520 c 0
 206 520 170 556 170 600 c 0
170 400 m 0
 170 444 206 480 250 480 c 0
 294 480 330 444 330 400 c 0
 330 356 294 320 250 320 c 0
 206 320 170 356 170 400 c 0
170 200 m 0
 170 244 206 280 250 280 c 0
 294 280 330 244 330 200 c 0
 330 156 294 120 250 120 c 0
 206 120 170 156 170 200 c 0
420 600 m 0
 420 644 456 680 500 680 c 0
 544 680 580 644 580 600 c 0
 580 556 544 520 500 520 c 0
 456 520 420 556 420 600 c 0
420 400 m 0
 420 444 456 480 500 480 c 0
 544 480 580 444 580 400 c 0
 580 356 544 320 500 320 c 0
 456 320 420 356 420 400 c 0
420 0 m 0
 420 44 456 80 500 80 c 0
 544 80 580 44 580 0 c 0
 580 -44 544 -80 500 -80 c 0
 456 -80 420 -44 420 0 c 0
EndSplineSet
Validated: 1
EndChar

StartChar: uni28A0
Encoding: 10400 10400 233
Width: 750
GlyphClass: 2
Flags: W
LayerCount: 2
Fore
SplineSet
420 200 m 0
 420 244 456 280 500 280 c 0
 544 280 580 244 580 200 c 0
 580 156 544 120 500 120 c 0
 456 120 420 156 420 200 c 0
420 0 m 0
 420 44 456 80 500 80 c 0
 544 80 580 44 580 0 c 0
 580 -44 544 -80 500 -80 c 0
 456 -80 420 -44 420 0 c 0
EndSplineSet
Validated: 1
EndChar

StartChar: uni28A1
Encoding: 10401 10401 234
Width: 750
GlyphClass: 2
Flags: W
LayerCount: 2
Fore
SplineSet
170 600 m 0
 170 644 206 680 250 680 c 0
 294 680 330 644 330 600 c 0
 330 556 294 520 250 520 c 0
 206 520 170 556 170 600 c 0
420 200 m 0
 420 244 456 280 500 280 c 0
 544 280 580 244 580 200 c 0
 580 156 544 120 500 120 c 0
 456 120 420 156 420 200 c 0
420 0 m 0
 420 44 456 80 500 80 c 0
 544 80 580 44 580 0 c 0
 580 -44 544 -80 500 -80 c 0
 456 -80 420 -44 420 0 c 0
EndSplineSet
Validated: 1
EndChar

StartChar: uni28A2
Encoding: 10402 10402 235
Width: 750
GlyphClass: 2
Flags: W
LayerCount: 2
Fore
SplineSet
170 400 m 0
 170 444 206 480 250 480 c 0
 294 480 330 444 330 400 c 0
 330 356 294 320 250 320 c 0
 206 320 170 356 170 400 c 0
420 200 m 0
 420 244 456 280 500 280 c 0
 544 280 580 244 580 200 c 0
 580 156 544 120 500 120 c 0
 456 120 420 156 420 200 c 0
420 0 m 0
 420 44 456 80 500 80 c 0
 544 80 580 44 580 0 c 0
 580 -44 544 -80 500 -80 c 0
 456 -80 420 -44 420 0 c 0
EndSplineSet
Validated: 1
EndChar

StartChar: uni28A3
Encoding: 10403 10403 236
Width: 750
GlyphClass: 2
Flags: W
LayerCount: 2
Fore
SplineSet
170 600 m 0
 170 644 206 680 250 680 c 0
 294 680 330 644 330 600 c 0
 330 556 294 520 250 520 c 0
 206 520 170 556 170 600 c 0
170 400 m 0
 170 444 206 480 250 480 c 0
 294 480 330 444 330 400 c 0
 330 356 294 320 250 320 c 0
 206 320 170 356 170 400 c 0
420 200 m 0
 420 244 456 280 500 280 c 0
 544 280 580 244 580 200 c 0
 580 156 544 120 500 120 c 0
 456 120 420 156 420 200 c 0
420 0 m 0
 420 44 456 80 500 80 c 0
 544 80 580 44 580 0 c 0
 580 -44 544 -80 500 -80 c 0
 456 -80 420 -44 420 0 c 0
EndSplineSet
Validated: 1
EndChar

StartChar: uni28A4
Encoding: 10404 10404 237
Width: 750
GlyphClass: 2
Flags: W
LayerCount: 2
Fore
SplineSet
170 200 m 0
 170 244 206 280 250 280 c 0
 294 280 330 244 330 200 c 0
 330 156 294 120 250 120 c 0
 206 120 170 156 170 200 c 0
420 200 m 0
 420 244 456 280 500 280 c 0
 544 280 580 244 580 200 c 0
 580 156 544 120 500 120 c 0
 456 120 420 156 420 200 c 0
420 0 m 0
 420 44 456 80 500 80 c 0
 544 80 580 44 580 0 c 0
 580 -44 544 -80 500 -80 c 0
 456 -80 420 -44 420 0 c 0
EndSplineSet
Validated: 1
EndChar

StartChar: uni28A5
Encoding: 10405 10405 238
Width: 750
GlyphClass: 2
Flags: W
LayerCount: 2
Fore
SplineSet
170 600 m 0
 170 644 206 680 250 680 c 0
 294 680 330 644 330 600 c 0
 330 556 294 520 250 520 c 0
 206 520 170 556 170 600 c 0
170 200 m 0
 170 244 206 280 250 280 c 0
 294 280 330 244 330 200 c 0
 330 156 294 120 250 120 c 0
 206 120 170 156 170 200 c 0
420 200 m 0
 420 244 456 280 500 280 c 0
 544 280 580 244 580 200 c 0
 580 156 544 120 500 120 c 0
 456 120 420 156 420 200 c 0
420 0 m 0
 420 44 456 80 500 80 c 0
 544 80 580 44 580 0 c 0
 580 -44 544 -80 500 -80 c 0
 456 -80 420 -44 420 0 c 0
EndSplineSet
Validated: 1
EndChar

StartChar: uni28A6
Encoding: 10406 10406 239
Width: 750
GlyphClass: 2
Flags: W
LayerCount: 2
Fore
SplineSet
170 400 m 0
 170 444 206 480 250 480 c 0
 294 480 330 444 330 400 c 0
 330 356 294 320 250 320 c 0
 206 320 170 356 170 400 c 0
170 200 m 0
 170 244 206 280 250 280 c 0
 294 280 330 244 330 200 c 0
 330 156 294 120 250 120 c 0
 206 120 170 156 170 200 c 0
420 200 m 0
 420 244 456 280 500 280 c 0
 544 280 580 244 580 200 c 0
 580 156 544 120 500 120 c 0
 456 120 420 156 420 200 c 0
420 0 m 0
 420 44 456 80 500 80 c 0
 544 80 580 44 580 0 c 0
 580 -44 544 -80 500 -80 c 0
 456 -80 420 -44 420 0 c 0
EndSplineSet
Validated: 1
EndChar

StartChar: uni28A7
Encoding: 10407 10407 240
Width: 750
GlyphClass: 2
Flags: W
LayerCount: 2
Fore
SplineSet
170 600 m 0
 170 644 206 680 250 680 c 0
 294 680 330 644 330 600 c 0
 330 556 294 520 250 520 c 0
 206 520 170 556 170 600 c 0
170 400 m 0
 170 444 206 480 250 480 c 0
 294 480 330 444 330 400 c 0
 330 356 294 320 250 320 c 0
 206 320 170 356 170 400 c 0
170 200 m 0
 170 244 206 280 250 280 c 0
 294 280 330 244 330 200 c 0
 330 156 294 120 250 120 c 0
 206 120 170 156 170 200 c 0
420 200 m 0
 420 244 456 280 500 280 c 0
 544 280 580 244 580 200 c 0
 580 156 544 120 500 120 c 0
 456 120 420 156 420 200 c 0
420 0 m 0
 420 44 456 80 500 80 c 0
 544 80 580 44 580 0 c 0
 580 -44 544 -80 500 -80 c 0
 456 -80 420 -44 420 0 c 0
EndSplineSet
Validated: 1
EndChar

StartChar: uni28A8
Encoding: 10408 10408 241
Width: 750
GlyphClass: 2
Flags: W
LayerCount: 2
Fore
SplineSet
420 600 m 0
 420 644 456 680 500 680 c 0
 544 680 580 644 580 600 c 0
 580 556 544 520 500 520 c 0
 456 520 420 556 420 600 c 0
420 200 m 0
 420 244 456 280 500 280 c 0
 544 280 580 244 580 200 c 0
 580 156 544 120 500 120 c 0
 456 120 420 156 420 200 c 0
420 0 m 0
 420 44 456 80 500 80 c 0
 544 80 580 44 580 0 c 0
 580 -44 544 -80 500 -80 c 0
 456 -80 420 -44 420 0 c 0
EndSplineSet
Validated: 1
EndChar

StartChar: uni28A9
Encoding: 10409 10409 242
Width: 750
GlyphClass: 2
Flags: W
LayerCount: 2
Fore
SplineSet
170 600 m 0
 170 644 206 680 250 680 c 0
 294 680 330 644 330 600 c 0
 330 556 294 520 250 520 c 0
 206 520 170 556 170 600 c 0
420 600 m 0
 420 644 456 680 500 680 c 0
 544 680 580 644 580 600 c 0
 580 556 544 520 500 520 c 0
 456 520 420 556 420 600 c 0
420 200 m 0
 420 244 456 280 500 280 c 0
 544 280 580 244 580 200 c 0
 580 156 544 120 500 120 c 0
 456 120 420 156 420 200 c 0
420 0 m 0
 420 44 456 80 500 80 c 0
 544 80 580 44 580 0 c 0
 580 -44 544 -80 500 -80 c 0
 456 -80 420 -44 420 0 c 0
EndSplineSet
Validated: 1
EndChar

StartChar: uni28AA
Encoding: 10410 10410 243
Width: 750
GlyphClass: 2
Flags: W
LayerCount: 2
Fore
SplineSet
170 400 m 0
 170 444 206 480 250 480 c 0
 294 480 330 444 330 400 c 0
 330 356 294 320 250 320 c 0
 206 320 170 356 170 400 c 0
420 600 m 0
 420 644 456 680 500 680 c 0
 544 680 580 644 580 600 c 0
 580 556 544 520 500 520 c 0
 456 520 420 556 420 600 c 0
420 200 m 0
 420 244 456 280 500 280 c 0
 544 280 580 244 580 200 c 0
 580 156 544 120 500 120 c 0
 456 120 420 156 420 200 c 0
420 0 m 0
 420 44 456 80 500 80 c 0
 544 80 580 44 580 0 c 0
 580 -44 544 -80 500 -80 c 0
 456 -80 420 -44 420 0 c 0
EndSplineSet
Validated: 1
EndChar

StartChar: uni28AB
Encoding: 10411 10411 244
Width: 750
GlyphClass: 2
Flags: W
LayerCount: 2
Fore
SplineSet
170 600 m 0
 170 644 206 680 250 680 c 0
 294 680 330 644 330 600 c 0
 330 556 294 520 250 520 c 0
 206 520 170 556 170 600 c 0
170 400 m 0
 170 444 206 480 250 480 c 0
 294 480 330 444 330 400 c 0
 330 356 294 320 250 320 c 0
 206 320 170 356 170 400 c 0
420 600 m 0
 420 644 456 680 500 680 c 0
 544 680 580 644 580 600 c 0
 580 556 544 520 500 520 c 0
 456 520 420 556 420 600 c 0
420 200 m 0
 420 244 456 280 500 280 c 0
 544 280 580 244 580 200 c 0
 580 156 544 120 500 120 c 0
 456 120 420 156 420 200 c 0
420 0 m 0
 420 44 456 80 500 80 c 0
 544 80 580 44 580 0 c 0
 580 -44 544 -80 500 -80 c 0
 456 -80 420 -44 420 0 c 0
EndSplineSet
Validated: 1
EndChar

StartChar: uni28AC
Encoding: 10412 10412 245
Width: 750
GlyphClass: 2
Flags: W
LayerCount: 2
Fore
SplineSet
170 200 m 0
 170 244 206 280 250 280 c 0
 294 280 330 244 330 200 c 0
 330 156 294 120 250 120 c 0
 206 120 170 156 170 200 c 0
420 600 m 0
 420 644 456 680 500 680 c 0
 544 680 580 644 580 600 c 0
 580 556 544 520 500 520 c 0
 456 520 420 556 420 600 c 0
420 200 m 0
 420 244 456 280 500 280 c 0
 544 280 580 244 580 200 c 0
 580 156 544 120 500 120 c 0
 456 120 420 156 420 200 c 0
420 0 m 0
 420 44 456 80 500 80 c 0
 544 80 580 44 580 0 c 0
 580 -44 544 -80 500 -80 c 0
 456 -80 420 -44 420 0 c 0
EndSplineSet
Validated: 1
EndChar

StartChar: uni28AD
Encoding: 10413 10413 246
Width: 750
GlyphClass: 2
Flags: W
LayerCount: 2
Fore
SplineSet
170 600 m 0
 170 644 206 680 250 680 c 0
 294 680 330 644 330 600 c 0
 330 556 294 520 250 520 c 0
 206 520 170 556 170 600 c 0
170 200 m 0
 170 244 206 280 250 280 c 0
 294 280 330 244 330 200 c 0
 330 156 294 120 250 120 c 0
 206 120 170 156 170 200 c 0
420 600 m 0
 420 644 456 680 500 680 c 0
 544 680 580 644 580 600 c 0
 580 556 544 520 500 520 c 0
 456 520 420 556 420 600 c 0
420 200 m 0
 420 244 456 280 500 280 c 0
 544 280 580 244 580 200 c 0
 580 156 544 120 500 120 c 0
 456 120 420 156 420 200 c 0
420 0 m 0
 420 44 456 80 500 80 c 0
 544 80 580 44 580 0 c 0
 580 -44 544 -80 500 -80 c 0
 456 -80 420 -44 420 0 c 0
EndSplineSet
Validated: 1
EndChar

StartChar: uni28AE
Encoding: 10414 10414 247
Width: 750
GlyphClass: 2
Flags: W
LayerCount: 2
Fore
SplineSet
170 400 m 0
 170 444 206 480 250 480 c 0
 294 480 330 444 330 400 c 0
 330 356 294 320 250 320 c 0
 206 320 170 356 170 400 c 0
170 200 m 0
 170 244 206 280 250 280 c 0
 294 280 330 244 330 200 c 0
 330 156 294 120 250 120 c 0
 206 120 170 156 170 200 c 0
420 600 m 0
 420 644 456 680 500 680 c 0
 544 680 580 644 580 600 c 0
 580 556 544 520 500 520 c 0
 456 520 420 556 420 600 c 0
420 200 m 0
 420 244 456 280 500 280 c 0
 544 280 580 244 580 200 c 0
 580 156 544 120 500 120 c 0
 456 120 420 156 420 200 c 0
420 0 m 0
 420 44 456 80 500 80 c 0
 544 80 580 44 580 0 c 0
 580 -44 544 -80 500 -80 c 0
 456 -80 420 -44 420 0 c 0
EndSplineSet
Validated: 1
EndChar

StartChar: uni28AF
Encoding: 10415 10415 248
Width: 750
GlyphClass: 2
Flags: W
LayerCount: 2
Fore
SplineSet
170 600 m 0
 170 644 206 680 250 680 c 0
 294 680 330 644 330 600 c 0
 330 556 294 520 250 520 c 0
 206 520 170 556 170 600 c 0
170 400 m 0
 170 444 206 480 250 480 c 0
 294 480 330 444 330 400 c 0
 330 356 294 320 250 320 c 0
 206 320 170 356 170 400 c 0
170 200 m 0
 170 244 206 280 250 280 c 0
 294 280 330 244 330 200 c 0
 330 156 294 120 250 120 c 0
 206 120 170 156 170 200 c 0
420 600 m 0
 420 644 456 680 500 680 c 0
 544 680 580 644 580 600 c 0
 580 556 544 520 500 520 c 0
 456 520 420 556 420 600 c 0
420 200 m 0
 420 244 456 280 500 280 c 0
 544 280 580 244 580 200 c 0
 580 156 544 120 500 120 c 0
 456 120 420 156 420 200 c 0
420 0 m 0
 420 44 456 80 500 80 c 0
 544 80 580 44 580 0 c 0
 580 -44 544 -80 500 -80 c 0
 456 -80 420 -44 420 0 c 0
EndSplineSet
Validated: 1
EndChar

StartChar: uni28B0
Encoding: 10416 10416 249
Width: 750
GlyphClass: 2
Flags: W
LayerCount: 2
Fore
SplineSet
420 400 m 0
 420 444 456 480 500 480 c 0
 544 480 580 444 580 400 c 0
 580 356 544 320 500 320 c 0
 456 320 420 356 420 400 c 0
420 200 m 0
 420 244 456 280 500 280 c 0
 544 280 580 244 580 200 c 0
 580 156 544 120 500 120 c 0
 456 120 420 156 420 200 c 0
420 0 m 0
 420 44 456 80 500 80 c 0
 544 80 580 44 580 0 c 0
 580 -44 544 -80 500 -80 c 0
 456 -80 420 -44 420 0 c 0
EndSplineSet
Validated: 1
EndChar

StartChar: uni28B1
Encoding: 10417 10417 250
Width: 750
GlyphClass: 2
Flags: W
LayerCount: 2
Fore
SplineSet
170 600 m 0
 170 644 206 680 250 680 c 0
 294 680 330 644 330 600 c 0
 330 556 294 520 250 520 c 0
 206 520 170 556 170 600 c 0
420 400 m 0
 420 444 456 480 500 480 c 0
 544 480 580 444 580 400 c 0
 580 356 544 320 500 320 c 0
 456 320 420 356 420 400 c 0
420 200 m 0
 420 244 456 280 500 280 c 0
 544 280 580 244 580 200 c 0
 580 156 544 120 500 120 c 0
 456 120 420 156 420 200 c 0
420 0 m 0
 420 44 456 80 500 80 c 0
 544 80 580 44 580 0 c 0
 580 -44 544 -80 500 -80 c 0
 456 -80 420 -44 420 0 c 0
EndSplineSet
Validated: 1
EndChar

StartChar: uni28B2
Encoding: 10418 10418 251
Width: 750
GlyphClass: 2
Flags: W
LayerCount: 2
Fore
SplineSet
170 400 m 0
 170 444 206 480 250 480 c 0
 294 480 330 444 330 400 c 0
 330 356 294 320 250 320 c 0
 206 320 170 356 170 400 c 0
420 400 m 0
 420 444 456 480 500 480 c 0
 544 480 580 444 580 400 c 0
 580 356 544 320 500 320 c 0
 456 320 420 356 420 400 c 0
420 200 m 0
 420 244 456 280 500 280 c 0
 544 280 580 244 580 200 c 0
 580 156 544 120 500 120 c 0
 456 120 420 156 420 200 c 0
420 0 m 0
 420 44 456 80 500 80 c 0
 544 80 580 44 580 0 c 0
 580 -44 544 -80 500 -80 c 0
 456 -80 420 -44 420 0 c 0
EndSplineSet
Validated: 1
EndChar

StartChar: uni28B3
Encoding: 10419 10419 252
Width: 750
GlyphClass: 2
Flags: W
LayerCount: 2
Fore
SplineSet
170 600 m 0
 170 644 206 680 250 680 c 0
 294 680 330 644 330 600 c 0
 330 556 294 520 250 520 c 0
 206 520 170 556 170 600 c 0
170 400 m 0
 170 444 206 480 250 480 c 0
 294 480 330 444 330 400 c 0
 330 356 294 320 250 320 c 0
 206 320 170 356 170 400 c 0
420 400 m 0
 420 444 456 480 500 480 c 0
 544 480 580 444 580 400 c 0
 580 356 544 320 500 320 c 0
 456 320 420 356 420 400 c 0
420 200 m 0
 420 244 456 280 500 280 c 0
 544 280 580 244 580 200 c 0
 580 156 544 120 500 120 c 0
 456 120 420 156 420 200 c 0
420 0 m 0
 420 44 456 80 500 80 c 0
 544 80 580 44 580 0 c 0
 580 -44 544 -80 500 -80 c 0
 456 -80 420 -44 420 0 c 0
EndSplineSet
Validated: 1
EndChar

StartChar: uni28B4
Encoding: 10420 10420 253
Width: 750
GlyphClass: 2
Flags: W
LayerCount: 2
Fore
SplineSet
170 200 m 0
 170 244 206 280 250 280 c 0
 294 280 330 244 330 200 c 0
 330 156 294 120 250 120 c 0
 206 120 170 156 170 200 c 0
420 400 m 0
 420 444 456 480 500 480 c 0
 544 480 580 444 580 400 c 0
 580 356 544 320 500 320 c 0
 456 320 420 356 420 400 c 0
420 200 m 0
 420 244 456 280 500 280 c 0
 544 280 580 244 580 200 c 0
 580 156 544 120 500 120 c 0
 456 120 420 156 420 200 c 0
420 0 m 0
 420 44 456 80 500 80 c 0
 544 80 580 44 580 0 c 0
 580 -44 544 -80 500 -80 c 0
 456 -80 420 -44 420 0 c 0
EndSplineSet
Validated: 1
EndChar

StartChar: uni28B5
Encoding: 10421 10421 254
Width: 750
GlyphClass: 2
Flags: W
LayerCount: 2
Fore
SplineSet
170 600 m 0
 170 644 206 680 250 680 c 0
 294 680 330 644 330 600 c 0
 330 556 294 520 250 520 c 0
 206 520 170 556 170 600 c 0
170 200 m 0
 170 244 206 280 250 280 c 0
 294 280 330 244 330 200 c 0
 330 156 294 120 250 120 c 0
 206 120 170 156 170 200 c 0
420 400 m 0
 420 444 456 480 500 480 c 0
 544 480 580 444 580 400 c 0
 580 356 544 320 500 320 c 0
 456 320 420 356 420 400 c 0
420 200 m 0
 420 244 456 280 500 280 c 0
 544 280 580 244 580 200 c 0
 580 156 544 120 500 120 c 0
 456 120 420 156 420 200 c 0
420 0 m 0
 420 44 456 80 500 80 c 0
 544 80 580 44 580 0 c 0
 580 -44 544 -80 500 -80 c 0
 456 -80 420 -44 420 0 c 0
EndSplineSet
Validated: 1
EndChar

StartChar: uni28B6
Encoding: 10422 10422 255
Width: 750
GlyphClass: 2
Flags: W
LayerCount: 2
Fore
SplineSet
170 400 m 0
 170 444 206 480 250 480 c 0
 294 480 330 444 330 400 c 0
 330 356 294 320 250 320 c 0
 206 320 170 356 170 400 c 0
170 200 m 0
 170 244 206 280 250 280 c 0
 294 280 330 244 330 200 c 0
 330 156 294 120 250 120 c 0
 206 120 170 156 170 200 c 0
420 400 m 0
 420 444 456 480 500 480 c 0
 544 480 580 444 580 400 c 0
 580 356 544 320 500 320 c 0
 456 320 420 356 420 400 c 0
420 200 m 0
 420 244 456 280 500 280 c 0
 544 280 580 244 580 200 c 0
 580 156 544 120 500 120 c 0
 456 120 420 156 420 200 c 0
420 0 m 0
 420 44 456 80 500 80 c 0
 544 80 580 44 580 0 c 0
 580 -44 544 -80 500 -80 c 0
 456 -80 420 -44 420 0 c 0
EndSplineSet
Validated: 1
EndChar

StartChar: uni28B7
Encoding: 10423 10423 256
Width: 750
GlyphClass: 2
Flags: W
LayerCount: 2
Fore
SplineSet
170 600 m 0
 170 644 206 680 250 680 c 0
 294 680 330 644 330 600 c 0
 330 556 294 520 250 520 c 0
 206 520 170 556 170 600 c 0
170 400 m 0
 170 444 206 480 250 480 c 0
 294 480 330 444 330 400 c 0
 330 356 294 320 250 320 c 0
 206 320 170 356 170 400 c 0
170 200 m 0
 170 244 206 280 250 280 c 0
 294 280 330 244 330 200 c 0
 330 156 294 120 250 120 c 0
 206 120 170 156 170 200 c 0
420 400 m 0
 420 444 456 480 500 480 c 0
 544 480 580 444 580 400 c 0
 580 356 544 320 500 320 c 0
 456 320 420 356 420 400 c 0
420 200 m 0
 420 244 456 280 500 280 c 0
 544 280 580 244 580 200 c 0
 580 156 544 120 500 120 c 0
 456 120 420 156 420 200 c 0
420 0 m 0
 420 44 456 80 500 80 c 0
 544 80 580 44 580 0 c 0
 580 -44 544 -80 500 -80 c 0
 456 -80 420 -44 420 0 c 0
EndSplineSet
Validated: 1
EndChar

StartChar: uni28B8
Encoding: 10424 10424 257
Width: 750
GlyphClass: 2
Flags: W
LayerCount: 2
Fore
SplineSet
420 600 m 0
 420 644 456 680 500 680 c 0
 544 680 580 644 580 600 c 0
 580 556 544 520 500 520 c 0
 456 520 420 556 420 600 c 0
420 400 m 0
 420 444 456 480 500 480 c 0
 544 480 580 444 580 400 c 0
 580 356 544 320 500 320 c 0
 456 320 420 356 420 400 c 0
420 200 m 0
 420 244 456 280 500 280 c 0
 544 280 580 244 580 200 c 0
 580 156 544 120 500 120 c 0
 456 120 420 156 420 200 c 0
420 0 m 0
 420 44 456 80 500 80 c 0
 544 80 580 44 580 0 c 0
 580 -44 544 -80 500 -80 c 0
 456 -80 420 -44 420 0 c 0
EndSplineSet
Validated: 1
EndChar

StartChar: uni28B9
Encoding: 10425 10425 258
Width: 750
GlyphClass: 2
Flags: W
LayerCount: 2
Fore
SplineSet
170 600 m 0
 170 644 206 680 250 680 c 0
 294 680 330 644 330 600 c 0
 330 556 294 520 250 520 c 0
 206 520 170 556 170 600 c 0
420 600 m 0
 420 644 456 680 500 680 c 0
 544 680 580 644 580 600 c 0
 580 556 544 520 500 520 c 0
 456 520 420 556 420 600 c 0
420 400 m 0
 420 444 456 480 500 480 c 0
 544 480 580 444 580 400 c 0
 580 356 544 320 500 320 c 0
 456 320 420 356 420 400 c 0
420 200 m 0
 420 244 456 280 500 280 c 0
 544 280 580 244 580 200 c 0
 580 156 544 120 500 120 c 0
 456 120 420 156 420 200 c 0
420 0 m 0
 420 44 456 80 500 80 c 0
 544 80 580 44 580 0 c 0
 580 -44 544 -80 500 -80 c 0
 456 -80 420 -44 420 0 c 0
EndSplineSet
Validated: 1
EndChar

StartChar: uni28BA
Encoding: 10426 10426 259
Width: 750
GlyphClass: 2
Flags: W
LayerCount: 2
Fore
SplineSet
170 400 m 0
 170 444 206 480 250 480 c 0
 294 480 330 444 330 400 c 0
 330 356 294 320 250 320 c 0
 206 320 170 356 170 400 c 0
420 600 m 0
 420 644 456 680 500 680 c 0
 544 680 580 644 580 600 c 0
 580 556 544 520 500 520 c 0
 456 520 420 556 420 600 c 0
420 400 m 0
 420 444 456 480 500 480 c 0
 544 480 580 444 580 400 c 0
 580 356 544 320 500 320 c 0
 456 320 420 356 420 400 c 0
420 200 m 0
 420 244 456 280 500 280 c 0
 544 280 580 244 580 200 c 0
 580 156 544 120 500 120 c 0
 456 120 420 156 420 200 c 0
420 0 m 0
 420 44 456 80 500 80 c 0
 544 80 580 44 580 0 c 0
 580 -44 544 -80 500 -80 c 0
 456 -80 420 -44 420 0 c 0
EndSplineSet
Validated: 1
EndChar

StartChar: uni28BB
Encoding: 10427 10427 260
Width: 750
GlyphClass: 2
Flags: W
LayerCount: 2
Fore
SplineSet
170 600 m 0
 170 644 206 680 250 680 c 0
 294 680 330 644 330 600 c 0
 330 556 294 520 250 520 c 0
 206 520 170 556 170 600 c 0
170 400 m 0
 170 444 206 480 250 480 c 0
 294 480 330 444 330 400 c 0
 330 356 294 320 250 320 c 0
 206 320 170 356 170 400 c 0
420 600 m 0
 420 644 456 680 500 680 c 0
 544 680 580 644 580 600 c 0
 580 556 544 520 500 520 c 0
 456 520 420 556 420 600 c 0
420 400 m 0
 420 444 456 480 500 480 c 0
 544 480 580 444 580 400 c 0
 580 356 544 320 500 320 c 0
 456 320 420 356 420 400 c 0
420 200 m 0
 420 244 456 280 500 280 c 0
 544 280 580 244 580 200 c 0
 580 156 544 120 500 120 c 0
 456 120 420 156 420 200 c 0
420 0 m 0
 420 44 456 80 500 80 c 0
 544 80 580 44 580 0 c 0
 580 -44 544 -80 500 -80 c 0
 456 -80 420 -44 420 0 c 0
EndSplineSet
Validated: 1
EndChar

StartChar: uni28BC
Encoding: 10428 10428 261
Width: 750
GlyphClass: 2
Flags: W
LayerCount: 2
Fore
SplineSet
170 200 m 0
 170 244 206 280 250 280 c 0
 294 280 330 244 330 200 c 0
 330 156 294 120 250 120 c 0
 206 120 170 156 170 200 c 0
420 600 m 0
 420 644 456 680 500 680 c 0
 544 680 580 644 580 600 c 0
 580 556 544 520 500 520 c 0
 456 520 420 556 420 600 c 0
420 400 m 0
 420 444 456 480 500 480 c 0
 544 480 580 444 580 400 c 0
 580 356 544 320 500 320 c 0
 456 320 420 356 420 400 c 0
420 200 m 0
 420 244 456 280 500 280 c 0
 544 280 580 244 580 200 c 0
 580 156 544 120 500 120 c 0
 456 120 420 156 420 200 c 0
420 0 m 0
 420 44 456 80 500 80 c 0
 544 80 580 44 580 0 c 0
 580 -44 544 -80 500 -80 c 0
 456 -80 420 -44 420 0 c 0
EndSplineSet
Validated: 1
EndChar

StartChar: uni28BD
Encoding: 10429 10429 262
Width: 750
GlyphClass: 2
Flags: W
LayerCount: 2
Fore
SplineSet
170 600 m 0
 170 644 206 680 250 680 c 0
 294 680 330 644 330 600 c 0
 330 556 294 520 250 520 c 0
 206 520 170 556 170 600 c 0
170 200 m 0
 170 244 206 280 250 280 c 0
 294 280 330 244 330 200 c 0
 330 156 294 120 250 120 c 0
 206 120 170 156 170 200 c 0
420 600 m 0
 420 644 456 680 500 680 c 0
 544 680 580 644 580 600 c 0
 580 556 544 520 500 520 c 0
 456 520 420 556 420 600 c 0
420 400 m 0
 420 444 456 480 500 480 c 0
 544 480 580 444 580 400 c 0
 580 356 544 320 500 320 c 0
 456 320 420 356 420 400 c 0
420 200 m 0
 420 244 456 280 500 280 c 0
 544 280 580 244 580 200 c 0
 580 156 544 120 500 120 c 0
 456 120 420 156 420 200 c 0
420 0 m 0
 420 44 456 80 500 80 c 0
 544 80 580 44 580 0 c 0
 580 -44 544 -80 500 -80 c 0
 456 -80 420 -44 420 0 c 0
EndSplineSet
Validated: 1
EndChar

StartChar: uni28BE
Encoding: 10430 10430 263
Width: 750
GlyphClass: 2
Flags: W
LayerCount: 2
Fore
SplineSet
170 400 m 0
 170 444 206 480 250 480 c 0
 294 480 330 444 330 400 c 0
 330 356 294 320 250 320 c 0
 206 320 170 356 170 400 c 0
170 200 m 0
 170 244 206 280 250 280 c 0
 294 280 330 244 330 200 c 0
 330 156 294 120 250 120 c 0
 206 120 170 156 170 200 c 0
420 600 m 0
 420 644 456 680 500 680 c 0
 544 680 580 644 580 600 c 0
 580 556 544 520 500 520 c 0
 456 520 420 556 420 600 c 0
420 400 m 0
 420 444 456 480 500 480 c 0
 544 480 580 444 580 400 c 0
 580 356 544 320 500 320 c 0
 456 320 420 356 420 400 c 0
420 200 m 0
 420 244 456 280 500 280 c 0
 544 280 580 244 580 200 c 0
 580 156 544 120 500 120 c 0
 456 120 420 156 420 200 c 0
420 0 m 0
 420 44 456 80 500 80 c 0
 544 80 580 44 580 0 c 0
 580 -44 544 -80 500 -80 c 0
 456 -80 420 -44 420 0 c 0
EndSplineSet
Validated: 1
EndChar

StartChar: uni28BF
Encoding: 10431 10431 264
Width: 750
GlyphClass: 2
Flags: W
LayerCount: 2
Fore
SplineSet
170 600 m 0
 170 644 206 680 250 680 c 0
 294 680 330 644 330 600 c 0
 330 556 294 520 250 520 c 0
 206 520 170 556 170 600 c 0
170 400 m 0
 170 444 206 480 250 480 c 0
 294 480 330 444 330 400 c 0
 330 356 294 320 250 320 c 0
 206 320 170 356 170 400 c 0
170 200 m 0
 170 244 206 280 250 280 c 0
 294 280 330 244 330 200 c 0
 330 156 294 120 250 120 c 0
 206 120 170 156 170 200 c 0
420 600 m 0
 420 644 456 680 500 680 c 0
 544 680 580 644 580 600 c 0
 580 556 544 520 500 520 c 0
 456 520 420 556 420 600 c 0
420 400 m 0
 420 444 456 480 500 480 c 0
 544 480 580 444 580 400 c 0
 580 356 544 320 500 320 c 0
 456 320 420 356 420 400 c 0
420 200 m 0
 420 244 456 280 500 280 c 0
 544 280 580 244 580 200 c 0
 580 156 544 120 500 120 c 0
 456 120 420 156 420 200 c 0
420 0 m 0
 420 44 456 80 500 80 c 0
 544 80 580 44 580 0 c 0
 580 -44 544 -80 500 -80 c 0
 456 -80 420 -44 420 0 c 0
EndSplineSet
Validated: 1
EndChar

StartChar: uni28C0
Encoding: 10432 10432 265
Width: 750
GlyphClass: 2
Flags: W
LayerCount: 2
Fore
SplineSet
170 0 m 0
 170 44 206 80 250 80 c 0
 294 80 330 44 330 0 c 0
 330 -44 294 -80 250 -80 c 0
 206 -80 170 -44 170 0 c 0
420 0 m 0
 420 44 456 80 500 80 c 0
 544 80 580 44 580 0 c 0
 580 -44 544 -80 500 -80 c 0
 456 -80 420 -44 420 0 c 0
EndSplineSet
Validated: 1
EndChar

StartChar: uni28C1
Encoding: 10433 10433 266
Width: 750
GlyphClass: 2
Flags: W
LayerCount: 2
Fore
SplineSet
170 600 m 0
 170 644 206 680 250 680 c 0
 294 680 330 644 330 600 c 0
 330 556 294 520 250 520 c 0
 206 520 170 556 170 600 c 0
170 0 m 0
 170 44 206 80 250 80 c 0
 294 80 330 44 330 0 c 0
 330 -44 294 -80 250 -80 c 0
 206 -80 170 -44 170 0 c 0
420 0 m 0
 420 44 456 80 500 80 c 0
 544 80 580 44 580 0 c 0
 580 -44 544 -80 500 -80 c 0
 456 -80 420 -44 420 0 c 0
EndSplineSet
Validated: 1
EndChar

StartChar: uni28C2
Encoding: 10434 10434 267
Width: 750
GlyphClass: 2
Flags: W
LayerCount: 2
Fore
SplineSet
170 400 m 0
 170 444 206 480 250 480 c 0
 294 480 330 444 330 400 c 0
 330 356 294 320 250 320 c 0
 206 320 170 356 170 400 c 0
170 0 m 0
 170 44 206 80 250 80 c 0
 294 80 330 44 330 0 c 0
 330 -44 294 -80 250 -80 c 0
 206 -80 170 -44 170 0 c 0
420 0 m 0
 420 44 456 80 500 80 c 0
 544 80 580 44 580 0 c 0
 580 -44 544 -80 500 -80 c 0
 456 -80 420 -44 420 0 c 0
EndSplineSet
Validated: 1
EndChar

StartChar: uni28C3
Encoding: 10435 10435 268
Width: 750
GlyphClass: 2
Flags: W
LayerCount: 2
Fore
SplineSet
170 600 m 0
 170 644 206 680 250 680 c 0
 294 680 330 644 330 600 c 0
 330 556 294 520 250 520 c 0
 206 520 170 556 170 600 c 0
170 400 m 0
 170 444 206 480 250 480 c 0
 294 480 330 444 330 400 c 0
 330 356 294 320 250 320 c 0
 206 320 170 356 170 400 c 0
170 0 m 0
 170 44 206 80 250 80 c 0
 294 80 330 44 330 0 c 0
 330 -44 294 -80 250 -80 c 0
 206 -80 170 -44 170 0 c 0
420 0 m 0
 420 44 456 80 500 80 c 0
 544 80 580 44 580 0 c 0
 580 -44 544 -80 500 -80 c 0
 456 -80 420 -44 420 0 c 0
EndSplineSet
Validated: 1
EndChar

StartChar: uni28C4
Encoding: 10436 10436 269
Width: 750
GlyphClass: 2
Flags: W
LayerCount: 2
Fore
SplineSet
170 200 m 0
 170 244 206 280 250 280 c 0
 294 280 330 244 330 200 c 0
 330 156 294 120 250 120 c 0
 206 120 170 156 170 200 c 0
170 0 m 0
 170 44 206 80 250 80 c 0
 294 80 330 44 330 0 c 0
 330 -44 294 -80 250 -80 c 0
 206 -80 170 -44 170 0 c 0
420 0 m 0
 420 44 456 80 500 80 c 0
 544 80 580 44 580 0 c 0
 580 -44 544 -80 500 -80 c 0
 456 -80 420 -44 420 0 c 0
EndSplineSet
Validated: 1
EndChar

StartChar: uni28C5
Encoding: 10437 10437 270
Width: 750
GlyphClass: 2
Flags: W
LayerCount: 2
Fore
SplineSet
170 600 m 0
 170 644 206 680 250 680 c 0
 294 680 330 644 330 600 c 0
 330 556 294 520 250 520 c 0
 206 520 170 556 170 600 c 0
170 200 m 0
 170 244 206 280 250 280 c 0
 294 280 330 244 330 200 c 0
 330 156 294 120 250 120 c 0
 206 120 170 156 170 200 c 0
170 0 m 0
 170 44 206 80 250 80 c 0
 294 80 330 44 330 0 c 0
 330 -44 294 -80 250 -80 c 0
 206 -80 170 -44 170 0 c 0
420 0 m 0
 420 44 456 80 500 80 c 0
 544 80 580 44 580 0 c 0
 580 -44 544 -80 500 -80 c 0
 456 -80 420 -44 420 0 c 0
EndSplineSet
Validated: 1
EndChar

StartChar: uni28C6
Encoding: 10438 10438 271
Width: 750
GlyphClass: 2
Flags: W
LayerCount: 2
Fore
SplineSet
170 400 m 0
 170 444 206 480 250 480 c 0
 294 480 330 444 330 400 c 0
 330 356 294 320 250 320 c 0
 206 320 170 356 170 400 c 0
170 200 m 0
 170 244 206 280 250 280 c 0
 294 280 330 244 330 200 c 0
 330 156 294 120 250 120 c 0
 206 120 170 156 170 200 c 0
170 0 m 0
 170 44 206 80 250 80 c 0
 294 80 330 44 330 0 c 0
 330 -44 294 -80 250 -80 c 0
 206 -80 170 -44 170 0 c 0
420 0 m 0
 420 44 456 80 500 80 c 0
 544 80 580 44 580 0 c 0
 580 -44 544 -80 500 -80 c 0
 456 -80 420 -44 420 0 c 0
EndSplineSet
Validated: 1
EndChar

StartChar: uni28C7
Encoding: 10439 10439 272
Width: 750
GlyphClass: 2
Flags: W
LayerCount: 2
Fore
SplineSet
170 600 m 0
 170 644 206 680 250 680 c 0
 294 680 330 644 330 600 c 0
 330 556 294 520 250 520 c 0
 206 520 170 556 170 600 c 0
170 400 m 0
 170 444 206 480 250 480 c 0
 294 480 330 444 330 400 c 0
 330 356 294 320 250 320 c 0
 206 320 170 356 170 400 c 0
170 200 m 0
 170 244 206 280 250 280 c 0
 294 280 330 244 330 200 c 0
 330 156 294 120 250 120 c 0
 206 120 170 156 170 200 c 0
170 0 m 0
 170 44 206 80 250 80 c 0
 294 80 330 44 330 0 c 0
 330 -44 294 -80 250 -80 c 0
 206 -80 170 -44 170 0 c 0
420 0 m 0
 420 44 456 80 500 80 c 0
 544 80 580 44 580 0 c 0
 580 -44 544 -80 500 -80 c 0
 456 -80 420 -44 420 0 c 0
EndSplineSet
Validated: 1
EndChar

StartChar: uni28C8
Encoding: 10440 10440 273
Width: 750
GlyphClass: 2
Flags: W
LayerCount: 2
Fore
SplineSet
420 600 m 0
 420 644 456 680 500 680 c 0
 544 680 580 644 580 600 c 0
 580 556 544 520 500 520 c 0
 456 520 420 556 420 600 c 0
170 0 m 0
 170 44 206 80 250 80 c 0
 294 80 330 44 330 0 c 0
 330 -44 294 -80 250 -80 c 0
 206 -80 170 -44 170 0 c 0
420 0 m 0
 420 44 456 80 500 80 c 0
 544 80 580 44 580 0 c 0
 580 -44 544 -80 500 -80 c 0
 456 -80 420 -44 420 0 c 0
EndSplineSet
Validated: 1
EndChar

StartChar: uni28C9
Encoding: 10441 10441 274
Width: 750
GlyphClass: 2
Flags: W
LayerCount: 2
Fore
SplineSet
170 600 m 0
 170 644 206 680 250 680 c 0
 294 680 330 644 330 600 c 0
 330 556 294 520 250 520 c 0
 206 520 170 556 170 600 c 0
420 600 m 0
 420 644 456 680 500 680 c 0
 544 680 580 644 580 600 c 0
 580 556 544 520 500 520 c 0
 456 520 420 556 420 600 c 0
170 0 m 0
 170 44 206 80 250 80 c 0
 294 80 330 44 330 0 c 0
 330 -44 294 -80 250 -80 c 0
 206 -80 170 -44 170 0 c 0
420 0 m 0
 420 44 456 80 500 80 c 0
 544 80 580 44 580 0 c 0
 580 -44 544 -80 500 -80 c 0
 456 -80 420 -44 420 0 c 0
EndSplineSet
Validated: 1
EndChar

StartChar: uni28CA
Encoding: 10442 10442 275
Width: 750
GlyphClass: 2
Flags: W
LayerCount: 2
Fore
SplineSet
170 400 m 0
 170 444 206 480 250 480 c 0
 294 480 330 444 330 400 c 0
 330 356 294 320 250 320 c 0
 206 320 170 356 170 400 c 0
420 600 m 0
 420 644 456 680 500 680 c 0
 544 680 580 644 580 600 c 0
 580 556 544 520 500 520 c 0
 456 520 420 556 420 600 c 0
170 0 m 0
 170 44 206 80 250 80 c 0
 294 80 330 44 330 0 c 0
 330 -44 294 -80 250 -80 c 0
 206 -80 170 -44 170 0 c 0
420 0 m 0
 420 44 456 80 500 80 c 0
 544 80 580 44 580 0 c 0
 580 -44 544 -80 500 -80 c 0
 456 -80 420 -44 420 0 c 0
EndSplineSet
Validated: 1
EndChar

StartChar: uni28CB
Encoding: 10443 10443 276
Width: 750
GlyphClass: 2
Flags: W
LayerCount: 2
Fore
SplineSet
170 600 m 0
 170 644 206 680 250 680 c 0
 294 680 330 644 330 600 c 0
 330 556 294 520 250 520 c 0
 206 520 170 556 170 600 c 0
170 400 m 0
 170 444 206 480 250 480 c 0
 294 480 330 444 330 400 c 0
 330 356 294 320 250 320 c 0
 206 320 170 356 170 400 c 0
420 600 m 0
 420 644 456 680 500 680 c 0
 544 680 580 644 580 600 c 0
 580 556 544 520 500 520 c 0
 456 520 420 556 420 600 c 0
170 0 m 0
 170 44 206 80 250 80 c 0
 294 80 330 44 330 0 c 0
 330 -44 294 -80 250 -80 c 0
 206 -80 170 -44 170 0 c 0
420 0 m 0
 420 44 456 80 500 80 c 0
 544 80 580 44 580 0 c 0
 580 -44 544 -80 500 -80 c 0
 456 -80 420 -44 420 0 c 0
EndSplineSet
Validated: 1
EndChar

StartChar: uni28CC
Encoding: 10444 10444 277
Width: 750
GlyphClass: 2
Flags: W
LayerCount: 2
Fore
SplineSet
170 200 m 0
 170 244 206 280 250 280 c 0
 294 280 330 244 330 200 c 0
 330 156 294 120 250 120 c 0
 206 120 170 156 170 200 c 0
420 600 m 0
 420 644 456 680 500 680 c 0
 544 680 580 644 580 600 c 0
 580 556 544 520 500 520 c 0
 456 520 420 556 420 600 c 0
170 0 m 0
 170 44 206 80 250 80 c 0
 294 80 330 44 330 0 c 0
 330 -44 294 -80 250 -80 c 0
 206 -80 170 -44 170 0 c 0
420 0 m 0
 420 44 456 80 500 80 c 0
 544 80 580 44 580 0 c 0
 580 -44 544 -80 500 -80 c 0
 456 -80 420 -44 420 0 c 0
EndSplineSet
Validated: 1
EndChar

StartChar: uni28CD
Encoding: 10445 10445 278
Width: 750
GlyphClass: 2
Flags: W
LayerCount: 2
Fore
SplineSet
170 600 m 0
 170 644 206 680 250 680 c 0
 294 680 330 644 330 600 c 0
 330 556 294 520 250 520 c 0
 206 520 170 556 170 600 c 0
170 200 m 0
 170 244 206 280 250 280 c 0
 294 280 330 244 330 200 c 0
 330 156 294 120 250 120 c 0
 206 120 170 156 170 200 c 0
420 600 m 0
 420 644 456 680 500 680 c 0
 544 680 580 644 580 600 c 0
 580 556 544 520 500 520 c 0
 456 520 420 556 420 600 c 0
170 0 m 0
 170 44 206 80 250 80 c 0
 294 80 330 44 330 0 c 0
 330 -44 294 -80 250 -80 c 0
 206 -80 170 -44 170 0 c 0
420 0 m 0
 420 44 456 80 500 80 c 0
 544 80 580 44 580 0 c 0
 580 -44 544 -80 500 -80 c 0
 456 -80 420 -44 420 0 c 0
EndSplineSet
Validated: 1
EndChar

StartChar: uni28CE
Encoding: 10446 10446 279
Width: 750
GlyphClass: 2
Flags: W
LayerCount: 2
Fore
SplineSet
170 400 m 0
 170 444 206 480 250 480 c 0
 294 480 330 444 330 400 c 0
 330 356 294 320 250 320 c 0
 206 320 170 356 170 400 c 0
170 200 m 0
 170 244 206 280 250 280 c 0
 294 280 330 244 330 200 c 0
 330 156 294 120 250 120 c 0
 206 120 170 156 170 200 c 0
420 600 m 0
 420 644 456 680 500 680 c 0
 544 680 580 644 580 600 c 0
 580 556 544 520 500 520 c 0
 456 520 420 556 420 600 c 0
170 0 m 0
 170 44 206 80 250 80 c 0
 294 80 330 44 330 0 c 0
 330 -44 294 -80 250 -80 c 0
 206 -80 170 -44 170 0 c 0
420 0 m 0
 420 44 456 80 500 80 c 0
 544 80 580 44 580 0 c 0
 580 -44 544 -80 500 -80 c 0
 456 -80 420 -44 420 0 c 0
EndSplineSet
Validated: 1
EndChar

StartChar: uni28CF
Encoding: 10447 10447 280
Width: 750
GlyphClass: 2
Flags: W
LayerCount: 2
Fore
SplineSet
170 600 m 0
 170 644 206 680 250 680 c 0
 294 680 330 644 330 600 c 0
 330 556 294 520 250 520 c 0
 206 520 170 556 170 600 c 0
170 400 m 0
 170 444 206 480 250 480 c 0
 294 480 330 444 330 400 c 0
 330 356 294 320 250 320 c 0
 206 320 170 356 170 400 c 0
170 200 m 0
 170 244 206 280 250 280 c 0
 294 280 330 244 330 200 c 0
 330 156 294 120 250 120 c 0
 206 120 170 156 170 200 c 0
420 600 m 0
 420 644 456 680 500 680 c 0
 544 680 580 644 580 600 c 0
 580 556 544 520 500 520 c 0
 456 520 420 556 420 600 c 0
170 0 m 0
 170 44 206 80 250 80 c 0
 294 80 330 44 330 0 c 0
 330 -44 294 -80 250 -80 c 0
 206 -80 170 -44 170 0 c 0
420 0 m 0
 420 44 456 80 500 80 c 0
 544 80 580 44 580 0 c 0
 580 -44 544 -80 500 -80 c 0
 456 -80 420 -44 420 0 c 0
EndSplineSet
Validated: 1
EndChar

StartChar: uni28D0
Encoding: 10448 10448 281
Width: 750
GlyphClass: 2
Flags: W
LayerCount: 2
Fore
SplineSet
420 400 m 0
 420 444 456 480 500 480 c 0
 544 480 580 444 580 400 c 0
 580 356 544 320 500 320 c 0
 456 320 420 356 420 400 c 0
170 0 m 0
 170 44 206 80 250 80 c 0
 294 80 330 44 330 0 c 0
 330 -44 294 -80 250 -80 c 0
 206 -80 170 -44 170 0 c 0
420 0 m 0
 420 44 456 80 500 80 c 0
 544 80 580 44 580 0 c 0
 580 -44 544 -80 500 -80 c 0
 456 -80 420 -44 420 0 c 0
EndSplineSet
Validated: 1
EndChar

StartChar: uni28D1
Encoding: 10449 10449 282
Width: 750
GlyphClass: 2
Flags: W
LayerCount: 2
Fore
SplineSet
170 600 m 0
 170 644 206 680 250 680 c 0
 294 680 330 644 330 600 c 0
 330 556 294 520 250 520 c 0
 206 520 170 556 170 600 c 0
420 400 m 0
 420 444 456 480 500 480 c 0
 544 480 580 444 580 400 c 0
 580 356 544 320 500 320 c 0
 456 320 420 356 420 400 c 0
170 0 m 0
 170 44 206 80 250 80 c 0
 294 80 330 44 330 0 c 0
 330 -44 294 -80 250 -80 c 0
 206 -80 170 -44 170 0 c 0
420 0 m 0
 420 44 456 80 500 80 c 0
 544 80 580 44 580 0 c 0
 580 -44 544 -80 500 -80 c 0
 456 -80 420 -44 420 0 c 0
EndSplineSet
Validated: 1
EndChar

StartChar: uni28D2
Encoding: 10450 10450 283
Width: 750
GlyphClass: 2
Flags: W
LayerCount: 2
Fore
SplineSet
170 400 m 0
 170 444 206 480 250 480 c 0
 294 480 330 444 330 400 c 0
 330 356 294 320 250 320 c 0
 206 320 170 356 170 400 c 0
420 400 m 0
 420 444 456 480 500 480 c 0
 544 480 580 444 580 400 c 0
 580 356 544 320 500 320 c 0
 456 320 420 356 420 400 c 0
170 0 m 0
 170 44 206 80 250 80 c 0
 294 80 330 44 330 0 c 0
 330 -44 294 -80 250 -80 c 0
 206 -80 170 -44 170 0 c 0
420 0 m 0
 420 44 456 80 500 80 c 0
 544 80 580 44 580 0 c 0
 580 -44 544 -80 500 -80 c 0
 456 -80 420 -44 420 0 c 0
EndSplineSet
Validated: 1
EndChar

StartChar: uni28D3
Encoding: 10451 10451 284
Width: 750
GlyphClass: 2
Flags: W
LayerCount: 2
Fore
SplineSet
170 600 m 0
 170 644 206 680 250 680 c 0
 294 680 330 644 330 600 c 0
 330 556 294 520 250 520 c 0
 206 520 170 556 170 600 c 0
170 400 m 0
 170 444 206 480 250 480 c 0
 294 480 330 444 330 400 c 0
 330 356 294 320 250 320 c 0
 206 320 170 356 170 400 c 0
420 400 m 0
 420 444 456 480 500 480 c 0
 544 480 580 444 580 400 c 0
 580 356 544 320 500 320 c 0
 456 320 420 356 420 400 c 0
170 0 m 0
 170 44 206 80 250 80 c 0
 294 80 330 44 330 0 c 0
 330 -44 294 -80 250 -80 c 0
 206 -80 170 -44 170 0 c 0
420 0 m 0
 420 44 456 80 500 80 c 0
 544 80 580 44 580 0 c 0
 580 -44 544 -80 500 -80 c 0
 456 -80 420 -44 420 0 c 0
EndSplineSet
Validated: 1
EndChar

StartChar: uni28D4
Encoding: 10452 10452 285
Width: 750
GlyphClass: 2
Flags: W
LayerCount: 2
Fore
SplineSet
170 200 m 0
 170 244 206 280 250 280 c 0
 294 280 330 244 330 200 c 0
 330 156 294 120 250 120 c 0
 206 120 170 156 170 200 c 0
420 400 m 0
 420 444 456 480 500 480 c 0
 544 480 580 444 580 400 c 0
 580 356 544 320 500 320 c 0
 456 320 420 356 420 400 c 0
170 0 m 0
 170 44 206 80 250 80 c 0
 294 80 330 44 330 0 c 0
 330 -44 294 -80 250 -80 c 0
 206 -80 170 -44 170 0 c 0
420 0 m 0
 420 44 456 80 500 80 c 0
 544 80 580 44 580 0 c 0
 580 -44 544 -80 500 -80 c 0
 456 -80 420 -44 420 0 c 0
EndSplineSet
Validated: 1
EndChar

StartChar: uni28D5
Encoding: 10453 10453 286
Width: 750
GlyphClass: 2
Flags: W
LayerCount: 2
Fore
SplineSet
170 600 m 0
 170 644 206 680 250 680 c 0
 294 680 330 644 330 600 c 0
 330 556 294 520 250 520 c 0
 206 520 170 556 170 600 c 0
170 200 m 0
 170 244 206 280 250 280 c 0
 294 280 330 244 330 200 c 0
 330 156 294 120 250 120 c 0
 206 120 170 156 170 200 c 0
420 400 m 0
 420 444 456 480 500 480 c 0
 544 480 580 444 580 400 c 0
 580 356 544 320 500 320 c 0
 456 320 420 356 420 400 c 0
170 0 m 0
 170 44 206 80 250 80 c 0
 294 80 330 44 330 0 c 0
 330 -44 294 -80 250 -80 c 0
 206 -80 170 -44 170 0 c 0
420 0 m 0
 420 44 456 80 500 80 c 0
 544 80 580 44 580 0 c 0
 580 -44 544 -80 500 -80 c 0
 456 -80 420 -44 420 0 c 0
EndSplineSet
Validated: 1
EndChar

StartChar: uni28D6
Encoding: 10454 10454 287
Width: 750
GlyphClass: 2
Flags: W
LayerCount: 2
Fore
SplineSet
170 400 m 0
 170 444 206 480 250 480 c 0
 294 480 330 444 330 400 c 0
 330 356 294 320 250 320 c 0
 206 320 170 356 170 400 c 0
170 200 m 0
 170 244 206 280 250 280 c 0
 294 280 330 244 330 200 c 0
 330 156 294 120 250 120 c 0
 206 120 170 156 170 200 c 0
420 400 m 0
 420 444 456 480 500 480 c 0
 544 480 580 444 580 400 c 0
 580 356 544 320 500 320 c 0
 456 320 420 356 420 400 c 0
170 0 m 0
 170 44 206 80 250 80 c 0
 294 80 330 44 330 0 c 0
 330 -44 294 -80 250 -80 c 0
 206 -80 170 -44 170 0 c 0
420 0 m 0
 420 44 456 80 500 80 c 0
 544 80 580 44 580 0 c 0
 580 -44 544 -80 500 -80 c 0
 456 -80 420 -44 420 0 c 0
EndSplineSet
Validated: 1
EndChar

StartChar: uni28D7
Encoding: 10455 10455 288
Width: 750
GlyphClass: 2
Flags: W
LayerCount: 2
Fore
SplineSet
170 600 m 0
 170 644 206 680 250 680 c 0
 294 680 330 644 330 600 c 0
 330 556 294 520 250 520 c 0
 206 520 170 556 170 600 c 0
170 400 m 0
 170 444 206 480 250 480 c 0
 294 480 330 444 330 400 c 0
 330 356 294 320 250 320 c 0
 206 320 170 356 170 400 c 0
170 200 m 0
 170 244 206 280 250 280 c 0
 294 280 330 244 330 200 c 0
 330 156 294 120 250 120 c 0
 206 120 170 156 170 200 c 0
420 400 m 0
 420 444 456 480 500 480 c 0
 544 480 580 444 580 400 c 0
 580 356 544 320 500 320 c 0
 456 320 420 356 420 400 c 0
170 0 m 0
 170 44 206 80 250 80 c 0
 294 80 330 44 330 0 c 0
 330 -44 294 -80 250 -80 c 0
 206 -80 170 -44 170 0 c 0
420 0 m 0
 420 44 456 80 500 80 c 0
 544 80 580 44 580 0 c 0
 580 -44 544 -80 500 -80 c 0
 456 -80 420 -44 420 0 c 0
EndSplineSet
Validated: 1
EndChar

StartChar: uni28D8
Encoding: 10456 10456 289
Width: 750
GlyphClass: 2
Flags: W
LayerCount: 2
Fore
SplineSet
420 600 m 0
 420 644 456 680 500 680 c 0
 544 680 580 644 580 600 c 0
 580 556 544 520 500 520 c 0
 456 520 420 556 420 600 c 0
420 400 m 0
 420 444 456 480 500 480 c 0
 544 480 580 444 580 400 c 0
 580 356 544 320 500 320 c 0
 456 320 420 356 420 400 c 0
170 0 m 0
 170 44 206 80 250 80 c 0
 294 80 330 44 330 0 c 0
 330 -44 294 -80 250 -80 c 0
 206 -80 170 -44 170 0 c 0
420 0 m 0
 420 44 456 80 500 80 c 0
 544 80 580 44 580 0 c 0
 580 -44 544 -80 500 -80 c 0
 456 -80 420 -44 420 0 c 0
EndSplineSet
Validated: 1
EndChar

StartChar: uni28D9
Encoding: 10457 10457 290
Width: 750
GlyphClass: 2
Flags: W
LayerCount: 2
Fore
SplineSet
170 600 m 0
 170 644 206 680 250 680 c 0
 294 680 330 644 330 600 c 0
 330 556 294 520 250 520 c 0
 206 520 170 556 170 600 c 0
420 600 m 0
 420 644 456 680 500 680 c 0
 544 680 580 644 580 600 c 0
 580 556 544 520 500 520 c 0
 456 520 420 556 420 600 c 0
420 400 m 0
 420 444 456 480 500 480 c 0
 544 480 580 444 580 400 c 0
 580 356 544 320 500 320 c 0
 456 320 420 356 420 400 c 0
170 0 m 0
 170 44 206 80 250 80 c 0
 294 80 330 44 330 0 c 0
 330 -44 294 -80 250 -80 c 0
 206 -80 170 -44 170 0 c 0
420 0 m 0
 420 44 456 80 500 80 c 0
 544 80 580 44 580 0 c 0
 580 -44 544 -80 500 -80 c 0
 456 -80 420 -44 420 0 c 0
EndSplineSet
Validated: 1
EndChar

StartChar: uni28DA
Encoding: 10458 10458 291
Width: 750
GlyphClass: 2
Flags: W
LayerCount: 2
Fore
SplineSet
170 400 m 0
 170 444 206 480 250 480 c 0
 294 480 330 444 330 400 c 0
 330 356 294 320 250 320 c 0
 206 320 170 356 170 400 c 0
420 600 m 0
 420 644 456 680 500 680 c 0
 544 680 580 644 580 600 c 0
 580 556 544 520 500 520 c 0
 456 520 420 556 420 600 c 0
420 400 m 0
 420 444 456 480 500 480 c 0
 544 480 580 444 580 400 c 0
 580 356 544 320 500 320 c 0
 456 320 420 356 420 400 c 0
170 0 m 0
 170 44 206 80 250 80 c 0
 294 80 330 44 330 0 c 0
 330 -44 294 -80 250 -80 c 0
 206 -80 170 -44 170 0 c 0
420 0 m 0
 420 44 456 80 500 80 c 0
 544 80 580 44 580 0 c 0
 580 -44 544 -80 500 -80 c 0
 456 -80 420 -44 420 0 c 0
EndSplineSet
Validated: 1
EndChar

StartChar: uni28DB
Encoding: 10459 10459 292
Width: 750
GlyphClass: 2
Flags: W
LayerCount: 2
Fore
SplineSet
170 600 m 0
 170 644 206 680 250 680 c 0
 294 680 330 644 330 600 c 0
 330 556 294 520 250 520 c 0
 206 520 170 556 170 600 c 0
170 400 m 0
 170 444 206 480 250 480 c 0
 294 480 330 444 330 400 c 0
 330 356 294 320 250 320 c 0
 206 320 170 356 170 400 c 0
420 600 m 0
 420 644 456 680 500 680 c 0
 544 680 580 644 580 600 c 0
 580 556 544 520 500 520 c 0
 456 520 420 556 420 600 c 0
420 400 m 0
 420 444 456 480 500 480 c 0
 544 480 580 444 580 400 c 0
 580 356 544 320 500 320 c 0
 456 320 420 356 420 400 c 0
170 0 m 0
 170 44 206 80 250 80 c 0
 294 80 330 44 330 0 c 0
 330 -44 294 -80 250 -80 c 0
 206 -80 170 -44 170 0 c 0
420 0 m 0
 420 44 456 80 500 80 c 0
 544 80 580 44 580 0 c 0
 580 -44 544 -80 500 -80 c 0
 456 -80 420 -44 420 0 c 0
EndSplineSet
Validated: 1
EndChar

StartChar: uni28DC
Encoding: 10460 10460 293
Width: 750
GlyphClass: 2
Flags: W
LayerCount: 2
Fore
SplineSet
170 200 m 0
 170 244 206 280 250 280 c 0
 294 280 330 244 330 200 c 0
 330 156 294 120 250 120 c 0
 206 120 170 156 170 200 c 0
420 600 m 0
 420 644 456 680 500 680 c 0
 544 680 580 644 580 600 c 0
 580 556 544 520 500 520 c 0
 456 520 420 556 420 600 c 0
420 400 m 0
 420 444 456 480 500 480 c 0
 544 480 580 444 580 400 c 0
 580 356 544 320 500 320 c 0
 456 320 420 356 420 400 c 0
170 0 m 0
 170 44 206 80 250 80 c 0
 294 80 330 44 330 0 c 0
 330 -44 294 -80 250 -80 c 0
 206 -80 170 -44 170 0 c 0
420 0 m 0
 420 44 456 80 500 80 c 0
 544 80 580 44 580 0 c 0
 580 -44 544 -80 500 -80 c 0
 456 -80 420 -44 420 0 c 0
EndSplineSet
Validated: 1
EndChar

StartChar: uni28DD
Encoding: 10461 10461 294
Width: 750
GlyphClass: 2
Flags: W
LayerCount: 2
Fore
SplineSet
170 600 m 0
 170 644 206 680 250 680 c 0
 294 680 330 644 330 600 c 0
 330 556 294 520 250 520 c 0
 206 520 170 556 170 600 c 0
170 200 m 0
 170 244 206 280 250 280 c 0
 294 280 330 244 330 200 c 0
 330 156 294 120 250 120 c 0
 206 120 170 156 170 200 c 0
420 600 m 0
 420 644 456 680 500 680 c 0
 544 680 580 644 580 600 c 0
 580 556 544 520 500 520 c 0
 456 520 420 556 420 600 c 0
420 400 m 0
 420 444 456 480 500 480 c 0
 544 480 580 444 580 400 c 0
 580 356 544 320 500 320 c 0
 456 320 420 356 420 400 c 0
170 0 m 0
 170 44 206 80 250 80 c 0
 294 80 330 44 330 0 c 0
 330 -44 294 -80 250 -80 c 0
 206 -80 170 -44 170 0 c 0
420 0 m 0
 420 44 456 80 500 80 c 0
 544 80 580 44 580 0 c 0
 580 -44 544 -80 500 -80 c 0
 456 -80 420 -44 420 0 c 0
EndSplineSet
Validated: 1
EndChar

StartChar: uni28DE
Encoding: 10462 10462 295
Width: 750
GlyphClass: 2
Flags: W
LayerCount: 2
Fore
SplineSet
170 400 m 0
 170 444 206 480 250 480 c 0
 294 480 330 444 330 400 c 0
 330 356 294 320 250 320 c 0
 206 320 170 356 170 400 c 0
170 200 m 0
 170 244 206 280 250 280 c 0
 294 280 330 244 330 200 c 0
 330 156 294 120 250 120 c 0
 206 120 170 156 170 200 c 0
420 600 m 0
 420 644 456 680 500 680 c 0
 544 680 580 644 580 600 c 0
 580 556 544 520 500 520 c 0
 456 520 420 556 420 600 c 0
420 400 m 0
 420 444 456 480 500 480 c 0
 544 480 580 444 580 400 c 0
 580 356 544 320 500 320 c 0
 456 320 420 356 420 400 c 0
170 0 m 0
 170 44 206 80 250 80 c 0
 294 80 330 44 330 0 c 0
 330 -44 294 -80 250 -80 c 0
 206 -80 170 -44 170 0 c 0
420 0 m 0
 420 44 456 80 500 80 c 0
 544 80 580 44 580 0 c 0
 580 -44 544 -80 500 -80 c 0
 456 -80 420 -44 420 0 c 0
EndSplineSet
Validated: 1
EndChar

StartChar: uni28DF
Encoding: 10463 10463 296
Width: 750
GlyphClass: 2
Flags: W
LayerCount: 2
Fore
SplineSet
170 600 m 0
 170 644 206 680 250 680 c 0
 294 680 330 644 330 600 c 0
 330 556 294 520 250 520 c 0
 206 520 170 556 170 600 c 0
170 400 m 0
 170 444 206 480 250 480 c 0
 294 480 330 444 330 400 c 0
 330 356 294 320 250 320 c 0
 206 320 170 356 170 400 c 0
170 200 m 0
 170 244 206 280 250 280 c 0
 294 280 330 244 330 200 c 0
 330 156 294 120 250 120 c 0
 206 120 170 156 170 200 c 0
420 600 m 0
 420 644 456 680 500 680 c 0
 544 680 580 644 580 600 c 0
 580 556 544 520 500 520 c 0
 456 520 420 556 420 600 c 0
420 400 m 0
 420 444 456 480 500 480 c 0
 544 480 580 444 580 400 c 0
 580 356 544 320 500 320 c 0
 456 320 420 356 420 400 c 0
170 0 m 0
 170 44 206 80 250 80 c 0
 294 80 330 44 330 0 c 0
 330 -44 294 -80 250 -80 c 0
 206 -80 170 -44 170 0 c 0
420 0 m 0
 420 44 456 80 500 80 c 0
 544 80 580 44 580 0 c 0
 580 -44 544 -80 500 -80 c 0
 456 -80 420 -44 420 0 c 0
EndSplineSet
Validated: 1
EndChar

StartChar: uni28E0
Encoding: 10464 10464 297
Width: 750
GlyphClass: 2
Flags: W
LayerCount: 2
Fore
SplineSet
420 200 m 0
 420 244 456 280 500 280 c 0
 544 280 580 244 580 200 c 0
 580 156 544 120 500 120 c 0
 456 120 420 156 420 200 c 0
170 0 m 0
 170 44 206 80 250 80 c 0
 294 80 330 44 330 0 c 0
 330 -44 294 -80 250 -80 c 0
 206 -80 170 -44 170 0 c 0
420 0 m 0
 420 44 456 80 500 80 c 0
 544 80 580 44 580 0 c 0
 580 -44 544 -80 500 -80 c 0
 456 -80 420 -44 420 0 c 0
EndSplineSet
Validated: 1
EndChar

StartChar: uni28E1
Encoding: 10465 10465 298
Width: 750
GlyphClass: 2
Flags: W
LayerCount: 2
Fore
SplineSet
170 600 m 0
 170 644 206 680 250 680 c 0
 294 680 330 644 330 600 c 0
 330 556 294 520 250 520 c 0
 206 520 170 556 170 600 c 0
420 200 m 0
 420 244 456 280 500 280 c 0
 544 280 580 244 580 200 c 0
 580 156 544 120 500 120 c 0
 456 120 420 156 420 200 c 0
170 0 m 0
 170 44 206 80 250 80 c 0
 294 80 330 44 330 0 c 0
 330 -44 294 -80 250 -80 c 0
 206 -80 170 -44 170 0 c 0
420 0 m 0
 420 44 456 80 500 80 c 0
 544 80 580 44 580 0 c 0
 580 -44 544 -80 500 -80 c 0
 456 -80 420 -44 420 0 c 0
EndSplineSet
Validated: 1
EndChar

StartChar: uni28E2
Encoding: 10466 10466 299
Width: 750
GlyphClass: 2
Flags: W
LayerCount: 2
Fore
SplineSet
170 400 m 0
 170 444 206 480 250 480 c 0
 294 480 330 444 330 400 c 0
 330 356 294 320 250 320 c 0
 206 320 170 356 170 400 c 0
420 200 m 0
 420 244 456 280 500 280 c 0
 544 280 580 244 580 200 c 0
 580 156 544 120 500 120 c 0
 456 120 420 156 420 200 c 0
170 0 m 0
 170 44 206 80 250 80 c 0
 294 80 330 44 330 0 c 0
 330 -44 294 -80 250 -80 c 0
 206 -80 170 -44 170 0 c 0
420 0 m 0
 420 44 456 80 500 80 c 0
 544 80 580 44 580 0 c 0
 580 -44 544 -80 500 -80 c 0
 456 -80 420 -44 420 0 c 0
EndSplineSet
Validated: 1
EndChar

StartChar: uni28E3
Encoding: 10467 10467 300
Width: 750
GlyphClass: 2
Flags: W
LayerCount: 2
Fore
SplineSet
170 600 m 0
 170 644 206 680 250 680 c 0
 294 680 330 644 330 600 c 0
 330 556 294 520 250 520 c 0
 206 520 170 556 170 600 c 0
170 400 m 0
 170 444 206 480 250 480 c 0
 294 480 330 444 330 400 c 0
 330 356 294 320 250 320 c 0
 206 320 170 356 170 400 c 0
420 200 m 0
 420 244 456 280 500 280 c 0
 544 280 580 244 580 200 c 0
 580 156 544 120 500 120 c 0
 456 120 420 156 420 200 c 0
170 0 m 0
 170 44 206 80 250 80 c 0
 294 80 330 44 330 0 c 0
 330 -44 294 -80 250 -80 c 0
 206 -80 170 -44 170 0 c 0
420 0 m 0
 420 44 456 80 500 80 c 0
 544 80 580 44 580 0 c 0
 580 -44 544 -80 500 -80 c 0
 456 -80 420 -44 420 0 c 0
EndSplineSet
Validated: 1
EndChar

StartChar: uni28E4
Encoding: 10468 10468 301
Width: 750
GlyphClass: 2
Flags: W
LayerCount: 2
Fore
SplineSet
170 200 m 0
 170 244 206 280 250 280 c 0
 294 280 330 244 330 200 c 0
 330 156 294 120 250 120 c 0
 206 120 170 156 170 200 c 0
420 200 m 0
 420 244 456 280 500 280 c 0
 544 280 580 244 580 200 c 0
 580 156 544 120 500 120 c 0
 456 120 420 156 420 200 c 0
170 0 m 0
 170 44 206 80 250 80 c 0
 294 80 330 44 330 0 c 0
 330 -44 294 -80 250 -80 c 0
 206 -80 170 -44 170 0 c 0
420 0 m 0
 420 44 456 80 500 80 c 0
 544 80 580 44 580 0 c 0
 580 -44 544 -80 500 -80 c 0
 456 -80 420 -44 420 0 c 0
EndSplineSet
Validated: 1
EndChar

StartChar: uni28E5
Encoding: 10469 10469 302
Width: 750
GlyphClass: 2
Flags: W
LayerCount: 2
Fore
SplineSet
170 600 m 0
 170 644 206 680 250 680 c 0
 294 680 330 644 330 600 c 0
 330 556 294 520 250 520 c 0
 206 520 170 556 170 600 c 0
170 200 m 0
 170 244 206 280 250 280 c 0
 294 280 330 244 330 200 c 0
 330 156 294 120 250 120 c 0
 206 120 170 156 170 200 c 0
420 200 m 0
 420 244 456 280 500 280 c 0
 544 280 580 244 580 200 c 0
 580 156 544 120 500 120 c 0
 456 120 420 156 420 200 c 0
170 0 m 0
 170 44 206 80 250 80 c 0
 294 80 330 44 330 0 c 0
 330 -44 294 -80 250 -80 c 0
 206 -80 170 -44 170 0 c 0
420 0 m 0
 420 44 456 80 500 80 c 0
 544 80 580 44 580 0 c 0
 580 -44 544 -80 500 -80 c 0
 456 -80 420 -44 420 0 c 0
EndSplineSet
Validated: 1
EndChar

StartChar: uni28E6
Encoding: 10470 10470 303
Width: 750
GlyphClass: 2
Flags: W
LayerCount: 2
Fore
SplineSet
170 400 m 0
 170 444 206 480 250 480 c 0
 294 480 330 444 330 400 c 0
 330 356 294 320 250 320 c 0
 206 320 170 356 170 400 c 0
170 200 m 0
 170 244 206 280 250 280 c 0
 294 280 330 244 330 200 c 0
 330 156 294 120 250 120 c 0
 206 120 170 156 170 200 c 0
420 200 m 0
 420 244 456 280 500 280 c 0
 544 280 580 244 580 200 c 0
 580 156 544 120 500 120 c 0
 456 120 420 156 420 200 c 0
170 0 m 0
 170 44 206 80 250 80 c 0
 294 80 330 44 330 0 c 0
 330 -44 294 -80 250 -80 c 0
 206 -80 170 -44 170 0 c 0
420 0 m 0
 420 44 456 80 500 80 c 0
 544 80 580 44 580 0 c 0
 580 -44 544 -80 500 -80 c 0
 456 -80 420 -44 420 0 c 0
EndSplineSet
Validated: 1
EndChar

StartChar: uni28E7
Encoding: 10471 10471 304
Width: 750
GlyphClass: 2
Flags: W
LayerCount: 2
Fore
SplineSet
170 600 m 0
 170 644 206 680 250 680 c 0
 294 680 330 644 330 600 c 0
 330 556 294 520 250 520 c 0
 206 520 170 556 170 600 c 0
170 400 m 0
 170 444 206 480 250 480 c 0
 294 480 330 444 330 400 c 0
 330 356 294 320 250 320 c 0
 206 320 170 356 170 400 c 0
170 200 m 0
 170 244 206 280 250 280 c 0
 294 280 330 244 330 200 c 0
 330 156 294 120 250 120 c 0
 206 120 170 156 170 200 c 0
420 200 m 0
 420 244 456 280 500 280 c 0
 544 280 580 244 580 200 c 0
 580 156 544 120 500 120 c 0
 456 120 420 156 420 200 c 0
170 0 m 0
 170 44 206 80 250 80 c 0
 294 80 330 44 330 0 c 0
 330 -44 294 -80 250 -80 c 0
 206 -80 170 -44 170 0 c 0
420 0 m 0
 420 44 456 80 500 80 c 0
 544 80 580 44 580 0 c 0
 580 -44 544 -80 500 -80 c 0
 456 -80 420 -44 420 0 c 0
EndSplineSet
Validated: 1
EndChar

StartChar: uni28E8
Encoding: 10472 10472 305
Width: 750
GlyphClass: 2
Flags: W
LayerCount: 2
Fore
SplineSet
420 600 m 0
 420 644 456 680 500 680 c 0
 544 680 580 644 580 600 c 0
 580 556 544 520 500 520 c 0
 456 520 420 556 420 600 c 0
420 200 m 0
 420 244 456 280 500 280 c 0
 544 280 580 244 580 200 c 0
 580 156 544 120 500 120 c 0
 456 120 420 156 420 200 c 0
170 0 m 0
 170 44 206 80 250 80 c 0
 294 80 330 44 330 0 c 0
 330 -44 294 -80 250 -80 c 0
 206 -80 170 -44 170 0 c 0
420 0 m 0
 420 44 456 80 500 80 c 0
 544 80 580 44 580 0 c 0
 580 -44 544 -80 500 -80 c 0
 456 -80 420 -44 420 0 c 0
EndSplineSet
Validated: 1
EndChar

StartChar: uni28E9
Encoding: 10473 10473 306
Width: 750
GlyphClass: 2
Flags: W
LayerCount: 2
Fore
SplineSet
170 600 m 0
 170 644 206 680 250 680 c 0
 294 680 330 644 330 600 c 0
 330 556 294 520 250 520 c 0
 206 520 170 556 170 600 c 0
420 600 m 0
 420 644 456 680 500 680 c 0
 544 680 580 644 580 600 c 0
 580 556 544 520 500 520 c 0
 456 520 420 556 420 600 c 0
420 200 m 0
 420 244 456 280 500 280 c 0
 544 280 580 244 580 200 c 0
 580 156 544 120 500 120 c 0
 456 120 420 156 420 200 c 0
170 0 m 0
 170 44 206 80 250 80 c 0
 294 80 330 44 330 0 c 0
 330 -44 294 -80 250 -80 c 0
 206 -80 170 -44 170 0 c 0
420 0 m 0
 420 44 456 80 500 80 c 0
 544 80 580 44 580 0 c 0
 580 -44 544 -80 500 -80 c 0
 456 -80 420 -44 420 0 c 0
EndSplineSet
Validated: 1
EndChar

StartChar: uni28EA
Encoding: 10474 10474 307
Width: 750
GlyphClass: 2
Flags: W
LayerCount: 2
Fore
SplineSet
170 400 m 0
 170 444 206 480 250 480 c 0
 294 480 330 444 330 400 c 0
 330 356 294 320 250 320 c 0
 206 320 170 356 170 400 c 0
420 600 m 0
 420 644 456 680 500 680 c 0
 544 680 580 644 580 600 c 0
 580 556 544 520 500 520 c 0
 456 520 420 556 420 600 c 0
420 200 m 0
 420 244 456 280 500 280 c 0
 544 280 580 244 580 200 c 0
 580 156 544 120 500 120 c 0
 456 120 420 156 420 200 c 0
170 0 m 0
 170 44 206 80 250 80 c 0
 294 80 330 44 330 0 c 0
 330 -44 294 -80 250 -80 c 0
 206 -80 170 -44 170 0 c 0
420 0 m 0
 420 44 456 80 500 80 c 0
 544 80 580 44 580 0 c 0
 580 -44 544 -80 500 -80 c 0
 456 -80 420 -44 420 0 c 0
EndSplineSet
Validated: 1
EndChar

StartChar: uni28EB
Encoding: 10475 10475 308
Width: 750
GlyphClass: 2
Flags: W
LayerCount: 2
Fore
SplineSet
170 600 m 0
 170 644 206 680 250 680 c 0
 294 680 330 644 330 600 c 0
 330 556 294 520 250 520 c 0
 206 520 170 556 170 600 c 0
170 400 m 0
 170 444 206 480 250 480 c 0
 294 480 330 444 330 400 c 0
 330 356 294 320 250 320 c 0
 206 320 170 356 170 400 c 0
420 600 m 0
 420 644 456 680 500 680 c 0
 544 680 580 644 580 600 c 0
 580 556 544 520 500 520 c 0
 456 520 420 556 420 600 c 0
420 200 m 0
 420 244 456 280 500 280 c 0
 544 280 580 244 580 200 c 0
 580 156 544 120 500 120 c 0
 456 120 420 156 420 200 c 0
170 0 m 0
 170 44 206 80 250 80 c 0
 294 80 330 44 330 0 c 0
 330 -44 294 -80 250 -80 c 0
 206 -80 170 -44 170 0 c 0
420 0 m 0
 420 44 456 80 500 80 c 0
 544 80 580 44 580 0 c 0
 580 -44 544 -80 500 -80 c 0
 456 -80 420 -44 420 0 c 0
EndSplineSet
Validated: 1
EndChar

StartChar: uni28EC
Encoding: 10476 10476 309
Width: 750
GlyphClass: 2
Flags: W
LayerCount: 2
Fore
SplineSet
170 200 m 0
 170 244 206 280 250 280 c 0
 294 280 330 244 330 200 c 0
 330 156 294 120 250 120 c 0
 206 120 170 156 170 200 c 0
420 600 m 0
 420 644 456 680 500 680 c 0
 544 680 580 644 580 600 c 0
 580 556 544 520 500 520 c 0
 456 520 420 556 420 600 c 0
420 200 m 0
 420 244 456 280 500 280 c 0
 544 280 580 244 580 200 c 0
 580 156 544 120 500 120 c 0
 456 120 420 156 420 200 c 0
170 0 m 0
 170 44 206 80 250 80 c 0
 294 80 330 44 330 0 c 0
 330 -44 294 -80 250 -80 c 0
 206 -80 170 -44 170 0 c 0
420 0 m 0
 420 44 456 80 500 80 c 0
 544 80 580 44 580 0 c 0
 580 -44 544 -80 500 -80 c 0
 456 -80 420 -44 420 0 c 0
EndSplineSet
Validated: 1
EndChar

StartChar: uni28ED
Encoding: 10477 10477 310
Width: 750
GlyphClass: 2
Flags: W
LayerCount: 2
Fore
SplineSet
170 600 m 0
 170 644 206 680 250 680 c 0
 294 680 330 644 330 600 c 0
 330 556 294 520 250 520 c 0
 206 520 170 556 170 600 c 0
170 200 m 0
 170 244 206 280 250 280 c 0
 294 280 330 244 330 200 c 0
 330 156 294 120 250 120 c 0
 206 120 170 156 170 200 c 0
420 600 m 0
 420 644 456 680 500 680 c 0
 544 680 580 644 580 600 c 0
 580 556 544 520 500 520 c 0
 456 520 420 556 420 600 c 0
420 200 m 0
 420 244 456 280 500 280 c 0
 544 280 580 244 580 200 c 0
 580 156 544 120 500 120 c 0
 456 120 420 156 420 200 c 0
170 0 m 0
 170 44 206 80 250 80 c 0
 294 80 330 44 330 0 c 0
 330 -44 294 -80 250 -80 c 0
 206 -80 170 -44 170 0 c 0
420 0 m 0
 420 44 456 80 500 80 c 0
 544 80 580 44 580 0 c 0
 580 -44 544 -80 500 -80 c 0
 456 -80 420 -44 420 0 c 0
EndSplineSet
Validated: 1
EndChar

StartChar: uni28EE
Encoding: 10478 10478 311
Width: 750
GlyphClass: 2
Flags: W
LayerCount: 2
Fore
SplineSet
170 400 m 0
 170 444 206 480 250 480 c 0
 294 480 330 444 330 400 c 0
 330 356 294 320 250 320 c 0
 206 320 170 356 170 400 c 0
170 200 m 0
 170 244 206 280 250 280 c 0
 294 280 330 244 330 200 c 0
 330 156 294 120 250 120 c 0
 206 120 170 156 170 200 c 0
420 600 m 0
 420 644 456 680 500 680 c 0
 544 680 580 644 580 600 c 0
 580 556 544 520 500 520 c 0
 456 520 420 556 420 600 c 0
420 200 m 0
 420 244 456 280 500 280 c 0
 544 280 580 244 580 200 c 0
 580 156 544 120 500 120 c 0
 456 120 420 156 420 200 c 0
170 0 m 0
 170 44 206 80 250 80 c 0
 294 80 330 44 330 0 c 0
 330 -44 294 -80 250 -80 c 0
 206 -80 170 -44 170 0 c 0
420 0 m 0
 420 44 456 80 500 80 c 0
 544 80 580 44 580 0 c 0
 580 -44 544 -80 500 -80 c 0
 456 -80 420 -44 420 0 c 0
EndSplineSet
Validated: 1
EndChar

StartChar: uni28EF
Encoding: 10479 10479 312
Width: 750
GlyphClass: 2
Flags: W
LayerCount: 2
Fore
SplineSet
170 600 m 0
 170 644 206 680 250 680 c 0
 294 680 330 644 330 600 c 0
 330 556 294 520 250 520 c 0
 206 520 170 556 170 600 c 0
170 400 m 0
 170 444 206 480 250 480 c 0
 294 480 330 444 330 400 c 0
 330 356 294 320 250 320 c 0
 206 320 170 356 170 400 c 0
170 200 m 0
 170 244 206 280 250 280 c 0
 294 280 330 244 330 200 c 0
 330 156 294 120 250 120 c 0
 206 120 170 156 170 200 c 0
420 600 m 0
 420 644 456 680 500 680 c 0
 544 680 580 644 580 600 c 0
 580 556 544 520 500 520 c 0
 456 520 420 556 420 600 c 0
420 200 m 0
 420 244 456 280 500 280 c 0
 544 280 580 244 580 200 c 0
 580 156 544 120 500 120 c 0
 456 120 420 156 420 200 c 0
170 0 m 0
 170 44 206 80 250 80 c 0
 294 80 330 44 330 0 c 0
 330 -44 294 -80 250 -80 c 0
 206 -80 170 -44 170 0 c 0
420 0 m 0
 420 44 456 80 500 80 c 0
 544 80 580 44 580 0 c 0
 580 -44 544 -80 500 -80 c 0
 456 -80 420 -44 420 0 c 0
EndSplineSet
Validated: 1
EndChar

StartChar: uni28F0
Encoding: 10480 10480 313
Width: 750
GlyphClass: 2
Flags: W
LayerCount: 2
Fore
SplineSet
420 400 m 0
 420 444 456 480 500 480 c 0
 544 480 580 444 580 400 c 0
 580 356 544 320 500 320 c 0
 456 320 420 356 420 400 c 0
420 200 m 0
 420 244 456 280 500 280 c 0
 544 280 580 244 580 200 c 0
 580 156 544 120 500 120 c 0
 456 120 420 156 420 200 c 0
170 0 m 0
 170 44 206 80 250 80 c 0
 294 80 330 44 330 0 c 0
 330 -44 294 -80 250 -80 c 0
 206 -80 170 -44 170 0 c 0
420 0 m 0
 420 44 456 80 500 80 c 0
 544 80 580 44 580 0 c 0
 580 -44 544 -80 500 -80 c 0
 456 -80 420 -44 420 0 c 0
EndSplineSet
Validated: 1
EndChar

StartChar: uni28F1
Encoding: 10481 10481 314
Width: 750
GlyphClass: 2
Flags: W
LayerCount: 2
Fore
SplineSet
170 600 m 0
 170 644 206 680 250 680 c 0
 294 680 330 644 330 600 c 0
 330 556 294 520 250 520 c 0
 206 520 170 556 170 600 c 0
420 400 m 0
 420 444 456 480 500 480 c 0
 544 480 580 444 580 400 c 0
 580 356 544 320 500 320 c 0
 456 320 420 356 420 400 c 0
420 200 m 0
 420 244 456 280 500 280 c 0
 544 280 580 244 580 200 c 0
 580 156 544 120 500 120 c 0
 456 120 420 156 420 200 c 0
170 0 m 0
 170 44 206 80 250 80 c 0
 294 80 330 44 330 0 c 0
 330 -44 294 -80 250 -80 c 0
 206 -80 170 -44 170 0 c 0
420 0 m 0
 420 44 456 80 500 80 c 0
 544 80 580 44 580 0 c 0
 580 -44 544 -80 500 -80 c 0
 456 -80 420 -44 420 0 c 0
EndSplineSet
Validated: 1
EndChar

StartChar: uni28F2
Encoding: 10482 10482 315
Width: 750
GlyphClass: 2
Flags: W
LayerCount: 2
Fore
SplineSet
170 400 m 0
 170 444 206 480 250 480 c 0
 294 480 330 444 330 400 c 0
 330 356 294 320 250 320 c 0
 206 320 170 356 170 400 c 0
420 400 m 0
 420 444 456 480 500 480 c 0
 544 480 580 444 580 400 c 0
 580 356 544 320 500 320 c 0
 456 320 420 356 420 400 c 0
420 200 m 0
 420 244 456 280 500 280 c 0
 544 280 580 244 580 200 c 0
 580 156 544 120 500 120 c 0
 456 120 420 156 420 200 c 0
170 0 m 0
 170 44 206 80 250 80 c 0
 294 80 330 44 330 0 c 0
 330 -44 294 -80 250 -80 c 0
 206 -80 170 -44 170 0 c 0
420 0 m 0
 420 44 456 80 500 80 c 0
 544 80 580 44 580 0 c 0
 580 -44 544 -80 500 -80 c 0
 456 -80 420 -44 420 0 c 0
EndSplineSet
Validated: 1
EndChar

StartChar: uni28F3
Encoding: 10483 10483 316
Width: 750
GlyphClass: 2
Flags: W
LayerCount: 2
Fore
SplineSet
170 600 m 0
 170 644 206 680 250 680 c 0
 294 680 330 644 330 600 c 0
 330 556 294 520 250 520 c 0
 206 520 170 556 170 600 c 0
170 400 m 0
 170 444 206 480 250 480 c 0
 294 480 330 444 330 400 c 0
 330 356 294 320 250 320 c 0
 206 320 170 356 170 400 c 0
420 400 m 0
 420 444 456 480 500 480 c 0
 544 480 580 444 580 400 c 0
 580 356 544 320 500 320 c 0
 456 320 420 356 420 400 c 0
420 200 m 0
 420 244 456 280 500 280 c 0
 544 280 580 244 580 200 c 0
 580 156 544 120 500 120 c 0
 456 120 420 156 420 200 c 0
170 0 m 0
 170 44 206 80 250 80 c 0
 294 80 330 44 330 0 c 0
 330 -44 294 -80 250 -80 c 0
 206 -80 170 -44 170 0 c 0
420 0 m 0
 420 44 456 80 500 80 c 0
 544 80 580 44 580 0 c 0
 580 -44 544 -80 500 -80 c 0
 456 -80 420 -44 420 0 c 0
EndSplineSet
Validated: 1
EndChar

StartChar: uni28F4
Encoding: 10484 10484 317
Width: 750
GlyphClass: 2
Flags: W
LayerCount: 2
Fore
SplineSet
170 200 m 0
 170 244 206 280 250 280 c 0
 294 280 330 244 330 200 c 0
 330 156 294 120 250 120 c 0
 206 120 170 156 170 200 c 0
420 400 m 0
 420 444 456 480 500 480 c 0
 544 480 580 444 580 400 c 0
 580 356 544 320 500 320 c 0
 456 320 420 356 420 400 c 0
420 200 m 0
 420 244 456 280 500 280 c 0
 544 280 580 244 580 200 c 0
 580 156 544 120 500 120 c 0
 456 120 420 156 420 200 c 0
170 0 m 0
 170 44 206 80 250 80 c 0
 294 80 330 44 330 0 c 0
 330 -44 294 -80 250 -80 c 0
 206 -80 170 -44 170 0 c 0
420 0 m 0
 420 44 456 80 500 80 c 0
 544 80 580 44 580 0 c 0
 580 -44 544 -80 500 -80 c 0
 456 -80 420 -44 420 0 c 0
EndSplineSet
Validated: 1
EndChar

StartChar: uni28F5
Encoding: 10485 10485 318
Width: 750
GlyphClass: 2
Flags: W
LayerCount: 2
Fore
SplineSet
170 600 m 0
 170 644 206 680 250 680 c 0
 294 680 330 644 330 600 c 0
 330 556 294 520 250 520 c 0
 206 520 170 556 170 600 c 0
170 200 m 0
 170 244 206 280 250 280 c 0
 294 280 330 244 330 200 c 0
 330 156 294 120 250 120 c 0
 206 120 170 156 170 200 c 0
420 400 m 0
 420 444 456 480 500 480 c 0
 544 480 580 444 580 400 c 0
 580 356 544 320 500 320 c 0
 456 320 420 356 420 400 c 0
420 200 m 0
 420 244 456 280 500 280 c 0
 544 280 580 244 580 200 c 0
 580 156 544 120 500 120 c 0
 456 120 420 156 420 200 c 0
170 0 m 0
 170 44 206 80 250 80 c 0
 294 80 330 44 330 0 c 0
 330 -44 294 -80 250 -80 c 0
 206 -80 170 -44 170 0 c 0
420 0 m 0
 420 44 456 80 500 80 c 0
 544 80 580 44 580 0 c 0
 580 -44 544 -80 500 -80 c 0
 456 -80 420 -44 420 0 c 0
EndSplineSet
Validated: 1
EndChar

StartChar: uni28F6
Encoding: 10486 10486 319
Width: 750
GlyphClass: 2
Flags: W
LayerCount: 2
Fore
SplineSet
170 400 m 0
 170 444 206 480 250 480 c 0
 294 480 330 444 330 400 c 0
 330 356 294 320 250 320 c 0
 206 320 170 356 170 400 c 0
170 200 m 0
 170 244 206 280 250 280 c 0
 294 280 330 244 330 200 c 0
 330 156 294 120 250 120 c 0
 206 120 170 156 170 200 c 0
420 400 m 0
 420 444 456 480 500 480 c 0
 544 480 580 444 580 400 c 0
 580 356 544 320 500 320 c 0
 456 320 420 356 420 400 c 0
420 200 m 0
 420 244 456 280 500 280 c 0
 544 280 580 244 580 200 c 0
 580 156 544 120 500 120 c 0
 456 120 420 156 420 200 c 0
170 0 m 0
 170 44 206 80 250 80 c 0
 294 80 330 44 330 0 c 0
 330 -44 294 -80 250 -80 c 0
 206 -80 170 -44 170 0 c 0
420 0 m 0
 420 44 456 80 500 80 c 0
 544 80 580 44 580 0 c 0
 580 -44 544 -80 500 -80 c 0
 456 -80 420 -44 420 0 c 0
EndSplineSet
Validated: 1
EndChar

StartChar: uni28F7
Encoding: 10487 10487 320
Width: 750
GlyphClass: 2
Flags: W
LayerCount: 2
Fore
SplineSet
170 600 m 0
 170 644 206 680 250 680 c 0
 294 680 330 644 330 600 c 0
 330 556 294 520 250 520 c 0
 206 520 170 556 170 600 c 0
170 400 m 0
 170 444 206 480 250 480 c 0
 294 480 330 444 330 400 c 0
 330 356 294 320 250 320 c 0
 206 320 170 356 170 400 c 0
170 200 m 0
 170 244 206 280 250 280 c 0
 294 280 330 244 330 200 c 0
 330 156 294 120 250 120 c 0
 206 120 170 156 170 200 c 0
420 400 m 0
 420 444 456 480 500 480 c 0
 544 480 580 444 580 400 c 0
 580 356 544 320 500 320 c 0
 456 320 420 356 420 400 c 0
420 200 m 0
 420 244 456 280 500 280 c 0
 544 280 580 244 580 200 c 0
 580 156 544 120 500 120 c 0
 456 120 420 156 420 200 c 0
170 0 m 0
 170 44 206 80 250 80 c 0
 294 80 330 44 330 0 c 0
 330 -44 294 -80 250 -80 c 0
 206 -80 170 -44 170 0 c 0
420 0 m 0
 420 44 456 80 500 80 c 0
 544 80 580 44 580 0 c 0
 580 -44 544 -80 500 -80 c 0
 456 -80 420 -44 420 0 c 0
EndSplineSet
Validated: 1
EndChar

